STARTFONT 2.3
FONT -FontForge-Source Code Pro-Bold-R-Normal--11-110-72-72-M-70-ISO10646-1
SIZE 11 72 72  2
FONTBOUNDINGBOX 12 18 -3 -5
COMMENT "Generated by fontforge, http://fontforge.sourceforge.net"
COMMENT "Copyright 2010, 2012 Adobe Systems Incorporated (http://www.adobe.com/), with Reserved Font Name `Source'."
STARTPROPERTIES 41
FOUNDRY "FontForge"
FAMILY_NAME "Source Code Pro"
WEIGHT_NAME "Bold"
SLANT "R"
SETWIDTH_NAME "Normal"
ADD_STYLE_NAME ""
PIXEL_SIZE 11
POINT_SIZE 110
RESOLUTION_X 72
RESOLUTION_Y 72
SPACING "M"
AVERAGE_WIDTH 70
CHARSET_REGISTRY "ISO10646"
CHARSET_ENCODING "1"
FONTNAME_REGISTRY ""
CHARSET_COLLECTIONS "ASCII ISOLatin1Encoding ISO8859-2 ISO8859-5 ISO8859-7 ISO8859-9 ISO8859-4 ISO10646-1"
BITS_PER_PIXEL 2
FONT_NAME "SourceCodePro-Bold"
FACE_NAME "Source Code Pro Bold"
COPYRIGHT "Copyright 2010, 2012 Adobe Systems Incorporated (http://www.adobe.com/), with Reserved Font Name `Source'."
FONT_VERSION "2.030;PS 1.000;hotconv 16.6.51;makeotf.lib2.5.65220"
FONT_ASCENT 8
FONT_DESCENT 3
UNDERLINE_POSITION -1
UNDERLINE_THICKNESS 1
X_HEIGHT 4
CAP_HEIGHT 6
RAW_ASCENT 750
RAW_DESCENT 250
NORM_SPACE 7
RELATIVE_WEIGHT 70
RELATIVE_SETWIDTH 50
SUPERSCRIPT_X 0
SUPERSCRIPT_Y 3
SUPERSCRIPT_SIZE 6
SUBSCRIPT_X 0
SUBSCRIPT_Y 0
SUBSCRIPT_SIZE 6
FIGURE_WIDTH 7
AVG_LOWERCASE_WIDTH 70
AVG_UPPERCASE_WIDTH 70
ENDPROPERTIES
CHARS 1564
STARTCHAR space
ENCODING 32
SWIDTH 600 0
DWIDTH 7 0
BBX 1 1 0 0
BITMAP
00
ENDCHAR
STARTCHAR exclam
ENCODING 33
SWIDTH 600 0
DWIDTH 7 0
BBX 3 7 2 0
BITMAP
70
70
70
70
00
B4
B4
ENDCHAR
STARTCHAR quotedbl
ENCODING 34
SWIDTH 600 0
DWIDTH 7 0
BBX 5 4 1 3
BITMAP
E380
E380
E380
9240
ENDCHAR
STARTCHAR numbersign
ENCODING 35
SWIDTH 600 0
DWIDTH 7 0
BBX 6 7 0 0
BITMAP
0C80
0DD0
3EE0
1980
7FE0
1580
2640
ENDCHAR
STARTCHAR dollar
ENCODING 36
SWIDTH 600 0
DWIDTH 7 0
BBX 5 9 1 -1
BITMAP
1C00
7F40
E100
B900
1B40
5380
BE00
1C00
1C00
ENDCHAR
STARTCHAR percent
ENCODING 37
SWIDTH 600 0
DWIDTH 7 0
BBX 7 8 0 0
BITMAP
7800
9920
99A0
7840
01E0
0774
3774
51E0
ENDCHAR
STARTCHAR ampersand
ENCODING 38
SWIDTH 600 0
DWIDTH 7 0
BBX 7 7 0 0
BITMAP
1E00
3740
3B00
3D74
BBB0
B2E0
2FA4
ENDCHAR
STARTCHAR quotesingle
ENCODING 39
SWIDTH 600 0
DWIDTH 7 0
BBX 3 4 2 3
BITMAP
B4
B4
70
70
ENDCHAR
STARTCHAR parenleft
ENCODING 40
SWIDTH 600 0
DWIDTH 7 0
BBX 3 10 2 -2
BITMAP
18
38
70
A0
D0
D0
A0
70
38
18
ENDCHAR
STARTCHAR parenright
ENCODING 41
SWIDTH 600 0
DWIDTH 7 0
BBX 4 10 1 -2
BITMAP
60
38
1C
0D
0A
0A
0D
1C
38
60
ENDCHAR
STARTCHAR asterisk
ENCODING 42
SWIDTH 600 0
DWIDTH 7 0
BBX 5 5 1 1
BITMAP
1800
9D40
7E40
3A00
5200
ENDCHAR
STARTCHAR plus
ENCODING 43
SWIDTH 600 0
DWIDTH 7 0
BBX 6 5 0 1
BITMAP
0700
0700
7FE0
0700
0700
ENDCHAR
STARTCHAR comma
ENCODING 44
SWIDTH 600 0
DWIDTH 7 0
BBX 3 5 2 -3
BITMAP
B4
B8
28
B0
40
ENDCHAR
STARTCHAR hyphen
ENCODING 45
SWIDTH 600 0
DWIDTH 7 0
BBX 6 1 0 3
BITMAP
7FE0
ENDCHAR
STARTCHAR period
ENCODING 46
SWIDTH 600 0
DWIDTH 7 0
BBX 3 3 2 0
BITMAP
B4
F8
B4
ENDCHAR
STARTCHAR slash
ENCODING 47
SWIDTH 600 0
DWIDTH 7 0
BBX 5 10 1 -2
BITMAP
0280
0340
0700
0E00
1C00
2800
3400
7000
A000
D000
ENDCHAR
STARTCHAR zero
ENCODING 48
SWIDTH 600 0
DWIDTH 7 0
BBX 6 7 0 0
BITMAP
1F80
38E0
76B0
77B0
70B0
38E0
1F80
ENDCHAR
STARTCHAR one
ENCODING 49
SWIDTH 600 0
DWIDTH 7 0
BBX 5 7 1 0
BITMAP
B900
5D00
1D00
1D00
1D00
1E40
FFC0
ENDCHAR
STARTCHAR two
ENCODING 50
SWIDTH 600 0
DWIDTH 7 0
BBX 6 7 0 0
BITMAP
2F80
21D0
00D0
02D0
0740
1E00
7FF0
ENDCHAR
STARTCHAR three
ENCODING 51
SWIDTH 600 0
DWIDTH 7 0
BBX 6 7 0 0
BITMAP
2F80
11E0
01D0
0F80
01E0
10E0
6F80
ENDCHAR
STARTCHAR four
ENCODING 52
SWIDTH 600 0
DWIDTH 7 0
BBX 6 7 0 0
BITMAP
03D0
0AD0
1DD0
75D0
BFF0
01D0
01D0
ENDCHAR
STARTCHAR five
ENCODING 53
SWIDTH 600 0
DWIDTH 7 0
BBX 5 7 1 0
BITMAP
BF80
E000
E000
BE40
0380
4780
BE00
ENDCHAR
STARTCHAR six
ENCODING 54
SWIDTH 600 0
DWIDTH 7 0
BBX 6 7 0 0
BITMAP
0BD0
2840
7400
7BD0
74B0
38B0
1B90
ENDCHAR
STARTCHAR seven
ENCODING 55
SWIDTH 600 0
DWIDTH 7 0
BBX 6 7 0 0
BITMAP
7FF0
00D0
0280
0740
0B00
0B00
0A00
ENDCHAR
STARTCHAR eight
ENCODING 56
SWIDTH 600 0
DWIDTH 7 0
BBX 6 7 0 0
BITMAP
1F80
38E0
2FD0
2FD0
75F0
74A0
1F90
ENDCHAR
STARTCHAR nine
ENCODING 57
SWIDTH 600 0
DWIDTH 7 0
BBX 6 7 0 0
BITMAP
1F80
74D0
74A0
2FF0
00A0
11D0
2F40
ENDCHAR
STARTCHAR colon
ENCODING 58
SWIDTH 600 0
DWIDTH 7 0
BBX 3 7 2 0
BITMAP
B4
F8
B4
00
B4
F8
B4
ENDCHAR
STARTCHAR semicolon
ENCODING 59
SWIDTH 600 0
DWIDTH 7 0
BBX 3 10 2 -3
BITMAP
B4
F8
B4
00
00
B4
B8
28
B0
40
ENDCHAR
STARTCHAR less
ENCODING 60
SWIDTH 600 0
DWIDTH 7 0
BBX 5 5 1 1
BITMAP
0240
2E00
B000
2E00
0240
ENDCHAR
STARTCHAR equal
ENCODING 61
SWIDTH 600 0
DWIDTH 7 0
BBX 6 3 0 2
BITMAP
7FE0
0000
7FE0
ENDCHAR
STARTCHAR greater
ENCODING 62
SWIDTH 600 0
DWIDTH 7 0
BBX 5 5 1 1
BITMAP
9000
6D00
0740
6D00
9000
ENDCHAR
STARTCHAR question
ENCODING 63
SWIDTH 600 0
DWIDTH 7 0
BBX 5 7 1 0
BITMAP
7E00
1740
0B00
2C00
0000
2C00
2C00
ENDCHAR
STARTCHAR at
ENCODING 64
SWIDTH 600 0
DWIDTH 7 0
BBX 6 9 0 -2
BITMAP
1B90
3860
6070
A7B0
9A70
A7B0
7000
3800
0BD0
ENDCHAR
STARTCHAR A
ENCODING 65
SWIDTH 600 0
DWIDTH 7 0
BBX 7 7 0 0
BITMAP
0F40
0E80
1DC0
28D0
3FE0
70B0
B074
ENDCHAR
STARTCHAR B
ENCODING 66
SWIDTH 600 0
DWIDTH 7 0
BBX 6 7 0 0
BITMAP
7F90
74E0
74E0
7FD0
74B0
74B0
7FD0
ENDCHAR
STARTCHAR C
ENCODING 67
SWIDTH 600 0
DWIDTH 7 0
BBX 6 7 0 0
BITMAP
0BE0
2C10
7400
7400
7400
2C10
0BE0
ENDCHAR
STARTCHAR D
ENCODING 68
SWIDTH 600 0
DWIDTH 7 0
BBX 6 7 0 0
BITMAP
7F80
75E0
74B0
7470
74B0
75E0
7F80
ENDCHAR
STARTCHAR E
ENCODING 69
SWIDTH 600 0
DWIDTH 7 0
BBX 5 7 1 0
BITMAP
FF80
E000
E000
FF40
E000
E000
FFC0
ENDCHAR
STARTCHAR F
ENCODING 70
SWIDTH 600 0
DWIDTH 7 0
BBX 5 7 1 0
BITMAP
FFC0
E000
E000
FF40
E000
E000
E000
ENDCHAR
STARTCHAR G
ENCODING 71
SWIDTH 600 0
DWIDTH 7 0
BBX 6 7 0 0
BITMAP
0BD0
3840
7400
75F0
7470
38B0
1BD0
ENDCHAR
STARTCHAR H
ENCODING 72
SWIDTH 600 0
DWIDTH 7 0
BBX 6 7 0 0
BITMAP
74B0
74B0
74B0
7FF0
74B0
74B0
74B0
ENDCHAR
STARTCHAR I
ENCODING 73
SWIDTH 600 0
DWIDTH 7 0
BBX 6 7 0 0
BITMAP
7FE0
0B00
0B00
0B00
0B00
0B00
7FE0
ENDCHAR
STARTCHAR J
ENCODING 74
SWIDTH 600 0
DWIDTH 7 0
BBX 5 7 1 0
BITMAP
BF80
0380
0380
0380
0380
8740
BE00
ENDCHAR
STARTCHAR K
ENCODING 75
SWIDTH 600 0
DWIDTH 7 0
BBX 7 7 0 0
BITMAP
74B0
76D0
7B40
7F80
7AC0
74E0
74B4
ENDCHAR
STARTCHAR L
ENCODING 76
SWIDTH 600 0
DWIDTH 7 0
BBX 5 7 1 0
BITMAP
A000
A000
A000
A000
A000
A000
BFC0
ENDCHAR
STARTCHAR M
ENCODING 77
SWIDTH 600 0
DWIDTH 7 0
BBX 6 7 0 0
BITMAP
74F0
78F0
7DB0
7BB0
7770
7070
7070
ENDCHAR
STARTCHAR N
ENCODING 78
SWIDTH 600 0
DWIDTH 7 0
BBX 6 7 0 0
BITMAP
78B0
7CB0
79B0
7BB0
77B0
75F0
74F0
ENDCHAR
STARTCHAR O
ENCODING 79
SWIDTH 600 0
DWIDTH 7 0
BBX 6 7 0 0
BITMAP
1F80
38E0
74B0
B0B0
74B0
38E0
1F80
ENDCHAR
STARTCHAR P
ENCODING 80
SWIDTH 600 0
DWIDTH 7 0
BBX 6 7 0 0
BITMAP
7F90
74B0
7470
74B0
7F90
7400
7400
ENDCHAR
STARTCHAR Q
ENCODING 81
SWIDTH 600 0
DWIDTH 7 0
BBX 7 9 0 -2
BITMAP
1F80
38E0
70B0
B0B0
74B0
38E0
1F80
0780
01F4
ENDCHAR
STARTCHAR R
ENCODING 82
SWIDTH 600 0
DWIDTH 7 0
BBX 7 7 0 0
BITMAP
7FD0
74B0
74B0
7FD0
76D0
74E0
74B4
ENDCHAR
STARTCHAR S
ENCODING 83
SWIDTH 600 0
DWIDTH 7 0
BBX 5 7 1 0
BITMAP
6F40
E140
F400
7F40
07C0
92C0
BE40
ENDCHAR
STARTCHAR T
ENCODING 84
SWIDTH 600 0
DWIDTH 7 0
BBX 7 7 0 0
BITMAP
BFF4
0B00
0B00
0B00
0B00
0B00
0B00
ENDCHAR
STARTCHAR U
ENCODING 85
SWIDTH 600 0
DWIDTH 7 0
BBX 6 7 0 0
BITMAP
74B0
74B0
74B0
74B0
74B0
38E0
1F80
ENDCHAR
STARTCHAR V
ENCODING 86
SWIDTH 600 0
DWIDTH 7 0
BBX 7 7 0 0
BITMAP
B074
74B0
38E0
2DD0
1EC0
0F80
0B40
ENDCHAR
STARTCHAR W
ENCODING 87
SWIDTH 600 0
DWIDTH 7 0
BBX 7 7 0 0
BITMAP
E034
A134
B774
7B70
7AB0
7DF0
38E0
ENDCHAR
STARTCHAR X
ENCODING 88
SWIDTH 600 0
DWIDTH 7 0
BBX 6 7 0 0
BITMAP
74B0
2DD0
1FC0
0F40
1EC0
39E0
B4B0
ENDCHAR
STARTCHAR Y
ENCODING 89
SWIDTH 600 0
DWIDTH 7 0
BBX 7 7 0 0
BITMAP
B074
38E0
2DD0
0F80
0B40
0B00
0B00
ENDCHAR
STARTCHAR Z
ENCODING 90
SWIDTH 600 0
DWIDTH 7 0
BBX 6 7 0 0
BITMAP
3FF0
01D0
0380
0B40
1E00
2C00
7FF0
ENDCHAR
STARTCHAR bracketleft
ENCODING 91
SWIDTH 600 0
DWIDTH 7 0
BBX 4 10 2 -2
BITMAP
BD
90
90
90
90
90
90
90
90
BD
ENDCHAR
STARTCHAR backslash
ENCODING 92
SWIDTH 600 0
DWIDTH 7 0
BBX 5 10 1 -2
BITMAP
D000
A000
7000
3400
2800
1C00
0E00
0700
0340
0280
ENDCHAR
STARTCHAR bracketright
ENCODING 93
SWIDTH 600 0
DWIDTH 7 0
BBX 4 10 1 -2
BITMAP
FD
09
09
09
09
09
09
09
09
FD
ENDCHAR
STARTCHAR asciicircum
ENCODING 94
SWIDTH 600 0
DWIDTH 7 0
BBX 5 4 1 3
BITMAP
2D00
3A00
7700
9340
ENDCHAR
STARTCHAR underscore
ENCODING 95
SWIDTH 600 0
DWIDTH 7 0
BBX 6 1 0 -2
BITMAP
7FF0
ENDCHAR
STARTCHAR grave
ENCODING 96
SWIDTH 600 0
DWIDTH 7 0
BBX 3 3 1 6
BITMAP
20
78
18
ENDCHAR
STARTCHAR a
ENCODING 97
SWIDTH 600 0
DWIDTH 7 0
BBX 6 5 0 0
BITMAP
2F90
10E0
1BF0
78B0
2EB0
ENDCHAR
STARTCHAR b
ENCODING 98
SWIDTH 600 0
DWIDTH 7 0
BBX 6 8 0 0
BITMAP
7400
7400
7400
7BD0
78B0
74B0
78A0
7B90
ENDCHAR
STARTCHAR c
ENCODING 99
SWIDTH 600 0
DWIDTH 7 0
BBX 6 5 0 0
BITMAP
1BE0
3800
7400
3810
1BE0
ENDCHAR
STARTCHAR d
ENCODING 100
SWIDTH 600 0
DWIDTH 7 0
BBX 6 8 0 0
BITMAP
00A0
00A0
00A0
1FE0
74E0
74A0
74E0
2EA0
ENDCHAR
STARTCHAR e
ENCODING 101
SWIDTH 600 0
DWIDTH 7 0
BBX 6 5 0 0
BITMAP
1B90
38A0
7FF0
3800
1BD0
ENDCHAR
STARTCHAR f
ENCODING 102
SWIDTH 600 0
DWIDTH 7 0
BBX 6 8 1 0
BITMAP
0BD0
1D00
2C00
FFC0
2C00
2C00
2C00
2C00
ENDCHAR
STARTCHAR g
ENCODING 103
SWIDTH 600 0
DWIDTH 7 0
BBX 7 7 0 -2
BITMAP
1FF4
39D0
3EC0
3900
3FE0
70B4
2F90
ENDCHAR
STARTCHAR h
ENCODING 104
SWIDTH 600 0
DWIDTH 7 0
BBX 6 8 0 0
BITMAP
7400
7400
7400
7BD0
78B0
74B0
74B0
74B0
ENDCHAR
STARTCHAR i
ENCODING 105
SWIDTH 600 0
DWIDTH 7 0
BBX 4 8 1 0
BITMAP
0E
0E
00
FE
0E
0E
0E
0E
ENDCHAR
STARTCHAR j
ENCODING 106
SWIDTH 600 0
DWIDTH 7 0
BBX 5 10 0 -2
BITMAP
0380
0380
0000
3F80
0380
0380
0380
0380
0380
7E00
ENDCHAR
STARTCHAR k
ENCODING 107
SWIDTH 600 0
DWIDTH 7 0
BBX 5 8 1 0
BITMAP
D000
D000
D000
D780
ED00
FE00
E740
D2C0
ENDCHAR
STARTCHAR l
ENCODING 108
SWIDTH 600 0
DWIDTH 7 0
BBX 6 8 0 0
BITMAP
7F00
0B00
0B00
0B00
0B00
0B00
0B00
02E0
ENDCHAR
STARTCHAR m
ENCODING 109
SWIDTH 600 0
DWIDTH 7 0
BBX 7 5 0 0
BITMAP
AEB0
B774
B774
B774
B774
ENDCHAR
STARTCHAR n
ENCODING 110
SWIDTH 600 0
DWIDTH 7 0
BBX 6 5 0 0
BITMAP
7BD0
78B0
74B0
74B0
74B0
ENDCHAR
STARTCHAR o
ENCODING 111
SWIDTH 600 0
DWIDTH 7 0
BBX 6 5 0 0
BITMAP
1F80
74E0
74B0
74E0
1F80
ENDCHAR
STARTCHAR p
ENCODING 112
SWIDTH 600 0
DWIDTH 7 0
BBX 6 7 0 -2
BITMAP
7BD0
78B0
74B0
78A0
7B90
7400
7400
ENDCHAR
STARTCHAR q
ENCODING 113
SWIDTH 600 0
DWIDTH 7 0
BBX 6 7 0 -2
BITMAP
1FA0
74E0
74A0
74E0
2EE0
00A0
00A0
ENDCHAR
STARTCHAR r
ENCODING 114
SWIDTH 600 0
DWIDTH 7 0
BBX 5 5 1 0
BITMAP
ABC0
B400
B000
B000
B000
ENDCHAR
STARTCHAR s
ENCODING 115
SWIDTH 600 0
DWIDTH 7 0
BBX 5 5 1 0
BITMAP
7E40
E500
7F40
43C0
BF40
ENDCHAR
STARTCHAR t
ENCODING 116
SWIDTH 600 0
DWIDTH 7 0
BBX 6 7 0 0
BITMAP
0E00
0E00
7FF0
0E00
0E00
0E00
07E0
ENDCHAR
STARTCHAR u
ENCODING 117
SWIDTH 600 0
DWIDTH 7 0
BBX 6 5 0 0
BITMAP
74E0
74E0
74E0
75E0
2EA0
ENDCHAR
STARTCHAR v
ENCODING 118
SWIDTH 600 0
DWIDTH 7 0
BBX 6 5 0 0
BITMAP
7070
38E0
2DD0
1EC0
0B40
ENDCHAR
STARTCHAR w
ENCODING 119
SWIDTH 600 0
DWIDTH 7 0
BBX 7 5 0 0
BITMAP
E134
B774
BAB0
7EF0
3DE0
ENDCHAR
STARTCHAR x
ENCODING 120
SWIDTH 600 0
DWIDTH 7 0
BBX 6 5 0 0
BITMAP
38E0
1EC0
0F40
2EC0
74E0
ENDCHAR
STARTCHAR y
ENCODING 121
SWIDTH 600 0
DWIDTH 7 0
BBX 6 7 0 -2
BITMAP
7070
38A0
1DD0
0E80
0740
0B00
3900
ENDCHAR
STARTCHAR z
ENCODING 122
SWIDTH 600 0
DWIDTH 7 0
BBX 6 5 0 0
BITMAP
3FE0
02C0
0B40
1D00
7FF0
ENDCHAR
STARTCHAR braceleft
ENCODING 123
SWIDTH 600 0
DWIDTH 7 0
BBX 5 10 1 -2
BITMAP
0F40
1C00
1C00
2C00
B400
2C00
1C00
1C00
1C00
0B40
ENDCHAR
STARTCHAR bar
ENCODING 124
SWIDTH 600 0
DWIDTH 7 0
BBX 2 11 2 -3
BITMAP
70
70
70
70
70
70
70
70
70
70
70
ENDCHAR
STARTCHAR braceright
ENCODING 125
SWIDTH 600 0
DWIDTH 7 0
BBX 5 10 1 -2
BITMAP
F800
1C00
1C00
1D00
0B40
1D00
1C00
1C00
1C00
F800
ENDCHAR
STARTCHAR asciitilde
ENCODING 126
SWIDTH 600 0
DWIDTH 7 0
BBX 6 2 0 3
BITMAP
2D60
62D0
ENDCHAR
STARTCHAR uni00A0
ENCODING 160
SWIDTH 600 0
DWIDTH 7 0
BBX 1 1 0 0
BITMAP
00
ENDCHAR
STARTCHAR exclamdown
ENCODING 161
SWIDTH 600 0
DWIDTH 7 0
BBX 3 7 2 -2
BITMAP
B4
B4
00
70
70
70
70
ENDCHAR
STARTCHAR cent
ENCODING 162
SWIDTH 600 0
DWIDTH 7 0
BBX 5 7 1 0
BITMAP
0900
2F40
B900
E900
B900
2F40
0900
ENDCHAR
STARTCHAR sterling
ENCODING 163
SWIDTH 600 0
DWIDTH 7 0
BBX 6 7 0 0
BITMAP
0BE0
1D10
1C00
7FC0
0D00
1C00
7FF0
ENDCHAR
STARTCHAR currency
ENCODING 164
SWIDTH 600 0
DWIDTH 7 0
BBX 6 7 0 0
BITMAP
1010
7FE0
38D0
34A0
38D0
7FE0
1010
ENDCHAR
STARTCHAR yen
ENCODING 165
SWIDTH 600 0
DWIDTH 7 0
BBX 6 7 0 0
BITMAP
74B0
28D0
1EC0
6FE0
1B50
6FA0
1B50
ENDCHAR
STARTCHAR brokenbar
ENCODING 166
SWIDTH 600 0
DWIDTH 7 0
BBX 2 11 2 -3
BITMAP
70
70
70
70
70
00
70
70
70
70
70
ENDCHAR
STARTCHAR section
ENCODING 167
SWIDTH 600 0
DWIDTH 7 0
BBX 5 8 1 -1
BITMAP
7E00
B100
BE00
D780
E680
2F00
4700
BE00
ENDCHAR
STARTCHAR dieresis
ENCODING 168
SWIDTH 600 0
DWIDTH 7 0
BBX 5 2 1 6
BITMAP
A740
A740
ENDCHAR
STARTCHAR copyright
ENCODING 169
SWIDTH 600 0
DWIDTH 7 0
BBX 7 7 0 0
BITMAP
1F80
6460
9F64
9814
9F64
6560
1F80
ENDCHAR
STARTCHAR ordfeminine
ENCODING 170
SWIDTH 600 0
DWIDTH 7 0
BBX 4 4 1 4
BITMAP
2E
07
2F
7B
ENDCHAR
STARTCHAR guillemotleft
ENCODING 171
SWIDTH 600 0
DWIDTH 7 0
BBX 6 5 0 0
BITMAP
1860
75D0
A280
75D0
1860
ENDCHAR
STARTCHAR logicalnot
ENCODING 172
SWIDTH 600 0
DWIDTH 7 0
BBX 6 3 0 1
BITMAP
7FE0
0060
0060
ENDCHAR
STARTCHAR uni00AD
ENCODING 173
SWIDTH 600 0
DWIDTH 7 0
BBX 6 1 0 3
BITMAP
7FE0
ENDCHAR
STARTCHAR registered
ENCODING 174
SWIDTH 600 0
DWIDTH 7 0
BBX 5 5 1 3
BITMAP
2E00
9240
AD40
9640
2E00
ENDCHAR
STARTCHAR macron
ENCODING 175
SWIDTH 600 0
DWIDTH 7 0
BBX 4 1 1 7
BITMAP
7F
ENDCHAR
STARTCHAR degree
ENCODING 176
SWIDTH 600 0
DWIDTH 7 0
BBX 4 4 1 4
BITMAP
2D
62
62
2D
ENDCHAR
STARTCHAR plusminus
ENCODING 177
SWIDTH 600 0
DWIDTH 7 0
BBX 6 6 0 0
BITMAP
0700
0700
7FE0
0700
0000
7FE0
ENDCHAR
STARTCHAR two.sups
ENCODING 178
SWIDTH 600 0
DWIDTH 7 0
BBX 4 4 1 4
BITMAP
6D
16
19
7F
ENDCHAR
STARTCHAR three.sups
ENCODING 179
SWIDTH 600 0
DWIDTH 7 0
BBX 4 4 1 4
BITMAP
2E
1E
17
6E
ENDCHAR
STARTCHAR acute
ENCODING 180
SWIDTH 600 0
DWIDTH 7 0
BBX 3 3 2 6
BITMAP
18
38
60
ENDCHAR
STARTCHAR uni00B5
ENCODING 181
SWIDTH 600 0
DWIDTH 7 0
BBX 7 7 0 -2
BITMAP
74E0
74E0
74E0
75E0
7EB4
7400
7400
ENDCHAR
STARTCHAR paragraph
ENCODING 182
SWIDTH 600 0
DWIDTH 7 0
BBX 6 8 0 -1
BITMAP
2EA0
7EA0
7EA0
7EA0
1EA0
00A0
00A0
00A0
ENDCHAR
STARTCHAR periodcentered
ENCODING 183
SWIDTH 600 0
DWIDTH 7 0
BBX 3 3 2 3
BITMAP
B4
F8
B4
ENDCHAR
STARTCHAR cedilla
ENCODING 184
SWIDTH 600 0
DWIDTH 7 0
BBX 3 4 2 -4
BITMAP
60
B0
34
E0
ENDCHAR
STARTCHAR one.sups
ENCODING 185
SWIDTH 600 0
DWIDTH 7 0
BBX 5 4 1 4
BITMAP
2D00
0D00
0D00
7F80
ENDCHAR
STARTCHAR ordmasculine
ENCODING 186
SWIDTH 600 0
DWIDTH 7 0
BBX 4 4 1 4
BITMAP
2D
67
67
2D
ENDCHAR
STARTCHAR guillemotright
ENCODING 187
SWIDTH 600 0
DWIDTH 7 0
BBX 5 5 1 0
BITMAP
8600
B280
35C0
B280
8600
ENDCHAR
STARTCHAR onequarter
ENCODING 188
SWIDTH 600 0
DWIDTH 7 0
BBX 7 7 0 0
BITMAP
7820
28A0
2840
0080
06B0
37F8
5030
ENDCHAR
STARTCHAR onehalf
ENCODING 189
SWIDTH 600 0
DWIDTH 7 0
BBX 7 7 0 0
BITMAP
7820
28A0
2840
01E0
0430
34A0
51F4
ENDCHAR
STARTCHAR threequarters
ENCODING 190
SWIDTH 600 0
DWIDTH 7 0
BBX 7 8 0 0
BITMAP
7800
1C24
28A0
7C40
0080
06B0
37F8
5030
ENDCHAR
STARTCHAR questiondown
ENCODING 191
SWIDTH 600 0
DWIDTH 7 0
BBX 5 7 1 -2
BITMAP
1D00
1D00
0000
1C00
7400
A100
7E40
ENDCHAR
STARTCHAR Agrave
ENCODING 192
SWIDTH 600 0
DWIDTH 7 0
BBX 7 10 0 0
BITMAP
0900
0600
0000
0F40
0E80
1DC0
28D0
3FE0
70B0
B074
ENDCHAR
STARTCHAR Aacute
ENCODING 193
SWIDTH 600 0
DWIDTH 7 0
BBX 7 10 0 0
BITMAP
0280
0A00
0000
0F40
0E80
1DC0
28D0
3FE0
70B0
B074
ENDCHAR
STARTCHAR Acircumflex
ENCODING 194
SWIDTH 600 0
DWIDTH 7 0
BBX 7 9 0 0
BITMAP
0F80
1880
0F40
0E80
1DC0
28D0
3FE0
70B0
B074
ENDCHAR
STARTCHAR Atilde
ENCODING 195
SWIDTH 600 0
DWIDTH 7 0
BBX 7 10 0 0
BITMAP
1D90
26C0
0000
0F40
0E80
1DC0
28D0
3FE0
70B0
B074
ENDCHAR
STARTCHAR Adieresis
ENCODING 196
SWIDTH 600 0
DWIDTH 7 0
BBX 7 10 0 0
BITMAP
28C0
28C0
0000
0F40
0E80
1DC0
28D0
3FE0
70B0
B074
ENDCHAR
STARTCHAR Aring
ENCODING 197
SWIDTH 600 0
DWIDTH 7 0
BBX 7 10 0 0
BITMAP
0B40
0D80
0B40
0F40
0E80
1DC0
28D0
3FE0
70B0
B074
ENDCHAR
STARTCHAR AE
ENCODING 198
SWIDTH 600 0
DWIDTH 7 0
BBX 7 7 0 0
BITMAP
0BF4
0FC0
1EC0
3AF0
7FC0
B2C0
E2F8
ENDCHAR
STARTCHAR Ccedilla
ENCODING 199
SWIDTH 600 0
DWIDTH 7 0
BBX 6 11 0 -4
BITMAP
0BE0
2C10
7400
7400
7400
2C10
0BE0
0200
0380
0280
0740
ENDCHAR
STARTCHAR Egrave
ENCODING 200
SWIDTH 600 0
DWIDTH 7 0
BBX 5 10 1 0
BITMAP
2800
1900
0000
FF80
E000
E000
FF40
E000
E000
FFC0
ENDCHAR
STARTCHAR Eacute
ENCODING 201
SWIDTH 600 0
DWIDTH 7 0
BBX 5 10 1 0
BITMAP
0600
1900
0000
FF80
E000
E000
FF40
E000
E000
FFC0
ENDCHAR
STARTCHAR Ecircumflex
ENCODING 202
SWIDTH 600 0
DWIDTH 7 0
BBX 5 9 1 0
BITMAP
2E00
2240
FF80
E000
E000
FF40
E000
E000
FFC0
ENDCHAR
STARTCHAR Edieresis
ENCODING 203
SWIDTH 600 0
DWIDTH 7 0
BBX 5 10 1 0
BITMAP
7240
7240
0000
FF80
E000
E000
FF40
E000
E000
FFC0
ENDCHAR
STARTCHAR Igrave
ENCODING 204
SWIDTH 600 0
DWIDTH 7 0
BBX 6 10 0 0
BITMAP
0900
0600
0000
7FE0
0B00
0B00
0B00
0B00
0B00
7FE0
ENDCHAR
STARTCHAR Iacute
ENCODING 205
SWIDTH 600 0
DWIDTH 7 0
BBX 6 10 0 0
BITMAP
0280
0A00
0000
7FE0
0B00
0B00
0B00
0B00
0B00
7FE0
ENDCHAR
STARTCHAR Icircumflex
ENCODING 206
SWIDTH 600 0
DWIDTH 7 0
BBX 6 9 0 0
BITMAP
0F80
1880
7FE0
0B00
0B00
0B00
0B00
0B00
7FE0
ENDCHAR
STARTCHAR Idieresis
ENCODING 207
SWIDTH 600 0
DWIDTH 7 0
BBX 6 10 0 0
BITMAP
28C0
28C0
0000
7FE0
0B00
0B00
0B00
0B00
0B00
7FE0
ENDCHAR
STARTCHAR Eth
ENCODING 208
SWIDTH 600 0
DWIDTH 7 0
BBX 6 7 0 0
BITMAP
7F80
75E0
74B0
FE70
74B0
75E0
7F80
ENDCHAR
STARTCHAR Ntilde
ENCODING 209
SWIDTH 600 0
DWIDTH 7 0
BBX 6 10 0 0
BITMAP
1E90
26D0
0000
78B0
7CB0
79B0
7BB0
77B0
75F0
74F0
ENDCHAR
STARTCHAR Ograve
ENCODING 210
SWIDTH 600 0
DWIDTH 7 0
BBX 6 10 0 0
BITMAP
0900
0600
0000
1F80
38E0
74B0
B0B0
74B0
38E0
1F80
ENDCHAR
STARTCHAR Oacute
ENCODING 211
SWIDTH 600 0
DWIDTH 7 0
BBX 6 10 0 0
BITMAP
0280
0A00
0000
1F80
38E0
74B0
B0B0
74B0
38E0
1F80
ENDCHAR
STARTCHAR Ocircumflex
ENCODING 212
SWIDTH 600 0
DWIDTH 7 0
BBX 6 9 0 0
BITMAP
0F80
1880
1F80
38E0
74B0
B0B0
74B0
38E0
1F80
ENDCHAR
STARTCHAR Otilde
ENCODING 213
SWIDTH 600 0
DWIDTH 7 0
BBX 6 10 0 0
BITMAP
1D90
26C0
0000
1F80
38E0
74B0
B0B0
74B0
38E0
1F80
ENDCHAR
STARTCHAR Odieresis
ENCODING 214
SWIDTH 600 0
DWIDTH 7 0
BBX 6 10 0 0
BITMAP
28C0
28C0
0000
1F80
38E0
74B0
B0B0
74B0
38E0
1F80
ENDCHAR
STARTCHAR multiply
ENCODING 215
SWIDTH 600 0
DWIDTH 7 0
BBX 5 5 1 1
BITMAP
8240
BB00
2D00
7B00
9240
ENDCHAR
STARTCHAR Oslash
ENCODING 216
SWIDTH 600 0
DWIDTH 7 0
BBX 6 7 0 0
BITMAP
1FB0
39E0
72F0
B7B0
7DB0
78E0
AF80
ENDCHAR
STARTCHAR Ugrave
ENCODING 217
SWIDTH 600 0
DWIDTH 7 0
BBX 6 10 0 0
BITMAP
0900
0600
0000
74B0
74B0
74B0
74B0
74B0
38E0
1F80
ENDCHAR
STARTCHAR Uacute
ENCODING 218
SWIDTH 600 0
DWIDTH 7 0
BBX 6 10 0 0
BITMAP
0280
0A00
0000
74B0
74B0
74B0
74B0
74B0
38E0
1F80
ENDCHAR
STARTCHAR Ucircumflex
ENCODING 219
SWIDTH 600 0
DWIDTH 7 0
BBX 6 9 0 0
BITMAP
0F80
1880
74B0
74B0
74B0
74B0
74B0
38E0
1F80
ENDCHAR
STARTCHAR Udieresis
ENCODING 220
SWIDTH 600 0
DWIDTH 7 0
BBX 6 10 0 0
BITMAP
28C0
28C0
0000
74B0
74B0
74B0
74B0
74B0
38E0
1F80
ENDCHAR
STARTCHAR Yacute
ENCODING 221
SWIDTH 600 0
DWIDTH 7 0
BBX 7 10 0 0
BITMAP
0280
0A00
0000
B074
38E0
2DD0
0F80
0B40
0B00
0B00
ENDCHAR
STARTCHAR Thorn
ENCODING 222
SWIDTH 600 0
DWIDTH 7 0
BBX 7 7 0 0
BITMAP
7400
7FD0
74B0
7474
74B0
7F90
7400
ENDCHAR
STARTCHAR germandbls
ENCODING 223
SWIDTH 600 0
DWIDTH 7 0
BBX 7 8 0 0
BITMAP
1F80
39C0
75C0
7780
76D0
74B0
7474
77E0
ENDCHAR
STARTCHAR agrave
ENCODING 224
SWIDTH 600 0
DWIDTH 7 0
BBX 6 9 0 0
BITMAP
0800
0E00
0200
0000
2F90
10E0
1BF0
78B0
2EB0
ENDCHAR
STARTCHAR aacute
ENCODING 225
SWIDTH 600 0
DWIDTH 7 0
BBX 6 9 0 0
BITMAP
0080
02C0
0200
0000
2F90
10E0
1BF0
78B0
2EB0
ENDCHAR
STARTCHAR acircumflex
ENCODING 226
SWIDTH 600 0
DWIDTH 7 0
BBX 6 8 0 0
BITMAP
0B80
1890
0000
2F90
10E0
1BF0
78B0
2EB0
ENDCHAR
STARTCHAR atilde
ENCODING 227
SWIDTH 600 0
DWIDTH 7 0
BBX 6 8 0 0
BITMAP
0950
1AD0
0000
2F90
10E0
1BF0
78B0
2EB0
ENDCHAR
STARTCHAR adieresis
ENCODING 228
SWIDTH 600 0
DWIDTH 7 0
BBX 6 8 0 0
BITMAP
1CD0
1CD0
0000
2F90
10E0
1BF0
78B0
2EB0
ENDCHAR
STARTCHAR aring
ENCODING 229
SWIDTH 600 0
DWIDTH 7 0
BBX 6 9 0 0
BITMAP
0B80
0DC0
0B80
0000
2F90
10E0
1BF0
78B0
2EB0
ENDCHAR
STARTCHAR ae
ENCODING 230
SWIDTH 600 0
DWIDTH 7 0
BBX 7 5 0 0
BITMAP
7EE0
0734
6FF4
A740
7AF0
ENDCHAR
STARTCHAR ccedilla
ENCODING 231
SWIDTH 600 0
DWIDTH 7 0
BBX 6 9 0 -4
BITMAP
1BE0
3800
7400
3810
1BE0
0200
0380
0280
0740
ENDCHAR
STARTCHAR egrave
ENCODING 232
SWIDTH 600 0
DWIDTH 7 0
BBX 6 9 0 0
BITMAP
0800
1E00
0200
0000
1B90
38A0
7FF0
3800
1BD0
ENDCHAR
STARTCHAR eacute
ENCODING 233
SWIDTH 600 0
DWIDTH 7 0
BBX 6 9 0 0
BITMAP
0180
03C0
0200
0000
1B90
38A0
7FF0
3800
1BD0
ENDCHAR
STARTCHAR ecircumflex
ENCODING 234
SWIDTH 600 0
DWIDTH 7 0
BBX 6 8 0 0
BITMAP
0B80
1990
0000
1B90
38A0
7FF0
3800
1BD0
ENDCHAR
STARTCHAR edieresis
ENCODING 235
SWIDTH 600 0
DWIDTH 7 0
BBX 6 8 0 0
BITMAP
1CD0
1CD0
0000
1B90
38A0
7FF0
3800
1BD0
ENDCHAR
STARTCHAR igrave
ENCODING 236
SWIDTH 600 0
DWIDTH 7 0
BBX 4 9 1 0
BITMAP
24
2D
09
00
FE
0E
0E
0E
0E
ENDCHAR
STARTCHAR iacute
ENCODING 237
SWIDTH 600 0
DWIDTH 7 0
BBX 5 9 1 0
BITMAP
0240
0B40
0900
0000
FE00
0E00
0E00
0E00
0E00
ENDCHAR
STARTCHAR icircumflex
ENCODING 238
SWIDTH 600 0
DWIDTH 7 0
BBX 5 8 1 0
BITMAP
1F00
2580
0000
FE00
0E00
0E00
0E00
0E00
ENDCHAR
STARTCHAR idieresis
ENCODING 239
SWIDTH 600 0
DWIDTH 7 0
BBX 5 8 1 0
BITMAP
3680
3680
0000
FE00
0E00
0E00
0E00
0E00
ENDCHAR
STARTCHAR eth
ENCODING 240
SWIDTH 600 0
DWIDTH 7 0
BBX 6 8 0 0
BITMAP
1950
0F80
15D0
1FE0
74B0
7070
74A0
1F80
ENDCHAR
STARTCHAR ntilde
ENCODING 241
SWIDTH 600 0
DWIDTH 7 0
BBX 6 8 0 0
BITMAP
0950
1AD0
0000
7BD0
78B0
74B0
74B0
74B0
ENDCHAR
STARTCHAR ograve
ENCODING 242
SWIDTH 600 0
DWIDTH 7 0
BBX 6 9 0 0
BITMAP
0800
1E00
0600
0000
1F80
74E0
74B0
74E0
1F80
ENDCHAR
STARTCHAR oacute
ENCODING 243
SWIDTH 600 0
DWIDTH 7 0
BBX 6 9 0 0
BITMAP
0180
0380
0600
0000
1F80
74E0
74B0
74E0
1F80
ENDCHAR
STARTCHAR ocircumflex
ENCODING 244
SWIDTH 600 0
DWIDTH 7 0
BBX 6 8 0 0
BITMAP
0F80
1980
0000
1F80
74E0
74B0
74E0
1F80
ENDCHAR
STARTCHAR otilde
ENCODING 245
SWIDTH 600 0
DWIDTH 7 0
BBX 6 8 0 0
BITMAP
1940
2BC0
0000
1F80
74E0
74B0
74E0
1F80
ENDCHAR
STARTCHAR odieresis
ENCODING 246
SWIDTH 600 0
DWIDTH 7 0
BBX 6 8 0 0
BITMAP
29D0
29D0
0000
1F80
74E0
74B0
74E0
1F80
ENDCHAR
STARTCHAR divide
ENCODING 247
SWIDTH 600 0
DWIDTH 7 0
BBX 6 7 0 0
BITMAP
0700
0700
0000
7FE0
0000
0700
0700
ENDCHAR
STARTCHAR oslash
ENCODING 248
SWIDTH 600 0
DWIDTH 7 0
BBX 6 5 0 0
BITMAP
1FA0
75E0
76B0
7CA0
3F80
ENDCHAR
STARTCHAR ugrave
ENCODING 249
SWIDTH 600 0
DWIDTH 7 0
BBX 6 9 0 0
BITMAP
0800
1E00
0600
0000
74E0
74E0
74E0
75E0
2EA0
ENDCHAR
STARTCHAR uacute
ENCODING 250
SWIDTH 600 0
DWIDTH 7 0
BBX 6 9 0 0
BITMAP
0180
0380
0600
0000
74E0
74E0
74E0
75E0
2EA0
ENDCHAR
STARTCHAR ucircumflex
ENCODING 251
SWIDTH 600 0
DWIDTH 7 0
BBX 6 8 0 0
BITMAP
0F80
1980
0000
74E0
74E0
74E0
75E0
2EA0
ENDCHAR
STARTCHAR udieresis
ENCODING 252
SWIDTH 600 0
DWIDTH 7 0
BBX 6 8 0 0
BITMAP
29D0
29D0
0000
74E0
74E0
74E0
75E0
2EA0
ENDCHAR
STARTCHAR yacute
ENCODING 253
SWIDTH 600 0
DWIDTH 7 0
BBX 6 11 0 -2
BITMAP
0180
03C0
0600
0000
7070
38A0
1DD0
0E80
0740
0B00
3900
ENDCHAR
STARTCHAR thorn
ENCODING 254
SWIDTH 600 0
DWIDTH 7 0
BBX 6 10 0 -2
BITMAP
7400
7400
7400
7BD0
78B0
74B0
78E0
7B90
7400
7400
ENDCHAR
STARTCHAR ydieresis
ENCODING 255
SWIDTH 600 0
DWIDTH 7 0
BBX 6 10 0 -2
BITMAP
18D0
18D0
0000
7070
38A0
1DD0
0E80
0740
0B00
3900
ENDCHAR
STARTCHAR Amacron
ENCODING 256
SWIDTH 600 0
DWIDTH 7 0
BBX 7 9 0 0
BITMAP
1FC0
0000
0F40
0E80
1DC0
28D0
3FE0
70B0
B074
ENDCHAR
STARTCHAR amacron
ENCODING 257
SWIDTH 600 0
DWIDTH 7 0
BBX 6 8 0 0
BITMAP
0FC0
0000
0000
2F90
10E0
1BF0
78B0
2EB0
ENDCHAR
STARTCHAR Abreve
ENCODING 258
SWIDTH 600 0
DWIDTH 7 0
BBX 7 10 0 0
BITMAP
18C0
0B80
0000
0F40
0E80
1DC0
28D0
3FE0
70B0
B074
ENDCHAR
STARTCHAR abreve
ENCODING 259
SWIDTH 600 0
DWIDTH 7 0
BBX 6 8 0 0
BITMAP
1890
0B80
0000
2F90
10E0
1BF0
78B0
2EB0
ENDCHAR
STARTCHAR Aogonek
ENCODING 260
SWIDTH 600 0
DWIDTH 7 0
BBX 7 9 0 -2
BITMAP
0F40
0E80
1DC0
28D0
3FE0
70B0
B074
0060
0078
ENDCHAR
STARTCHAR aogonek
ENCODING 261
SWIDTH 600 0
DWIDTH 7 0
BBX 6 8 0 -3
BITMAP
2F90
10E0
1BF0
78B0
2EB0
0090
0180
00F0
ENDCHAR
STARTCHAR Cacute
ENCODING 262
SWIDTH 600 0
DWIDTH 7 0
BBX 6 10 0 0
BITMAP
0190
0240
0000
0BE0
2C10
7400
7400
7400
2C10
0BE0
ENDCHAR
STARTCHAR cacute
ENCODING 263
SWIDTH 600 0
DWIDTH 7 0
BBX 6 9 0 0
BITMAP
0080
02D0
0240
0000
1BE0
3800
7400
3810
1BE0
ENDCHAR
STARTCHAR Ccircumflex
ENCODING 264
SWIDTH 600 0
DWIDTH 7 0
BBX 6 9 0 0
BITMAP
07C0
0950
0BE0
2C10
7400
7400
7400
2C10
0BE0
ENDCHAR
STARTCHAR ccircumflex
ENCODING 265
SWIDTH 600 0
DWIDTH 7 0
BBX 6 8 0 0
BITMAP
07C0
09A0
0000
1BE0
3800
7400
3810
1BE0
ENDCHAR
STARTCHAR Cdotaccent
ENCODING 266
SWIDTH 600 0
DWIDTH 7 0
BBX 6 10 0 0
BITMAP
0380
0380
0000
0BE0
2C10
7400
7400
7400
2C10
0BE0
ENDCHAR
STARTCHAR cdotaccent
ENCODING 267
SWIDTH 600 0
DWIDTH 7 0
BBX 6 8 0 0
BITMAP
0380
0380
0000
1BE0
3800
7400
3810
1BE0
ENDCHAR
STARTCHAR Ccaron
ENCODING 268
SWIDTH 600 0
DWIDTH 7 0
BBX 6 10 0 0
BITMAP
0950
07C0
0000
0BE0
2C10
7400
7400
7400
2C10
0BE0
ENDCHAR
STARTCHAR ccaron
ENCODING 269
SWIDTH 600 0
DWIDTH 7 0
BBX 6 8 0 0
BITMAP
09A0
07C0
0000
1BE0
3800
7400
3810
1BE0
ENDCHAR
STARTCHAR Dcaron
ENCODING 270
SWIDTH 600 0
DWIDTH 7 0
BBX 6 10 0 0
BITMAP
1880
0F80
0000
7F80
75E0
74B0
7470
74B0
75E0
7F80
ENDCHAR
STARTCHAR dcaron
ENCODING 271
SWIDTH 600 0
DWIDTH 7 0
BBX 7 9 0 0
BITMAP
001C
01EC
01E8
01C0
2EC0
76C0
B1C0
76C0
2EC0
ENDCHAR
STARTCHAR Dcroat
ENCODING 272
SWIDTH 600 0
DWIDTH 7 0
BBX 6 7 0 0
BITMAP
7F80
75E0
74B0
FE70
74B0
75E0
7F80
ENDCHAR
STARTCHAR dcroat
ENCODING 273
SWIDTH 600 0
DWIDTH 7 0
BBX 7 8 0 0
BITMAP
00A0
0BF8
00A0
1EE0
74E0
74A0
74E0
2EA0
ENDCHAR
STARTCHAR Emacron
ENCODING 274
SWIDTH 600 0
DWIDTH 7 0
BBX 5 9 1 0
BITMAP
3F40
0000
FF80
E000
E000
FF40
E000
E000
FFC0
ENDCHAR
STARTCHAR emacron
ENCODING 275
SWIDTH 600 0
DWIDTH 7 0
BBX 6 8 0 0
BITMAP
1FC0
0000
0000
1B90
38A0
7FF0
3800
1BD0
ENDCHAR
STARTCHAR Ebreve
ENCODING 276
SWIDTH 600 0
DWIDTH 7 0
BBX 5 10 1 0
BITMAP
2240
2E00
0000
FF80
E000
E000
FF40
E000
E000
FFC0
ENDCHAR
STARTCHAR ebreve
ENCODING 277
SWIDTH 600 0
DWIDTH 7 0
BBX 6 8 0 0
BITMAP
18D0
0B80
0000
1B90
38A0
7FF0
3800
1BD0
ENDCHAR
STARTCHAR Edotaccent
ENCODING 278
SWIDTH 600 0
DWIDTH 7 0
BBX 5 10 1 0
BITMAP
1D00
1D00
0000
FF80
E000
E000
FF40
E000
E000
FFC0
ENDCHAR
STARTCHAR edotaccent
ENCODING 279
SWIDTH 600 0
DWIDTH 7 0
BBX 6 8 0 0
BITMAP
0740
0740
0000
1B90
38A0
7FF0
3800
1BD0
ENDCHAR
STARTCHAR Eogonek
ENCODING 280
SWIDTH 600 0
DWIDTH 7 0
BBX 5 9 1 -2
BITMAP
FF80
E000
E000
FF40
E000
E000
FFC0
0300
07C0
ENDCHAR
STARTCHAR eogonek
ENCODING 281
SWIDTH 600 0
DWIDTH 7 0
BBX 6 8 0 -3
BITMAP
1B90
38A0
7FF0
3800
1BE0
0180
0240
01E0
ENDCHAR
STARTCHAR Ecaron
ENCODING 282
SWIDTH 600 0
DWIDTH 7 0
BBX 5 10 1 0
BITMAP
2240
2E00
0000
FF80
E000
E000
FF40
E000
E000
FFC0
ENDCHAR
STARTCHAR ecaron
ENCODING 283
SWIDTH 600 0
DWIDTH 7 0
BBX 6 8 0 0
BITMAP
1890
0B80
0000
1B90
38A0
7FF0
3800
1BD0
ENDCHAR
STARTCHAR Gcircumflex
ENCODING 284
SWIDTH 600 0
DWIDTH 7 0
BBX 6 9 0 0
BITMAP
0B80
0890
0BD0
3840
7400
75F0
7470
38B0
1BD0
ENDCHAR
STARTCHAR gcircumflex
ENCODING 285
SWIDTH 600 0
DWIDTH 7 0
BBX 7 10 0 -2
BITMAP
0F80
1980
0000
1FF4
39D0
3EC0
3900
3FE0
70B4
2F90
ENDCHAR
STARTCHAR Gbreve
ENCODING 286
SWIDTH 600 0
DWIDTH 7 0
BBX 6 10 0 0
BITMAP
0C90
0B80
0000
0BD0
3840
7400
75F0
7470
38B0
1BD0
ENDCHAR
STARTCHAR gbreve
ENCODING 287
SWIDTH 600 0
DWIDTH 7 0
BBX 7 10 0 -2
BITMAP
18C0
0B80
0000
1FF4
39D0
3EC0
3900
3FE0
70B4
2F90
ENDCHAR
STARTCHAR Gdotaccent
ENCODING 288
SWIDTH 600 0
DWIDTH 7 0
BBX 6 10 0 0
BITMAP
0740
0740
0000
0BD0
3840
7400
75F0
7470
38B0
1BD0
ENDCHAR
STARTCHAR gdotaccent
ENCODING 289
SWIDTH 600 0
DWIDTH 7 0
BBX 7 10 0 -2
BITMAP
0B40
0B40
0000
1FF4
39D0
3EC0
3900
3FE0
70B4
2F90
ENDCHAR
STARTCHAR uni0122
ENCODING 290
SWIDTH 600 0
DWIDTH 7 0
BBX 6 10 0 -3
BITMAP
0BD0
3840
7400
75F0
7470
38B0
1BD0
0340
0280
0A00
ENDCHAR
STARTCHAR uni0123
ENCODING 291
SWIDTH 600 0
DWIDTH 7 0
BBX 7 10 0 -2
BITMAP
0780
0700
0000
1FF4
39D0
3EC0
3900
3FE0
70B4
2F90
ENDCHAR
STARTCHAR Hcircumflex
ENCODING 292
SWIDTH 600 0
DWIDTH 7 0
BBX 6 9 0 0
BITMAP
0F80
1880
74B0
74B0
74B0
7FF0
74B0
74B0
74B0
ENDCHAR
STARTCHAR hcircumflex
ENCODING 293
SWIDTH 600 0
DWIDTH 7 0
BBX 6 10 0 0
BITMAP
B800
8900
7400
7400
7400
7BD0
78B0
74B0
74B0
74B0
ENDCHAR
STARTCHAR Hbar
ENCODING 294
SWIDTH 600 0
DWIDTH 7 0
BBX 7 7 0 0
BITMAP
74B0
FFF8
74B0
7FF0
74B0
74B0
74B0
ENDCHAR
STARTCHAR hbar
ENCODING 295
SWIDTH 600 0
DWIDTH 7 0
BBX 6 8 0 0
BITMAP
7400
FF40
7400
7BD0
78B0
74B0
74B0
74B0
ENDCHAR
STARTCHAR Itilde
ENCODING 296
SWIDTH 600 0
DWIDTH 7 0
BBX 6 10 0 0
BITMAP
1D90
26C0
0000
7FE0
0B00
0B00
0B00
0B00
0B00
7FE0
ENDCHAR
STARTCHAR itilde
ENCODING 297
SWIDTH 600 0
DWIDTH 7 0
BBX 5 8 1 0
BITMAP
1440
6B80
0000
FE00
0E00
0E00
0E00
0E00
ENDCHAR
STARTCHAR Imacron
ENCODING 298
SWIDTH 600 0
DWIDTH 7 0
BBX 6 9 0 0
BITMAP
1FC0
0000
7FE0
0B00
0B00
0B00
0B00
0B00
7FE0
ENDCHAR
STARTCHAR imacron
ENCODING 299
SWIDTH 600 0
DWIDTH 7 0
BBX 5 8 1 0
BITMAP
2F40
0000
0000
FE00
0E00
0E00
0E00
0E00
ENDCHAR
STARTCHAR Ibreve
ENCODING 300
SWIDTH 600 0
DWIDTH 7 0
BBX 6 10 0 0
BITMAP
18C0
0B80
0000
7FE0
0B00
0B00
0B00
0B00
0B00
7FE0
ENDCHAR
STARTCHAR ibreve
ENCODING 301
SWIDTH 600 0
DWIDTH 7 0
BBX 5 8 1 0
BITMAP
3280
1E00
0000
FE00
0E00
0E00
0E00
0E00
ENDCHAR
STARTCHAR Iogonek
ENCODING 302
SWIDTH 600 0
DWIDTH 7 0
BBX 6 9 0 -2
BITMAP
7FE0
0B00
0B00
0B00
0B00
0B00
7FE0
0A00
0B40
ENDCHAR
STARTCHAR iogonek
ENCODING 303
SWIDTH 600 0
DWIDTH 7 0
BBX 4 11 1 -3
BITMAP
0E
0E
00
FE
0E
0E
0E
0E
08
18
1E
ENDCHAR
STARTCHAR Idotaccent
ENCODING 304
SWIDTH 600 0
DWIDTH 7 0
BBX 6 10 0 0
BITMAP
0700
0700
0000
7FE0
0B00
0B00
0B00
0B00
0B00
7FE0
ENDCHAR
STARTCHAR dotlessi
ENCODING 305
SWIDTH 600 0
DWIDTH 7 0
BBX 4 5 1 0
BITMAP
FE
0E
0E
0E
0E
ENDCHAR
STARTCHAR IJ
ENCODING 306
SWIDTH 600 0
DWIDTH 7 0
BBX 6 9 0 -2
BITMAP
74E0
74E0
74E0
74E0
74E0
74E0
74E0
00E0
03D0
ENDCHAR
STARTCHAR ij
ENCODING 307
SWIDTH 600 0
DWIDTH 7 0
BBX 5 10 1 -2
BITMAP
D280
D280
0000
D2C0
D2C0
D2C0
D2C0
D2C0
0380
0F40
ENDCHAR
STARTCHAR Jcircumflex
ENCODING 308
SWIDTH 600 0
DWIDTH 7 0
BBX 5 9 1 0
BITMAP
2E00
2240
BF80
0380
0380
0380
0380
8740
BE00
ENDCHAR
STARTCHAR jcircumflex
ENCODING 309
SWIDTH 600 0
DWIDTH 7 0
BBX 6 10 0 -2
BITMAP
07C0
0960
0000
3F80
0380
0380
0380
0380
0380
7E00
ENDCHAR
STARTCHAR uni0136
ENCODING 310
SWIDTH 600 0
DWIDTH 7 0
BBX 7 10 0 -3
BITMAP
74B0
76D0
7B40
7F80
7AC0
74E0
74B4
0340
0280
0A40
ENDCHAR
STARTCHAR uni0137
ENCODING 311
SWIDTH 600 0
DWIDTH 7 0
BBX 5 11 1 -3
BITMAP
D000
D000
D000
D780
ED00
FE00
E740
D2C0
0D00
0A00
2800
ENDCHAR
STARTCHAR kgreenlandic
ENCODING 312
SWIDTH 600 0
DWIDTH 7 0
BBX 5 5 1 0
BITMAP
D380
EE00
FE00
E740
D2C0
ENDCHAR
STARTCHAR Lacute
ENCODING 313
SWIDTH 600 0
DWIDTH 7 0
BBX 5 10 1 0
BITMAP
2400
A000
0000
A000
A000
A000
A000
A000
A000
BFC0
ENDCHAR
STARTCHAR lacute
ENCODING 314
SWIDTH 600 0
DWIDTH 7 0
BBX 6 11 0 0
BITMAP
0240
0A00
0000
7F00
0B00
0B00
0B00
0B00
0B00
0B00
02E0
ENDCHAR
STARTCHAR uni013B
ENCODING 315
SWIDTH 600 0
DWIDTH 7 0
BBX 5 10 1 -3
BITMAP
A000
A000
A000
A000
A000
A000
BFC0
0D00
0A00
1900
ENDCHAR
STARTCHAR uni013C
ENCODING 316
SWIDTH 600 0
DWIDTH 7 0
BBX 6 11 0 -3
BITMAP
7F00
0B00
0B00
0B00
0B00
0B00
0B00
02E0
0280
01C0
0340
ENDCHAR
STARTCHAR Lcaron
ENCODING 317
SWIDTH 600 0
DWIDTH 7 0
BBX 5 9 1 0
BITMAP
0340
0340
A340
A000
A000
A000
A000
A000
BFC0
ENDCHAR
STARTCHAR lcaron
ENCODING 318
SWIDTH 600 0
DWIDTH 7 0
BBX 6 9 0 0
BITMAP
00B0
7F70
0B60
0B00
0B00
0B00
0B00
0B00
02E0
ENDCHAR
STARTCHAR Ldot
ENCODING 319
SWIDTH 600 0
DWIDTH 7 0
BBX 5 7 1 0
BITMAP
A000
A000
A2C0
A2C0
A000
A000
BFC0
ENDCHAR
STARTCHAR ldot
ENCODING 320
SWIDTH 600 0
DWIDTH 7 0
BBX 7 8 0 0
BITMAP
FD00
1D00
1D00
1D2C
1D2C
1D00
0E00
0BD0
ENDCHAR
STARTCHAR Lslash
ENCODING 321
SWIDTH 600 0
DWIDTH 7 0
BBX 6 7 0 0
BITMAP
2800
2800
29C0
3F40
FC00
2800
2FF0
ENDCHAR
STARTCHAR lslash
ENCODING 322
SWIDTH 600 0
DWIDTH 7 0
BBX 6 8 0 0
BITMAP
7F00
0B00
0B90
1F90
3F00
0B00
0B00
02E0
ENDCHAR
STARTCHAR Nacute
ENCODING 323
SWIDTH 600 0
DWIDTH 7 0
BBX 6 10 0 0
BITMAP
0280
0640
0000
78B0
7CB0
79B0
7BB0
77B0
75F0
74F0
ENDCHAR
STARTCHAR nacute
ENCODING 324
SWIDTH 600 0
DWIDTH 7 0
BBX 6 9 0 0
BITMAP
0080
03C0
0200
0000
7BD0
78B0
74B0
74B0
74B0
ENDCHAR
STARTCHAR uni0145
ENCODING 325
SWIDTH 600 0
DWIDTH 7 0
BBX 6 10 0 -3
BITMAP
78B0
7CB0
79B0
7BB0
77B0
75F0
74F0
0600
0340
0E00
ENDCHAR
STARTCHAR uni0146
ENCODING 326
SWIDTH 600 0
DWIDTH 7 0
BBX 6 8 0 -3
BITMAP
7BD0
78B0
74B0
74B0
74B0
0700
0340
0A00
ENDCHAR
STARTCHAR Ncaron
ENCODING 327
SWIDTH 600 0
DWIDTH 7 0
BBX 6 10 0 0
BITMAP
1880
0B80
0000
78B0
7CB0
79B0
7BB0
77B0
75F0
74F0
ENDCHAR
STARTCHAR ncaron
ENCODING 328
SWIDTH 600 0
DWIDTH 7 0
BBX 6 8 0 0
BITMAP
1890
0B80
0000
7BD0
78B0
74B0
74B0
74B0
ENDCHAR
STARTCHAR napostrophe
ENCODING 329
SWIDTH 600 0
DWIDTH 7 0
BBX 8 8 -1 0
BITMAP
7400
7800
1800
72AE
02DB
02CB
02CB
02CB
ENDCHAR
STARTCHAR Eng
ENCODING 330
SWIDTH 600 0
DWIDTH 7 0
BBX 6 7 0 0
BITMAP
7BD0
78E0
74B0
74B0
74B0
74A0
76D0
ENDCHAR
STARTCHAR eng
ENCODING 331
SWIDTH 600 0
DWIDTH 7 0
BBX 6 7 0 -2
BITMAP
7BD0
78B0
74B0
74B0
74B0
00B0
02D0
ENDCHAR
STARTCHAR Omacron
ENCODING 332
SWIDTH 600 0
DWIDTH 7 0
BBX 6 9 0 0
BITMAP
1FC0
0000
1F80
38E0
74B0
B0B0
74B0
38E0
1F80
ENDCHAR
STARTCHAR omacron
ENCODING 333
SWIDTH 600 0
DWIDTH 7 0
BBX 6 8 0 0
BITMAP
1FC0
0000
0000
1F80
74E0
74B0
74E0
1F80
ENDCHAR
STARTCHAR Obreve
ENCODING 334
SWIDTH 600 0
DWIDTH 7 0
BBX 6 10 0 0
BITMAP
18C0
0B80
0000
1F80
38E0
74B0
B0B0
74B0
38E0
1F80
ENDCHAR
STARTCHAR obreve
ENCODING 335
SWIDTH 600 0
DWIDTH 7 0
BBX 6 8 0 0
BITMAP
18C0
0B80
0000
1F80
74E0
74B0
74E0
1F80
ENDCHAR
STARTCHAR Ohungarumlaut
ENCODING 336
SWIDTH 600 0
DWIDTH 7 0
BBX 6 10 0 0
BITMAP
0660
0880
0000
1F80
38E0
74B0
B0B0
74B0
38E0
1F80
ENDCHAR
STARTCHAR ohungarumlaut
ENCODING 337
SWIDTH 600 0
DWIDTH 7 0
BBX 6 8 0 0
BITMAP
0660
0980
0000
1F80
74E0
74B0
74E0
1F80
ENDCHAR
STARTCHAR OE
ENCODING 338
SWIDTH 600 0
DWIDTH 7 0
BBX 7 7 0 0
BITMAP
1FF4
7680
B280
B2F0
B280
7680
1FF8
ENDCHAR
STARTCHAR oe
ENCODING 339
SWIDTH 600 0
DWIDTH 7 0
BBX 7 5 0 0
BITMAP
2DE0
A734
E3F4
A740
2DF0
ENDCHAR
STARTCHAR Racute
ENCODING 340
SWIDTH 600 0
DWIDTH 7 0
BBX 7 10 0 0
BITMAP
0280
0600
0000
7FD0
74B0
74B0
7FD0
76D0
74E0
74B4
ENDCHAR
STARTCHAR racute
ENCODING 341
SWIDTH 600 0
DWIDTH 7 0
BBX 5 9 1 0
BITMAP
0240
0B40
0900
0000
ABC0
B400
B000
B000
B000
ENDCHAR
STARTCHAR uni0156
ENCODING 342
SWIDTH 600 0
DWIDTH 7 0
BBX 7 10 0 -3
BITMAP
7FD0
74B0
74B0
7FD0
76D0
74E0
74B4
0340
0280
0A00
ENDCHAR
STARTCHAR uni0157
ENCODING 343
SWIDTH 600 0
DWIDTH 7 0
BBX 5 8 1 -3
BITMAP
ABC0
B400
B000
B000
B000
6000
7000
E000
ENDCHAR
STARTCHAR Rcaron
ENCODING 344
SWIDTH 600 0
DWIDTH 7 0
BBX 7 10 0 0
BITMAP
1880
0F80
0000
7FD0
74B0
74B0
7FD0
76D0
74E0
74B4
ENDCHAR
STARTCHAR rcaron
ENCODING 345
SWIDTH 600 0
DWIDTH 7 0
BBX 5 8 1 0
BITMAP
2580
1F00
0000
ABC0
B400
B000
B000
B000
ENDCHAR
STARTCHAR Sacute
ENCODING 346
SWIDTH 600 0
DWIDTH 7 0
BBX 5 10 1 0
BITMAP
0600
1900
0000
6F40
E140
F400
7F40
07C0
92C0
BE40
ENDCHAR
STARTCHAR sacute
ENCODING 347
SWIDTH 600 0
DWIDTH 7 0
BBX 5 9 1 0
BITMAP
0600
0F00
0800
0000
7E40
E500
7F40
43C0
BF40
ENDCHAR
STARTCHAR Scircumflex
ENCODING 348
SWIDTH 600 0
DWIDTH 7 0
BBX 5 9 1 0
BITMAP
2E00
2200
6F40
E140
F400
7F40
07C0
92C0
BE40
ENDCHAR
STARTCHAR scircumflex
ENCODING 349
SWIDTH 600 0
DWIDTH 7 0
BBX 5 8 1 0
BITMAP
2E00
6640
0000
7E40
E500
7F40
43C0
BF40
ENDCHAR
STARTCHAR uni015E
ENCODING 350
SWIDTH 600 0
DWIDTH 7 0
BBX 5 11 1 -4
BITMAP
6F40
E140
F400
7F40
07C0
92C0
BE40
1800
1D00
0D00
2800
ENDCHAR
STARTCHAR uni015F
ENCODING 351
SWIDTH 600 0
DWIDTH 7 0
BBX 5 9 1 -4
BITMAP
7E40
E500
7F40
43C0
BF40
0800
1D00
0D00
2800
ENDCHAR
STARTCHAR Scaron
ENCODING 352
SWIDTH 600 0
DWIDTH 7 0
BBX 5 10 1 0
BITMAP
2200
2E00
0000
6F40
E140
F400
7F40
07C0
92C0
BE40
ENDCHAR
STARTCHAR scaron
ENCODING 353
SWIDTH 600 0
DWIDTH 7 0
BBX 5 8 1 0
BITMAP
6240
2E00
0000
7E40
E500
7F40
43C0
BF40
ENDCHAR
STARTCHAR uni0162
ENCODING 354
SWIDTH 600 0
DWIDTH 7 0
BBX 7 11 0 -4
BITMAP
BFF4
0B00
0B00
0B00
0B00
0B00
0B00
0600
0B00
0340
0E00
ENDCHAR
STARTCHAR uni0163
ENCODING 355
SWIDTH 600 0
DWIDTH 7 0
BBX 6 11 0 -4
BITMAP
0E00
0E00
7FF0
0E00
0E00
0E00
07E0
0180
02C0
01C0
0380
ENDCHAR
STARTCHAR Tcaron
ENCODING 356
SWIDTH 600 0
DWIDTH 7 0
BBX 7 10 0 0
BITMAP
1880
0F80
0000
BFF4
0B00
0B00
0B00
0B00
0B00
0B00
ENDCHAR
STARTCHAR tcaron
ENCODING 357
SWIDTH 600 0
DWIDTH 7 0
BBX 6 9 0 0
BITMAP
00E0
00A0
0E90
0E00
7FF0
0E00
0E00
0E00
07E0
ENDCHAR
STARTCHAR Tbar
ENCODING 358
SWIDTH 600 0
DWIDTH 7 0
BBX 7 7 0 0
BITMAP
BFF4
0B00
0B00
3FE0
0B00
0B00
0B00
ENDCHAR
STARTCHAR tbar
ENCODING 359
SWIDTH 600 0
DWIDTH 7 0
BBX 6 7 0 0
BITMAP
0900
0E00
7FF0
0E00
7FE0
0E00
07E0
ENDCHAR
STARTCHAR Utilde
ENCODING 360
SWIDTH 600 0
DWIDTH 7 0
BBX 6 10 0 0
BITMAP
1D90
26C0
0000
74B0
74B0
74B0
74B0
74B0
38E0
1F80
ENDCHAR
STARTCHAR utilde
ENCODING 361
SWIDTH 600 0
DWIDTH 7 0
BBX 6 8 0 0
BITMAP
1940
2BC0
0000
74E0
74E0
74E0
75E0
2EA0
ENDCHAR
STARTCHAR Umacron
ENCODING 362
SWIDTH 600 0
DWIDTH 7 0
BBX 6 9 0 0
BITMAP
1FC0
0000
74B0
74B0
74B0
74B0
74B0
38E0
1F80
ENDCHAR
STARTCHAR umacron
ENCODING 363
SWIDTH 600 0
DWIDTH 7 0
BBX 6 8 0 0
BITMAP
1FC0
0000
0000
74E0
74E0
74E0
75E0
2EA0
ENDCHAR
STARTCHAR Ubreve
ENCODING 364
SWIDTH 600 0
DWIDTH 7 0
BBX 6 10 0 0
BITMAP
18C0
0B80
0000
74B0
74B0
74B0
74B0
74B0
38E0
1F80
ENDCHAR
STARTCHAR ubreve
ENCODING 365
SWIDTH 600 0
DWIDTH 7 0
BBX 6 8 0 0
BITMAP
28C0
0B40
0000
74E0
74E0
74E0
75E0
2EA0
ENDCHAR
STARTCHAR Uring
ENCODING 366
SWIDTH 600 0
DWIDTH 7 0
BBX 6 10 0 0
BITMAP
0B40
0D80
0B40
74B0
74B0
74B0
74B0
74B0
38E0
1F80
ENDCHAR
STARTCHAR uring
ENCODING 367
SWIDTH 600 0
DWIDTH 7 0
BBX 6 9 0 0
BITMAP
0B40
0D80
0B40
0000
74E0
74E0
74E0
75E0
2EA0
ENDCHAR
STARTCHAR Uhungarumlaut
ENCODING 368
SWIDTH 600 0
DWIDTH 7 0
BBX 6 10 0 0
BITMAP
0660
0880
0000
74B0
74B0
74B0
74B0
74B0
38E0
1F80
ENDCHAR
STARTCHAR uhungarumlaut
ENCODING 369
SWIDTH 600 0
DWIDTH 7 0
BBX 6 8 0 0
BITMAP
06A0
0980
0000
74E0
74E0
74E0
75E0
2EA0
ENDCHAR
STARTCHAR Uogonek
ENCODING 370
SWIDTH 600 0
DWIDTH 7 0
BBX 6 9 0 -2
BITMAP
74B0
74B0
74B0
74B0
74B0
38E0
1F80
0600
0B40
ENDCHAR
STARTCHAR uogonek
ENCODING 371
SWIDTH 600 0
DWIDTH 7 0
BBX 6 8 0 -3
BITMAP
74E0
74E0
74E0
75E0
2EA0
0080
0180
01E0
ENDCHAR
STARTCHAR Wcircumflex
ENCODING 372
SWIDTH 600 0
DWIDTH 7 0
BBX 7 9 0 0
BITMAP
0F80
1880
E034
A134
B774
7B70
7AB0
7DF0
38E0
ENDCHAR
STARTCHAR wcircumflex
ENCODING 373
SWIDTH 600 0
DWIDTH 7 0
BBX 7 8 0 0
BITMAP
0F80
1980
0000
E134
B774
BAB0
7EF0
3DE0
ENDCHAR
STARTCHAR Ycircumflex
ENCODING 374
SWIDTH 600 0
DWIDTH 7 0
BBX 7 9 0 0
BITMAP
0F80
1880
B074
38E0
2DD0
0F80
0B40
0B00
0B00
ENDCHAR
STARTCHAR ycircumflex
ENCODING 375
SWIDTH 600 0
DWIDTH 7 0
BBX 6 10 0 -2
BITMAP
0B80
1990
0000
7070
38A0
1DD0
0E80
0740
0B00
3900
ENDCHAR
STARTCHAR Ydieresis
ENCODING 376
SWIDTH 600 0
DWIDTH 7 0
BBX 7 10 0 0
BITMAP
28C0
28C0
0000
B074
38E0
2DD0
0F80
0B40
0B00
0B00
ENDCHAR
STARTCHAR Zacute
ENCODING 377
SWIDTH 600 0
DWIDTH 7 0
BBX 6 10 0 0
BITMAP
0180
0640
0000
3FF0
01D0
0380
0B40
1E00
2C00
7FF0
ENDCHAR
STARTCHAR zacute
ENCODING 378
SWIDTH 600 0
DWIDTH 7 0
BBX 6 9 0 0
BITMAP
0080
02D0
0240
0000
3FE0
02C0
0B40
1D00
7FF0
ENDCHAR
STARTCHAR Zdotaccent
ENCODING 379
SWIDTH 600 0
DWIDTH 7 0
BBX 6 10 0 0
BITMAP
0740
0740
0000
3FF0
01D0
0380
0B40
1E00
2C00
7FF0
ENDCHAR
STARTCHAR zdotaccent
ENCODING 380
SWIDTH 600 0
DWIDTH 7 0
BBX 6 8 0 0
BITMAP
0740
0740
0000
3FE0
02C0
0B40
1D00
7FF0
ENDCHAR
STARTCHAR Zcaron
ENCODING 381
SWIDTH 600 0
DWIDTH 7 0
BBX 6 10 0 0
BITMAP
0880
0B80
0000
3FF0
01D0
0380
0B40
1E00
2C00
7FF0
ENDCHAR
STARTCHAR zcaron
ENCODING 382
SWIDTH 600 0
DWIDTH 7 0
BBX 6 8 0 0
BITMAP
1990
0B80
0000
3FE0
02C0
0B40
1D00
7FF0
ENDCHAR
STARTCHAR longs
ENCODING 383
SWIDTH 600 0
DWIDTH 7 0
BBX 6 8 1 0
BITMAP
0BD0
1C00
2C00
FC00
2C00
2C00
2C00
2C00
ENDCHAR
STARTCHAR uni0180
ENCODING 384
SWIDTH 600 0
DWIDTH 7 0
BBX 6 8 0 0
BITMAP
7400
FF40
7400
7BD0
78B0
74B0
78A0
7B90
ENDCHAR
STARTCHAR uni018A
ENCODING 394
SWIDTH 600 0
DWIDTH 7 0
BBX 7 7 0 0
BITMAP
6F90
AEB0
DE74
AE34
0E74
0EB0
0F90
ENDCHAR
STARTCHAR uni018F
ENCODING 399
SWIDTH 600 0
DWIDTH 7 0
BBX 6 7 0 0
BITMAP
1F80
04E0
00B0
7FF0
74B0
38E0
1B80
ENDCHAR
STARTCHAR uni0192
ENCODING 402
SWIDTH 600 0
DWIDTH 7 0
BBX 6 8 0 -1
BITMAP
01F0
0340
0740
1FD0
0B00
0A00
0E00
7800
ENDCHAR
STARTCHAR uni0193
ENCODING 403
SWIDTH 600 0
DWIDTH 7 0
BBX 7 9 0 0
BITMAP
0078
00A0
0BE0
3840
7400
75F0
7470
38B0
1BD0
ENDCHAR
STARTCHAR Ohorn
ENCODING 416
SWIDTH 600 0
DWIDTH 7 0
BBX 7 9 0 0
BITMAP
0024
0034
1FE0
38E0
74B0
B0B0
74B0
38E0
1F80
ENDCHAR
STARTCHAR ohorn
ENCODING 417
SWIDTH 600 0
DWIDTH 7 0
BBX 7 7 0 0
BITMAP
0024
0034
1FE0
74E0
74B0
74E0
1F80
ENDCHAR
STARTCHAR Uhorn
ENCODING 431
SWIDTH 600 0
DWIDTH 7 0
BBX 8 9 0 0
BITMAP
0008
001D
74B8
74B0
74B0
74B0
74B0
38E0
1F80
ENDCHAR
STARTCHAR uhorn
ENCODING 432
SWIDTH 600 0
DWIDTH 7 0
BBX 7 7 0 0
BITMAP
0018
0028
74F4
74E0
74E0
75E0
2EA0
ENDCHAR
STARTCHAR uni01C2
ENCODING 450
SWIDTH 600 0
DWIDTH 7 0
BBX 6 10 0 -2
BITMAP
0B00
0B00
0B00
7FF0
0B00
7FF0
0B00
0B00
0B00
0B00
ENDCHAR
STARTCHAR uni01CD
ENCODING 461
SWIDTH 600 0
DWIDTH 7 0
BBX 7 10 0 0
BITMAP
1880
0F80
0000
0F40
0E80
1DC0
28D0
3FE0
70B0
B074
ENDCHAR
STARTCHAR uni01CE
ENCODING 462
SWIDTH 600 0
DWIDTH 7 0
BBX 6 8 0 0
BITMAP
1890
0B80
0000
2F90
10E0
1BF0
78B0
2EB0
ENDCHAR
STARTCHAR uni01CF
ENCODING 463
SWIDTH 600 0
DWIDTH 7 0
BBX 6 10 0 0
BITMAP
1880
0F80
0000
7FE0
0B00
0B00
0B00
0B00
0B00
7FE0
ENDCHAR
STARTCHAR uni01D0
ENCODING 464
SWIDTH 600 0
DWIDTH 7 0
BBX 5 8 1 0
BITMAP
2580
1F00
0000
FE00
0E00
0E00
0E00
0E00
ENDCHAR
STARTCHAR uni01D1
ENCODING 465
SWIDTH 600 0
DWIDTH 7 0
BBX 6 10 0 0
BITMAP
1880
0F80
0000
1F80
38E0
74B0
B0B0
74B0
38E0
1F80
ENDCHAR
STARTCHAR uni01D2
ENCODING 466
SWIDTH 600 0
DWIDTH 7 0
BBX 6 8 0 0
BITMAP
1980
0F80
0000
1F80
74E0
74B0
74E0
1F80
ENDCHAR
STARTCHAR uni01D3
ENCODING 467
SWIDTH 600 0
DWIDTH 7 0
BBX 6 10 0 0
BITMAP
1880
0F80
0000
74B0
74B0
74B0
74B0
74B0
38E0
1F80
ENDCHAR
STARTCHAR uni01D4
ENCODING 468
SWIDTH 600 0
DWIDTH 7 0
BBX 6 8 0 0
BITMAP
1980
0F80
0000
74E0
74E0
74E0
75E0
2EA0
ENDCHAR
STARTCHAR uni01D5
ENCODING 469
SWIDTH 600 0
DWIDTH 7 0
BBX 6 11 0 0
BITMAP
1FC0
0000
18C0
0000
74B0
74B0
74B0
74B0
74B0
38E0
1F80
ENDCHAR
STARTCHAR uni01D6
ENCODING 470
SWIDTH 600 0
DWIDTH 7 0
BBX 6 9 0 0
BITMAP
1FC0
0000
18C0
0000
74E0
74E0
74E0
75E0
2EA0
ENDCHAR
STARTCHAR uni01D7
ENCODING 471
SWIDTH 600 0
DWIDTH 7 0
BBX 6 11 0 0
BITMAP
0240
0200
18C0
0000
74B0
74B0
74B0
74B0
74B0
38E0
1F80
ENDCHAR
STARTCHAR uni01D8
ENCODING 472
SWIDTH 600 0
DWIDTH 7 0
BBX 6 10 0 0
BITMAP
0240
0200
0000
18C0
0000
74E0
74E0
74E0
75E0
2EA0
ENDCHAR
STARTCHAR uni01D9
ENCODING 473
SWIDTH 600 0
DWIDTH 7 0
BBX 6 11 0 0
BITMAP
1980
0B40
18C0
0000
74B0
74B0
74B0
74B0
74B0
38E0
1F80
ENDCHAR
STARTCHAR uni01DA
ENCODING 474
SWIDTH 600 0
DWIDTH 7 0
BBX 6 10 0 0
BITMAP
1980
0B40
0000
18C0
0000
74E0
74E0
74E0
75E0
2EA0
ENDCHAR
STARTCHAR uni01DB
ENCODING 475
SWIDTH 600 0
DWIDTH 7 0
BBX 6 11 0 0
BITMAP
0900
0600
18C0
0000
74B0
74B0
74B0
74B0
74B0
38E0
1F80
ENDCHAR
STARTCHAR uni01DC
ENCODING 476
SWIDTH 600 0
DWIDTH 7 0
BBX 6 10 0 0
BITMAP
0900
0600
0000
18C0
0000
74E0
74E0
74E0
75E0
2EA0
ENDCHAR
STARTCHAR uni01E2
ENCODING 482
SWIDTH 600 0
DWIDTH 7 0
BBX 7 9 0 0
BITMAP
07F0
0000
0BF4
0FC0
1EC0
3AF0
7FC0
B2C0
E2F8
ENDCHAR
STARTCHAR uni01E3
ENCODING 483
SWIDTH 600 0
DWIDTH 7 0
BBX 7 8 0 0
BITMAP
1FC0
0000
0000
7EE0
0734
6FF4
A740
7AF0
ENDCHAR
STARTCHAR Gcaron
ENCODING 486
SWIDTH 600 0
DWIDTH 7 0
BBX 6 10 0 0
BITMAP
0890
0B80
0000
0BD0
3840
7400
75F0
7470
38B0
1BD0
ENDCHAR
STARTCHAR gcaron
ENCODING 487
SWIDTH 600 0
DWIDTH 7 0
BBX 7 10 0 -2
BITMAP
1980
0F80
0000
1FF4
39D0
3EC0
3900
3FE0
70B4
2F90
ENDCHAR
STARTCHAR uni01EA
ENCODING 490
SWIDTH 600 0
DWIDTH 7 0
BBX 6 9 0 -2
BITMAP
1F80
38E0
74B0
B0B0
74B0
38E0
1F80
0600
0B40
ENDCHAR
STARTCHAR uni01EB
ENCODING 491
SWIDTH 600 0
DWIDTH 7 0
BBX 6 8 0 -3
BITMAP
1F80
74A0
74B0
74E0
1F80
0600
0900
0780
ENDCHAR
STARTCHAR uni01F4
ENCODING 500
SWIDTH 600 0
DWIDTH 7 0
BBX 6 10 0 0
BITMAP
0180
0640
0000
0BD0
3840
7400
75F0
7470
38B0
1BD0
ENDCHAR
STARTCHAR uni01F5
ENCODING 501
SWIDTH 600 0
DWIDTH 7 0
BBX 7 11 0 -2
BITMAP
0180
0380
0600
0000
1FF4
39D0
3EC0
3900
3FE0
70B4
2F90
ENDCHAR
STARTCHAR uni01F8
ENCODING 504
SWIDTH 600 0
DWIDTH 7 0
BBX 6 10 0 0
BITMAP
0900
0640
0000
78B0
7CB0
79B0
7BB0
77B0
75F0
74F0
ENDCHAR
STARTCHAR uni01F9
ENCODING 505
SWIDTH 600 0
DWIDTH 7 0
BBX 6 9 0 0
BITMAP
0800
0E00
0200
0000
7BD0
78B0
74B0
74B0
74B0
ENDCHAR
STARTCHAR Aringacute
ENCODING 506
SWIDTH 600 0
DWIDTH 7 0
BBX 7 10 0 0
BITMAP
0240
0940
0B40
0F40
0E80
1DC0
28D0
3FE0
70B0
B074
ENDCHAR
STARTCHAR aringacute
ENCODING 507
SWIDTH 600 0
DWIDTH 7 0
BBX 6 9 0 0
BITMAP
0280
0980
0B80
0000
2F90
2BE0
38B0
75F0
2EB0
ENDCHAR
STARTCHAR AEacute
ENCODING 508
SWIDTH 600 0
DWIDTH 7 0
BBX 7 10 0 0
BITMAP
00A0
0280
0000
0BF4
0FC0
1EC0
3AF0
7FC0
B2C0
E2F8
ENDCHAR
STARTCHAR aeacute
ENCODING 509
SWIDTH 600 0
DWIDTH 7 0
BBX 7 9 0 0
BITMAP
0180
03C0
0600
0000
7EE0
0734
6FF4
A740
7AF0
ENDCHAR
STARTCHAR Oslashacute
ENCODING 510
SWIDTH 600 0
DWIDTH 7 0
BBX 6 10 0 0
BITMAP
0280
0A00
0000
1FB0
39E0
72F0
B7B0
7DB0
78E0
AF80
ENDCHAR
STARTCHAR oslashacute
ENCODING 511
SWIDTH 600 0
DWIDTH 7 0
BBX 6 9 0 0
BITMAP
0180
0380
0600
0000
1FA0
75E0
76B0
7CA0
3F80
ENDCHAR
STARTCHAR uni0218
ENCODING 536
SWIDTH 600 0
DWIDTH 7 0
BBX 5 10 1 -3
BITMAP
6F40
E140
F400
7F40
07C0
92C0
BE40
1800
0D00
2800
ENDCHAR
STARTCHAR uni0219
ENCODING 537
SWIDTH 600 0
DWIDTH 7 0
BBX 5 8 1 -3
BITMAP
7E40
E500
7F40
43C0
BF40
1C00
0D00
2800
ENDCHAR
STARTCHAR uni021A
ENCODING 538
SWIDTH 600 0
DWIDTH 7 0
BBX 7 10 0 -3
BITMAP
BFF4
0B00
0B00
0B00
0B00
0B00
0B00
0600
0340
0E00
ENDCHAR
STARTCHAR uni021B
ENCODING 539
SWIDTH 600 0
DWIDTH 7 0
BBX 6 10 0 -3
BITMAP
0E00
0E00
7FF0
0E00
0E00
0E00
07E0
0280
01C0
0340
ENDCHAR
STARTCHAR uni0237
ENCODING 567
SWIDTH 600 0
DWIDTH 7 0
BBX 5 7 0 -2
BITMAP
3F80
0380
0380
0380
0380
0380
7E00
ENDCHAR
STARTCHAR uni0243
ENCODING 579
SWIDTH 600 0
DWIDTH 7 0
BBX 6 7 0 0
BITMAP
3FD0
38E0
3FD0
38B0
FE70
38B0
3F90
ENDCHAR
STARTCHAR uni0250
ENCODING 592
SWIDTH 600 0
DWIDTH 7 0
BBX 6 5 0 0
BITMAP
7BE0
79B0
7F90
3850
1FD0
ENDCHAR
STARTCHAR uni0251
ENCODING 593
SWIDTH 600 0
DWIDTH 7 0
BBX 6 5 0 0
BITMAP
1FA0
74E0
74A0
74E0
2EA0
ENDCHAR
STARTCHAR uni0252
ENCODING 594
SWIDTH 600 0
DWIDTH 7 0
BBX 6 5 0 0
BITMAP
7BD0
78B0
74B0
78E0
7B90
ENDCHAR
STARTCHAR uni0253
ENCODING 595
SWIDTH 600 0
DWIDTH 7 0
BBX 6 8 0 0
BITMAP
1F40
3800
7400
7BD0
78B0
74B0
78E0
7B90
ENDCHAR
STARTCHAR uni0254
ENCODING 596
SWIDTH 600 0
DWIDTH 7 0
BBX 5 5 1 0
BITMAP
BE00
4780
0380
4780
BE00
ENDCHAR
STARTCHAR uni0255
ENCODING 597
SWIDTH 600 0
DWIDTH 7 0
BBX 6 6 0 -1
BITMAP
1BE0
3810
76E0
3E70
2FD0
2400
ENDCHAR
STARTCHAR uni0256
ENCODING 598
SWIDTH 600 0
DWIDTH 7 0
BBX 7 10 0 -2
BITMAP
00E0
00E0
00E0
1FE0
74E0
74E0
74E0
2EE0
00A0
0078
ENDCHAR
STARTCHAR uni0257
ENCODING 599
SWIDTH 600 0
DWIDTH 7 0
BBX 7 8 0 0
BITMAP
0078
00A0
00A0
1EE0
74E0
74E0
74E0
2EA0
ENDCHAR
STARTCHAR uni0258
ENCODING 600
SWIDTH 600 0
DWIDTH 7 0
BBX 6 5 0 0
BITMAP
1F80
74E0
7FF0
10E0
2F80
ENDCHAR
STARTCHAR uni0259
ENCODING 601
SWIDTH 600 0
DWIDTH 7 0
BBX 6 5 0 0
BITMAP
2F80
10E0
7FF0
74A0
1F80
ENDCHAR
STARTCHAR uni025A
ENCODING 602
SWIDTH 600 0
DWIDTH 7 0
BBX 7 5 0 0
BITMAP
7E00
0BE0
6B68
A740
7E00
ENDCHAR
STARTCHAR uni025B
ENCODING 603
SWIDTH 600 0
DWIDTH 7 0
BBX 6 5 0 0
BITMAP
1FE0
3810
1F40
7810
2FE0
ENDCHAR
STARTCHAR uni025C
ENCODING 604
SWIDTH 600 0
DWIDTH 7 0
BBX 6 5 0 0
BITMAP
2F90
10E0
0FD0
10B0
6F90
ENDCHAR
STARTCHAR uni025E
ENCODING 606
SWIDTH 600 0
DWIDTH 7 0
BBX 6 5 0 0
BITMAP
1FD0
74E0
72D0
74B0
1FD0
ENDCHAR
STARTCHAR uni025F
ENCODING 607
SWIDTH 600 0
DWIDTH 7 0
BBX 6 7 0 -2
BITMAP
3F80
0380
2FF0
0380
0380
0380
7E00
ENDCHAR
STARTCHAR uni0260
ENCODING 608
SWIDTH 600 0
DWIDTH 7 0
BBX 7 9 0 -2
BITMAP
0078
00B0
1EE0
74E0
74E0
79E0
1EE0
10E0
2F80
ENDCHAR
STARTCHAR uni0261
ENCODING 609
SWIDTH 600 0
DWIDTH 7 0
BBX 6 7 0 -2
BITMAP
1FA0
78E0
74A0
74E0
2FE0
10E0
2F80
ENDCHAR
STARTCHAR uni0262
ENCODING 610
SWIDTH 600 0
DWIDTH 7 0
BBX 6 5 0 0
BITMAP
1BD0
3800
76F0
38B0
1BD0
ENDCHAR
STARTCHAR uni0263
ENCODING 611
SWIDTH 600 0
DWIDTH 7 0
BBX 6 7 0 -2
BITMAP
7470
38E0
1DC0
0F80
0F80
1DC0
0B80
ENDCHAR
STARTCHAR uni0264
ENCODING 612
SWIDTH 600 0
DWIDTH 7 0
BBX 6 5 0 0
BITMAP
79F0
0F80
2ED0
38D0
1F80
ENDCHAR
STARTCHAR uni0265
ENCODING 613
SWIDTH 600 0
DWIDTH 7 0
BBX 6 7 0 -2
BITMAP
74A0
74A0
74A0
75E0
2EE0
00A0
00A0
ENDCHAR
STARTCHAR uni0266
ENCODING 614
SWIDTH 600 0
DWIDTH 7 0
BBX 6 8 0 0
BITMAP
1F40
3800
7400
7BD0
78B0
74B0
74B0
74B0
ENDCHAR
STARTCHAR uni0267
ENCODING 615
SWIDTH 600 0
DWIDTH 7 0
BBX 6 10 0 -2
BITMAP
1F40
3800
7400
7BD0
78B0
74B0
74B0
74B0
00B0
03D0
ENDCHAR
STARTCHAR uni0268
ENCODING 616
SWIDTH 600 0
DWIDTH 7 0
BBX 5 8 1 0
BITMAP
0E00
0E00
0000
FE00
0E00
BFC0
0E00
0E00
ENDCHAR
STARTCHAR uni026A
ENCODING 618
SWIDTH 600 0
DWIDTH 7 0
BBX 5 5 1 0
BITMAP
FF80
2C00
2C00
2C00
FF80
ENDCHAR
STARTCHAR uni026B
ENCODING 619
SWIDTH 600 0
DWIDTH 7 0
BBX 6 8 0 0
BITMAP
7F00
0B00
0B00
2F40
6FD0
0B00
0B00
02E0
ENDCHAR
STARTCHAR uni026C
ENCODING 620
SWIDTH 600 0
DWIDTH 7 0
BBX 6 8 0 0
BITMAP
7F00
0B00
7F00
AF00
7FD0
0B00
0B00
02E0
ENDCHAR
STARTCHAR uni026D
ENCODING 621
SWIDTH 600 0
DWIDTH 7 0
BBX 6 10 0 -2
BITMAP
7F00
0B00
0B00
0B00
0B00
0B00
0B00
0B00
0B00
02E0
ENDCHAR
STARTCHAR uni026E
ENCODING 622
SWIDTH 600 0
DWIDTH 7 0
BBX 7 10 0 -2
BITMAP
B000
B000
B000
BFF4
B0E0
B2C0
B7E0
B078
0474
0BE0
ENDCHAR
STARTCHAR uni026F
ENCODING 623
SWIDTH 600 0
DWIDTH 7 0
BBX 7 5 0 0
BITMAP
A774
A774
A774
BB74
7BB4
ENDCHAR
STARTCHAR uni0270
ENCODING 624
SWIDTH 600 0
DWIDTH 7 0
BBX 7 7 0 -2
BITMAP
A774
A774
A774
B774
7BB4
0074
0074
ENDCHAR
STARTCHAR uni0271
ENCODING 625
SWIDTH 600 0
DWIDTH 7 0
BBX 7 7 0 -2
BITMAP
AEB0
B774
B774
B774
B774
0074
00E0
ENDCHAR
STARTCHAR uni0272
ENCODING 626
SWIDTH 600 0
DWIDTH 7 0
BBX 6 7 0 -2
BITMAP
3BD0
38B0
38B0
38B0
38B0
7400
E000
ENDCHAR
STARTCHAR uni0273
ENCODING 627
SWIDTH 600 0
DWIDTH 7 0
BBX 7 7 0 -2
BITMAP
7BD0
78E0
74A0
74A0
74A0
00B0
0078
ENDCHAR
STARTCHAR uni0274
ENCODING 628
SWIDTH 600 0
DWIDTH 7 0
BBX 6 5 0 0
BITMAP
78A0
7DA0
7BA0
76E0
74E0
ENDCHAR
STARTCHAR uni0275
ENCODING 629
SWIDTH 600 0
DWIDTH 7 0
BBX 6 5 0 0
BITMAP
1F80
74A0
7FF0
74A0
1F80
ENDCHAR
STARTCHAR uni0276
ENCODING 630
SWIDTH 600 0
DWIDTH 7 0
BBX 7 5 0 0
BITMAP
2FF4
B280
B2F0
B280
2FF8
ENDCHAR
STARTCHAR uni0278
ENCODING 632
SWIDTH 600 0
DWIDTH 7 0
BBX 7 10 0 -2
BITMAP
0700
0700
0700
2FD0
7770
A734
7770
2FD0
0700
0700
ENDCHAR
STARTCHAR uni0279
ENCODING 633
SWIDTH 600 0
DWIDTH 7 0
BBX 6 5 0 0
BITMAP
01D0
01D0
01D0
02D0
7DD0
ENDCHAR
STARTCHAR uni027A
ENCODING 634
SWIDTH 600 0
DWIDTH 7 0
BBX 6 8 0 0
BITMAP
01D0
01D0
01D0
01D0
01D0
01D0
02D0
79D0
ENDCHAR
STARTCHAR uni027B
ENCODING 635
SWIDTH 600 0
DWIDTH 7 0
BBX 6 7 0 -2
BITMAP
0280
0280
0280
0780
7A80
02C0
01F0
ENDCHAR
STARTCHAR uni027D
ENCODING 637
SWIDTH 600 0
DWIDTH 7 0
BBX 5 7 1 -2
BITMAP
ABC0
B400
B000
B000
B000
B000
2F40
ENDCHAR
STARTCHAR uni027E
ENCODING 638
SWIDTH 600 0
DWIDTH 7 0
BBX 5 5 1 0
BITMAP
2F80
7400
B000
B000
B000
ENDCHAR
STARTCHAR uni0280
ENCODING 640
SWIDTH 600 0
DWIDTH 7 0
BBX 6 5 0 0
BITMAP
7FD0
74E0
7FD0
75D0
74F0
ENDCHAR
STARTCHAR uni0281
ENCODING 641
SWIDTH 600 0
DWIDTH 7 0
BBX 6 5 0 0
BITMAP
74A0
2CA0
2FE0
78A0
2FE0
ENDCHAR
STARTCHAR uni0282
ENCODING 642
SWIDTH 600 0
DWIDTH 7 0
BBX 6 7 0 -2
BITMAP
1F90
3940
1FD0
10F0
7FD0
7000
2D00
ENDCHAR
STARTCHAR uni0283
ENCODING 643
SWIDTH 600 0
DWIDTH 7 0
BBX 6 10 0 -2
BITMAP
02F0
0740
0700
0700
0700
0700
0700
0700
0B00
7D00
ENDCHAR
STARTCHAR uni0284
ENCODING 644
SWIDTH 600 0
DWIDTH 7 0
BBX 6 10 0 -2
BITMAP
02F0
0740
0700
0700
0700
3FE0
0700
0700
0B00
7D00
ENDCHAR
STARTCHAR uni0287
ENCODING 647
SWIDTH 600 0
DWIDTH 7 0
BBX 6 7 0 -2
BITMAP
7E00
0380
0380
0380
7FF0
0380
0340
ENDCHAR
STARTCHAR uni0288
ENCODING 648
SWIDTH 600 0
DWIDTH 7 0
BBX 6 9 0 -2
BITMAP
0E00
0E00
7FF0
0E00
0E00
0E00
0E00
0E00
07E0
ENDCHAR
STARTCHAR uni0289
ENCODING 649
SWIDTH 600 0
DWIDTH 7 0
BBX 7 5 0 0
BITMAP
74E0
FFF8
74E0
39E0
2EA0
ENDCHAR
STARTCHAR uni028A
ENCODING 650
SWIDTH 600 0
DWIDTH 7 0
BBX 7 6 0 0
BITMAP
0050
BDF4
34E0
74B0
74B0
1F90
ENDCHAR
STARTCHAR uni028B
ENCODING 651
SWIDTH 600 0
DWIDTH 7 0
BBX 6 5 0 0
BITMAP
76D0
74B0
74B0
38E0
1F80
ENDCHAR
STARTCHAR uni028C
ENCODING 652
SWIDTH 600 0
DWIDTH 7 0
BBX 6 5 0 0
BITMAP
0F40
1E80
29D0
34E0
70B0
ENDCHAR
STARTCHAR uni028D
ENCODING 653
SWIDTH 600 0
DWIDTH 7 0
BBX 7 5 0 0
BITMAP
7DE0
7EF0
BAB0
AB74
E134
ENDCHAR
STARTCHAR uni028E
ENCODING 654
SWIDTH 600 0
DWIDTH 7 0
BBX 6 8 0 0
BITMAP
01E0
0340
0B00
0F00
1E80
29C0
34E0
70B0
ENDCHAR
STARTCHAR uni028F
ENCODING 655
SWIDTH 600 0
DWIDTH 7 0
BBX 6 5 0 0
BITMAP
74B0
2DD0
0F80
0B40
0700
ENDCHAR
STARTCHAR uni0290
ENCODING 656
SWIDTH 600 0
DWIDTH 7 0
BBX 7 7 0 -2
BITMAP
3FE0
02C0
0B40
1D00
7FF0
00B0
0078
ENDCHAR
STARTCHAR uni0291
ENCODING 657
SWIDTH 600 0
DWIDTH 7 0
BBX 7 6 0 -1
BITMAP
3FD0
03C0
0BB4
2DA4
7FE0
0200
ENDCHAR
STARTCHAR uni0292
ENCODING 658
SWIDTH 600 0
DWIDTH 7 0
BBX 5 7 1 -2
BITMAP
FF80
0A00
2C00
7E40
0380
4380
BE00
ENDCHAR
STARTCHAR uni0294
ENCODING 660
SWIDTH 600 0
DWIDTH 7 0
BBX 5 8 1 0
BITMAP
BE00
8780
0380
0B40
2E00
2C00
2C00
2C00
ENDCHAR
STARTCHAR uni0295
ENCODING 661
SWIDTH 600 0
DWIDTH 7 0
BBX 6 8 0 0
BITMAP
1BD0
3850
7400
3D00
1F40
0740
0740
0740
ENDCHAR
STARTCHAR uni0298
ENCODING 664
SWIDTH 600 0
DWIDTH 7 0
BBX 6 8 0 0
BITMAP
1B80
38E0
70B0
7670
7670
70B0
38E0
1B80
ENDCHAR
STARTCHAR uni0299
ENCODING 665
SWIDTH 600 0
DWIDTH 7 0
BBX 6 5 1 0
BITMAP
BF80
A2C0
BF80
A1D0
BF80
ENDCHAR
STARTCHAR uni029C
ENCODING 668
SWIDTH 600 0
DWIDTH 7 0
BBX 6 5 0 0
BITMAP
74A0
74A0
7FE0
74A0
74A0
ENDCHAR
STARTCHAR uni029D
ENCODING 669
SWIDTH 600 0
DWIDTH 7 0
BBX 6 11 0 -3
BITMAP
0380
0380
0000
3F80
0380
0380
0380
7F80
A7C0
7ED0
0090
ENDCHAR
STARTCHAR uni029E
ENCODING 670
SWIDTH 600 0
DWIDTH 7 0
BBX 6 7 0 -2
BITMAP
74E0
2DE0
0BE0
1EE0
78E0
00E0
00E0
ENDCHAR
STARTCHAR uni029F
ENCODING 671
SWIDTH 600 0
DWIDTH 7 0
BBX 5 5 1 0
BITMAP
B000
B000
B000
B000
BFC0
ENDCHAR
STARTCHAR uni02A1
ENCODING 673
SWIDTH 600 0
DWIDTH 7 0
BBX 6 8 0 0
BITMAP
2F80
20E0
00E0
02C0
7FF0
0B00
0B00
0B00
ENDCHAR
STARTCHAR uni02A2
ENCODING 674
SWIDTH 600 0
DWIDTH 7 0
BBX 6 8 0 0
BITMAP
1FD0
3850
3800
1D00
7FF0
0740
0740
0740
ENDCHAR
STARTCHAR uni02A4
ENCODING 676
SWIDTH 600 0
DWIDTH 7 0
BBX 7 10 0 -2
BITMAP
0A00
0A00
0A00
7FF8
EA70
DAA0
EAF4
7A28
0028
01F4
ENDCHAR
STARTCHAR uni02A6
ENCODING 678
SWIDTH 600 0
DWIDTH 7 0
BBX 7 7 0 0
BITMAP
2400
3400
FFF4
76D0
74B0
3834
1FE0
ENDCHAR
STARTCHAR uni02A7
ENCODING 679
SWIDTH 600 0
DWIDTH 7 0
BBX 7 10 0 -2
BITMAP
002C
3470
34B0
FFF0
74B0
74B0
38B0
2EB0
00B0
02D0
ENDCHAR
STARTCHAR h.sups
ENCODING 688
SWIDTH 600 0
DWIDTH 7 0
BBX 4 6 1 4
BITMAP
10
70
7E
73
73
62
ENDCHAR
STARTCHAR j.sups
ENCODING 690
SWIDTH 600 0
DWIDTH 7 0
BBX 4 6 1 3
BITMAP
0D
7D
0D
0D
0D
78
ENDCHAR
STARTCHAR r.sups
ENCODING 691
SWIDTH 600 0
DWIDTH 7 0
BBX 4 4 2 4
BITMAP
AD
A0
A0
50
ENDCHAR
STARTCHAR w.sups
ENCODING 695
SWIDTH 600 0
DWIDTH 7 0
BBX 6 4 0 4
BITMAP
6660
6A90
3AD0
29C0
ENDCHAR
STARTCHAR y.sups
ENCODING 696
SWIDTH 600 0
DWIDTH 7 0
BBX 4 5 1 3
BITMAP
63
36
2D
1C
74
ENDCHAR
STARTCHAR uni02B9
ENCODING 697
SWIDTH 600 0
DWIDTH 7 0
BBX 3 4 2 4
BITMAP
74
70
70
60
ENDCHAR
STARTCHAR uni02BB
ENCODING 699
SWIDTH 600 0
DWIDTH 7 0
BBX 3 4 2 3
BITMAP
70
90
F4
B4
ENDCHAR
STARTCHAR uni02BC
ENCODING 700
SWIDTH 600 0
DWIDTH 7 0
BBX 3 4 2 4
BITMAP
B4
B8
24
A0
ENDCHAR
STARTCHAR uni02BE
ENCODING 702
SWIDTH 600 0
DWIDTH 7 0
BBX 3 3 2 6
BITMAP
B4
28
B4
ENDCHAR
STARTCHAR uni02BF
ENCODING 703
SWIDTH 600 0
DWIDTH 7 0
BBX 2 3 2 6
BITMAP
B0
D0
B0
ENDCHAR
STARTCHAR uni02C1
ENCODING 705
SWIDTH 600 0
DWIDTH 7 0
BBX 4 5 1 4
BITMAP
2E
71
34
1C
04
ENDCHAR
STARTCHAR circumflex
ENCODING 710
SWIDTH 600 0
DWIDTH 7 0
BBX 4 2 1 6
BITMAP
3E
66
ENDCHAR
STARTCHAR caron
ENCODING 711
SWIDTH 600 0
DWIDTH 7 0
BBX 4 2 1 6
BITMAP
66
3E
ENDCHAR
STARTCHAR uni02C8
ENCODING 712
SWIDTH 600 0
DWIDTH 7 0
BBX 2 4 2 4
BITMAP
70
70
70
70
ENDCHAR
STARTCHAR uni02C9
ENCODING 713
SWIDTH 600 0
DWIDTH 7 0
BBX 4 1 1 7
BITMAP
7F
ENDCHAR
STARTCHAR uni02CA
ENCODING 714
SWIDTH 600 0
DWIDTH 7 0
BBX 3 3 2 6
BITMAP
18
38
60
ENDCHAR
STARTCHAR uni02CB
ENCODING 715
SWIDTH 600 0
DWIDTH 7 0
BBX 3 3 1 6
BITMAP
20
78
18
ENDCHAR
STARTCHAR uni02CC
ENCODING 716
SWIDTH 600 0
DWIDTH 7 0
BBX 2 4 2 -3
BITMAP
70
70
70
70
ENDCHAR
STARTCHAR uni02D0
ENCODING 720
SWIDTH 600 0
DWIDTH 7 0
BBX 3 6 2 0
BITMAP
B4
70
10
00
60
B4
ENDCHAR
STARTCHAR uni02D1
ENCODING 721
SWIDTH 600 0
DWIDTH 7 0
BBX 3 2 2 4
BITMAP
B4
60
ENDCHAR
STARTCHAR breve
ENCODING 728
SWIDTH 600 0
DWIDTH 7 0
BBX 4 2 1 6
BITMAP
63
2E
ENDCHAR
STARTCHAR dotaccent
ENCODING 729
SWIDTH 600 0
DWIDTH 7 0
BBX 3 2 2 6
BITMAP
B4
B4
ENDCHAR
STARTCHAR ring
ENCODING 730
SWIDTH 600 0
DWIDTH 7 0
BBX 3 3 2 6
BITMAP
B4
D8
B4
ENDCHAR
STARTCHAR ogonek
ENCODING 731
SWIDTH 600 0
DWIDTH 7 0
BBX 3 3 2 -3
BITMAP
60
90
B4
ENDCHAR
STARTCHAR tilde
ENCODING 732
SWIDTH 600 0
DWIDTH 7 0
BBX 4 2 1 6
BITMAP
65
AF
ENDCHAR
STARTCHAR hungarumlaut
ENCODING 733
SWIDTH 600 0
DWIDTH 7 0
BBX 4 2 2 6
BITMAP
66
98
ENDCHAR
STARTCHAR uni02DE
ENCODING 734
SWIDTH 600 0
DWIDTH 7 0
BBX 4 3 1 2
BITMAP
10
F4
5D
ENDCHAR
STARTCHAR uni02E0
ENCODING 736
SWIDTH 600 0
DWIDTH 7 0
BBX 4 6 1 2
BITMAP
63
36
2D
2C
29
2D
ENDCHAR
STARTCHAR l.sups
ENCODING 737
SWIDTH 600 0
DWIDTH 7 0
BBX 3 5 2 4
BITMAP
F0
70
70
70
3C
ENDCHAR
STARTCHAR s.sups
ENCODING 738
SWIDTH 600 0
DWIDTH 7 0
BBX 3 4 2 4
BITMAP
B8
D4
5C
B8
ENDCHAR
STARTCHAR x.sups
ENCODING 739
SWIDTH 600 0
DWIDTH 7 0
BBX 4 4 1 4
BITMAP
77
2D
2D
67
ENDCHAR
STARTCHAR uni02E4
ENCODING 740
SWIDTH 600 0
DWIDTH 7 0
BBX 4 6 1 3
BITMAP
2E
71
34
1C
0C
04
ENDCHAR
STARTCHAR uni0300
ENCODING 768
SWIDTH 600 0
DWIDTH 7 0
BBX 3 3 1 6
BITMAP
20
78
18
ENDCHAR
STARTCHAR uni0301
ENCODING 769
SWIDTH 600 0
DWIDTH 7 0
BBX 3 3 2 6
BITMAP
18
38
60
ENDCHAR
STARTCHAR uni0302
ENCODING 770
SWIDTH 600 0
DWIDTH 7 0
BBX 4 2 1 6
BITMAP
3E
66
ENDCHAR
STARTCHAR uni0303
ENCODING 771
SWIDTH 600 0
DWIDTH 7 0
BBX 4 2 1 6
BITMAP
65
AF
ENDCHAR
STARTCHAR uni0304
ENCODING 772
SWIDTH 600 0
DWIDTH 7 0
BBX 4 1 1 7
BITMAP
7F
ENDCHAR
STARTCHAR uni0305
ENCODING 773
SWIDTH 600 0
DWIDTH 7 0
BBX 4 1 1 7
BITMAP
7F
ENDCHAR
STARTCHAR uni0306
ENCODING 774
SWIDTH 600 0
DWIDTH 7 0
BBX 4 2 1 6
BITMAP
63
2E
ENDCHAR
STARTCHAR uni0307
ENCODING 775
SWIDTH 600 0
DWIDTH 7 0
BBX 3 2 2 6
BITMAP
B4
B4
ENDCHAR
STARTCHAR uni0308
ENCODING 776
SWIDTH 600 0
DWIDTH 7 0
BBX 5 2 1 6
BITMAP
A740
A740
ENDCHAR
STARTCHAR uni0309
ENCODING 777
SWIDTH 600 0
DWIDTH 7 0
BBX 3 3 2 6
BITMAP
A0
34
60
ENDCHAR
STARTCHAR uni030A
ENCODING 778
SWIDTH 600 0
DWIDTH 7 0
BBX 3 3 2 6
BITMAP
B4
D8
B4
ENDCHAR
STARTCHAR uni030B
ENCODING 779
SWIDTH 600 0
DWIDTH 7 0
BBX 4 2 2 6
BITMAP
66
98
ENDCHAR
STARTCHAR uni030C
ENCODING 780
SWIDTH 600 0
DWIDTH 7 0
BBX 4 2 1 6
BITMAP
66
3E
ENDCHAR
STARTCHAR uni030F
ENCODING 783
SWIDTH 600 0
DWIDTH 7 0
BBX 4 2 1 6
BITMAP
98
55
ENDCHAR
STARTCHAR uni0310
ENCODING 784
SWIDTH 600 0
DWIDTH 7 0
BBX 5 4 1 6
BITMAP
1800
1C00
A640
2E00
ENDCHAR
STARTCHAR uni0311
ENCODING 785
SWIDTH 600 0
DWIDTH 7 0
BBX 4 2 1 6
BITMAP
2D
63
ENDCHAR
STARTCHAR uni0312
ENCODING 786
SWIDTH 600 0
DWIDTH 7 0
BBX 2 2 2 6
BITMAP
60
70
ENDCHAR
STARTCHAR uni0313
ENCODING 787
SWIDTH 600 0
DWIDTH 7 0
BBX 2 2 2 6
BITMAP
70
60
ENDCHAR
STARTCHAR uni0318
ENCODING 792
SWIDTH 600 0
DWIDTH 7 0
BBX 3 3 2 -3
BITMAP
14
B8
14
ENDCHAR
STARTCHAR uni0319
ENCODING 793
SWIDTH 600 0
DWIDTH 7 0
BBX 3 3 2 -3
BITMAP
80
F4
80
ENDCHAR
STARTCHAR uni031A
ENCODING 794
SWIDTH 600 0
DWIDTH 7 0
BBX 3 2 2 6
BITMAP
B4
14
ENDCHAR
STARTCHAR uni031B
ENCODING 795
SWIDTH 600 0
DWIDTH 7 0
BBX 3 3 3 5
BITMAP
20
34
A0
ENDCHAR
STARTCHAR uni031C
ENCODING 796
SWIDTH 600 0
DWIDTH 7 0
BBX 2 3 2 -3
BITMAP
70
90
70
ENDCHAR
STARTCHAR uni031D
ENCODING 797
SWIDTH 600 0
DWIDTH 7 0
BBX 3 1 2 -3
BITMAP
F8
ENDCHAR
STARTCHAR uni031E
ENCODING 798
SWIDTH 600 0
DWIDTH 7 0
BBX 3 1 2 -2
BITMAP
F8
ENDCHAR
STARTCHAR uni031F
ENCODING 799
SWIDTH 600 0
DWIDTH 7 0
BBX 3 3 2 -3
BITMAP
20
F8
20
ENDCHAR
STARTCHAR uni0320
ENCODING 800
SWIDTH 600 0
DWIDTH 7 0
BBX 3 1 2 -2
BITMAP
F8
ENDCHAR
STARTCHAR uni0323
ENCODING 803
SWIDTH 600 0
DWIDTH 7 0
BBX 3 2 2 -3
BITMAP
B4
B4
ENDCHAR
STARTCHAR uni0324
ENCODING 804
SWIDTH 600 0
DWIDTH 7 0
BBX 5 2 1 -3
BITMAP
A740
A740
ENDCHAR
STARTCHAR uni0325
ENCODING 805
SWIDTH 600 0
DWIDTH 7 0
BBX 3 3 2 -3
BITMAP
B4
D8
B4
ENDCHAR
STARTCHAR uni0326
ENCODING 806
SWIDTH 600 0
DWIDTH 7 0
BBX 3 3 2 -3
BITMAP
60
34
E0
ENDCHAR
STARTCHAR uni0327
ENCODING 807
SWIDTH 600 0
DWIDTH 7 0
BBX 3 4 2 -4
BITMAP
60
B0
34
E0
ENDCHAR
STARTCHAR uni0328
ENCODING 808
SWIDTH 600 0
DWIDTH 7 0
BBX 3 3 2 -3
BITMAP
60
90
B4
ENDCHAR
STARTCHAR uni0329
ENCODING 809
SWIDTH 600 0
DWIDTH 7 0
BBX 2 2 2 -3
BITMAP
70
70
ENDCHAR
STARTCHAR uni032A
ENCODING 810
SWIDTH 600 0
DWIDTH 7 0
BBX 3 2 2 -3
BITMAP
F8
88
ENDCHAR
STARTCHAR uni032C
ENCODING 812
SWIDTH 600 0
DWIDTH 7 0
BBX 4 2 1 -3
BITMAP
66
3E
ENDCHAR
STARTCHAR uni032E
ENCODING 814
SWIDTH 600 0
DWIDTH 7 0
BBX 4 2 1 -3
BITMAP
63
2E
ENDCHAR
STARTCHAR uni032F
ENCODING 815
SWIDTH 600 0
DWIDTH 7 0
BBX 4 2 1 -3
BITMAP
2D
63
ENDCHAR
STARTCHAR uni0330
ENCODING 816
SWIDTH 600 0
DWIDTH 7 0
BBX 4 2 1 -3
BITMAP
65
AF
ENDCHAR
STARTCHAR uni0331
ENCODING 817
SWIDTH 600 0
DWIDTH 7 0
BBX 4 1 1 -2
BITMAP
7F
ENDCHAR
STARTCHAR uni0334
ENCODING 820
SWIDTH 600 0
DWIDTH 7 0
BBX 5 2 1 2
BITMAP
6440
AB40
ENDCHAR
STARTCHAR uni0339
ENCODING 825
SWIDTH 600 0
DWIDTH 7 0
BBX 3 3 2 -3
BITMAP
60
34
60
ENDCHAR
STARTCHAR uni033A
ENCODING 826
SWIDTH 600 0
DWIDTH 7 0
BBX 3 2 2 -2
BITMAP
88
F8
ENDCHAR
STARTCHAR uni033B
ENCODING 827
SWIDTH 600 0
DWIDTH 7 0
BBX 3 2 2 -3
BITMAP
F8
F8
ENDCHAR
STARTCHAR uni033C
ENCODING 828
SWIDTH 600 0
DWIDTH 7 0
BBX 5 2 1 -3
BITMAP
7B00
9A40
ENDCHAR
STARTCHAR uni033D
ENCODING 829
SWIDTH 600 0
DWIDTH 7 0
BBX 3 3 2 6
BITMAP
54
B0
54
ENDCHAR
STARTCHAR uni0342
ENCODING 834
SWIDTH 600 0
DWIDTH 7 0
BBX 4 2 1 6
BITMAP
65
AF
ENDCHAR
STARTCHAR uni0345
ENCODING 837
SWIDTH 600 0
DWIDTH 7 0
BBX 3 1 2 -2
BITMAP
74
ENDCHAR
STARTCHAR uni035F
ENCODING 863
SWIDTH 600 0
DWIDTH 7 0
BBX 12 1 -3 -2
BITMAP
7FFFFF
ENDCHAR
STARTCHAR uni0361
ENCODING 865
SWIDTH 600 0
DWIDTH 7 0
BBX 10 2 -2 7
BITMAP
1AFE40
640160
ENDCHAR
STARTCHAR uni0374
ENCODING 884
SWIDTH 600 0
DWIDTH 7 0
BBX 3 3 2 4
BITMAP
74
70
60
ENDCHAR
STARTCHAR uni0375
ENCODING 885
SWIDTH 600 0
DWIDTH 7 0
BBX 2 3 2 0
BITMAP
30
70
B0
ENDCHAR
STARTCHAR uni037A
ENCODING 890
SWIDTH 600 0
DWIDTH 7 0
BBX 3 1 2 -2
BITMAP
74
ENDCHAR
STARTCHAR uni037E
ENCODING 894
SWIDTH 600 0
DWIDTH 7 0
BBX 3 10 2 -3
BITMAP
B4
F8
B4
00
00
B4
B8
28
B0
40
ENDCHAR
STARTCHAR tonos
ENCODING 900
SWIDTH 600 0
DWIDTH 7 0
BBX 3 3 2 6
BITMAP
34
34
70
ENDCHAR
STARTCHAR dieresistonos
ENCODING 901
SWIDTH 600 0
DWIDTH 7 0
BBX 5 3 1 6
BITMAP
0C00
9E40
1800
ENDCHAR
STARTCHAR Alphatonos
ENCODING 902
SWIDTH 600 0
DWIDTH 7 0
BBX 7 8 0 0
BITMAP
A000
AB80
9BC0
9DD0
1CE0
2FE0
3870
7474
ENDCHAR
STARTCHAR anoteleia
ENCODING 903
SWIDTH 600 0
DWIDTH 7 0
BBX 3 3 2 3
BITMAP
B4
F8
B4
ENDCHAR
STARTCHAR Epsilontonos
ENCODING 904
SWIDTH 600 0
DWIDTH 7 0
BBX 6 8 0 0
BITMAP
A000
ABE0
DA00
CA00
0BD0
0A00
0A00
0BF0
ENDCHAR
STARTCHAR Etatonos
ENCODING 905
SWIDTH 600 0
DWIDTH 7 0
BBX 6 8 0 0
BITMAP
A000
AA70
DA70
CA70
0BF0
0A70
0A70
0A70
ENDCHAR
STARTCHAR Iotatonos
ENCODING 906
SWIDTH 600 0
DWIDTH 7 0
BBX 6 8 0 0
BITMAP
A000
ABE0
D280
C280
0280
0280
0280
0BE0
ENDCHAR
STARTCHAR Omicrontonos
ENCODING 908
SWIDTH 600 0
DWIDTH 7 0
BBX 6 8 0 0
BITMAP
A000
A7D0
DDA0
DD70
1C70
1D70
0DA0
07D0
ENDCHAR
STARTCHAR Upsilontonos
ENCODING 910
SWIDTH 600 0
DWIDTH 7 0
BBX 7 8 0 0
BITMAP
6000
AB28
9734
93B0
02E0
01D0
01D0
01D0
ENDCHAR
STARTCHAR Omegatonos
ENCODING 911
SWIDTH 600 0
DWIDTH 7 0
BBX 7 8 0 0
BITMAP
A000
A7D0
DDA0
DD70
1C70
1D70
09A0
2EF4
ENDCHAR
STARTCHAR iotadieresistonos
ENCODING 912
SWIDTH 600 0
DWIDTH 7 0
BBX 6 9 0 0
BITMAP
0300
36C0
0500
0000
7F00
0B00
0A00
0B00
07E0
ENDCHAR
STARTCHAR Alpha
ENCODING 913
SWIDTH 600 0
DWIDTH 7 0
BBX 7 7 0 0
BITMAP
0F40
0E80
1DC0
28D0
3FE0
70B0
B074
ENDCHAR
STARTCHAR Beta
ENCODING 914
SWIDTH 600 0
DWIDTH 7 0
BBX 6 7 0 0
BITMAP
7F90
74E0
74E0
7FD0
74B0
74B0
7FD0
ENDCHAR
STARTCHAR Gamma
ENCODING 915
SWIDTH 600 0
DWIDTH 7 0
BBX 5 7 1 0
BITMAP
BFC0
A000
A000
A000
A000
A000
A000
ENDCHAR
STARTCHAR uni0394
ENCODING 916
SWIDTH 600 0
DWIDTH 7 0
BBX 7 7 0 0
BITMAP
0F40
1E80
1DC0
29D0
34E0
74B0
BFF4
ENDCHAR
STARTCHAR Epsilon
ENCODING 917
SWIDTH 600 0
DWIDTH 7 0
BBX 5 7 1 0
BITMAP
FF80
E000
E000
FF40
E000
E000
FFC0
ENDCHAR
STARTCHAR Zeta
ENCODING 918
SWIDTH 600 0
DWIDTH 7 0
BBX 6 7 0 0
BITMAP
3FF0
01D0
0380
0B40
1E00
2C00
7FF0
ENDCHAR
STARTCHAR Eta
ENCODING 919
SWIDTH 600 0
DWIDTH 7 0
BBX 6 7 0 0
BITMAP
74B0
74B0
74B0
7FF0
74B0
74B0
74B0
ENDCHAR
STARTCHAR Theta
ENCODING 920
SWIDTH 600 0
DWIDTH 7 0
BBX 6 7 0 0
BITMAP
1F80
38E0
74B0
BBB0
74B0
38E0
1F80
ENDCHAR
STARTCHAR Iota
ENCODING 921
SWIDTH 600 0
DWIDTH 7 0
BBX 6 7 0 0
BITMAP
7FE0
0B00
0B00
0B00
0B00
0B00
7FE0
ENDCHAR
STARTCHAR Kappa
ENCODING 922
SWIDTH 600 0
DWIDTH 7 0
BBX 7 7 0 0
BITMAP
74B0
76D0
7B40
7F80
7AC0
74E0
74B4
ENDCHAR
STARTCHAR Lambda
ENCODING 923
SWIDTH 600 0
DWIDTH 7 0
BBX 7 7 0 0
BITMAP
0B40
0F80
1DC0
29D0
34E0
74B0
B074
ENDCHAR
STARTCHAR Mu
ENCODING 924
SWIDTH 600 0
DWIDTH 7 0
BBX 6 7 0 0
BITMAP
74F0
78F0
7DB0
7BB0
7770
7070
7070
ENDCHAR
STARTCHAR Nu
ENCODING 925
SWIDTH 600 0
DWIDTH 7 0
BBX 6 7 0 0
BITMAP
78B0
7CB0
79B0
7BB0
77B0
75F0
74F0
ENDCHAR
STARTCHAR Xi
ENCODING 926
SWIDTH 600 0
DWIDTH 7 0
BBX 6 7 0 0
BITMAP
3FE0
0000
0000
2FC0
0000
0000
7FF0
ENDCHAR
STARTCHAR Omicron
ENCODING 927
SWIDTH 600 0
DWIDTH 7 0
BBX 6 7 0 0
BITMAP
1F80
38E0
74B0
B0B0
74B0
38E0
1F80
ENDCHAR
STARTCHAR Pi
ENCODING 928
SWIDTH 600 0
DWIDTH 7 0
BBX 6 7 0 0
BITMAP
7FF0
74B0
74B0
74B0
74B0
74B0
74B0
ENDCHAR
STARTCHAR Rho
ENCODING 929
SWIDTH 600 0
DWIDTH 7 0
BBX 6 7 0 0
BITMAP
7F90
74B0
7470
74B0
7F90
7400
7400
ENDCHAR
STARTCHAR Sigma
ENCODING 931
SWIDTH 600 0
DWIDTH 7 0
BBX 6 7 0 0
BITMAP
7FE0
2C00
0A00
0740
0A00
2C00
7FF0
ENDCHAR
STARTCHAR Tau
ENCODING 932
SWIDTH 600 0
DWIDTH 7 0
BBX 7 7 0 0
BITMAP
BFF4
0B00
0B00
0B00
0B00
0B00
0B00
ENDCHAR
STARTCHAR Upsilon
ENCODING 933
SWIDTH 600 0
DWIDTH 7 0
BBX 7 7 0 0
BITMAP
B074
38E0
2DD0
0F80
0B40
0B00
0B00
ENDCHAR
STARTCHAR Phi
ENCODING 934
SWIDTH 600 0
DWIDTH 7 0
BBX 7 7 0 0
BITMAP
0700
2FD0
B774
A734
B774
2FD0
0700
ENDCHAR
STARTCHAR Chi
ENCODING 935
SWIDTH 600 0
DWIDTH 7 0
BBX 6 7 0 0
BITMAP
74B0
2DD0
1FC0
0F40
1EC0
39E0
B4B0
ENDCHAR
STARTCHAR Psi
ENCODING 936
SWIDTH 600 0
DWIDTH 7 0
BBX 7 7 0 0
BITMAP
A734
A734
B774
2FD0
0700
0700
0700
ENDCHAR
STARTCHAR uni03A9
ENCODING 937
SWIDTH 600 0
DWIDTH 7 0
BBX 7 7 0 0
BITMAP
1B80
38E0
70B0
B0B0
74B0
38D0
BDF4
ENDCHAR
STARTCHAR Iotadieresis
ENCODING 938
SWIDTH 600 0
DWIDTH 7 0
BBX 6 10 0 0
BITMAP
28C0
28C0
0000
7FE0
0B00
0B00
0B00
0B00
0B00
7FE0
ENDCHAR
STARTCHAR Upsilondieresis
ENCODING 939
SWIDTH 600 0
DWIDTH 7 0
BBX 7 10 0 0
BITMAP
28C0
28C0
0000
B074
38E0
2DD0
0F80
0B40
0B00
0B00
ENDCHAR
STARTCHAR alphatonos
ENCODING 940
SWIDTH 600 0
DWIDTH 7 0
BBX 7 9 0 0
BITMAP
0280
0280
0340
0000
2EB0
75E0
70E0
75D0
2EB4
ENDCHAR
STARTCHAR epsilontonos
ENCODING 941
SWIDTH 600 0
DWIDTH 7 0
BBX 5 9 1 0
BITMAP
0A00
0A00
0900
0000
7F40
E040
7D00
E040
BF80
ENDCHAR
STARTCHAR etatonos
ENCODING 942
SWIDTH 600 0
DWIDTH 7 0
BBX 6 11 0 -2
BITMAP
0280
0340
0340
0000
77D0
38A0
34B0
34B0
34B0
00B0
00B0
ENDCHAR
STARTCHAR iotatonos
ENCODING 943
SWIDTH 600 0
DWIDTH 7 0
BBX 6 9 0 0
BITMAP
0740
0700
0600
0000
7F00
0B00
0A00
0B00
07E0
ENDCHAR
STARTCHAR upsilondieresistonos
ENCODING 944
SWIDTH 600 0
DWIDTH 7 0
BBX 6 9 0 0
BITMAP
0300
2690
0600
0000
74A0
74B0
74B0
34E0
1F80
ENDCHAR
STARTCHAR alpha
ENCODING 945
SWIDTH 600 0
DWIDTH 7 0
BBX 7 5 0 0
BITMAP
2EB0
75E0
70E0
75D0
2EB4
ENDCHAR
STARTCHAR beta
ENCODING 946
SWIDTH 600 0
DWIDTH 7 0
BBX 6 10 0 -2
BITMAP
1F80
39D0
74E0
75D0
77D0
74B0
78B0
7BD0
7400
7400
ENDCHAR
STARTCHAR gamma
ENCODING 947
SWIDTH 600 0
DWIDTH 7 0
BBX 6 8 0 -2
BITMAP
1000
74B0
38A0
1DD0
0F80
0B00
0B00
0B00
ENDCHAR
STARTCHAR delta
ENCODING 948
SWIDTH 600 0
DWIDTH 7 0
BBX 6 8 0 0
BITMAP
1FD0
3850
1E40
1FD0
38F0
70B0
74A0
1F80
ENDCHAR
STARTCHAR epsilon
ENCODING 949
SWIDTH 600 0
DWIDTH 7 0
BBX 5 5 1 0
BITMAP
7F40
E040
7D00
E040
BF80
ENDCHAR
STARTCHAR zeta
ENCODING 950
SWIDTH 600 0
DWIDTH 7 0
BBX 5 10 1 -2
BITMAP
BF80
0B40
2C00
7400
E000
E000
B400
2F40
0280
0240
ENDCHAR
STARTCHAR eta
ENCODING 951
SWIDTH 600 0
DWIDTH 7 0
BBX 6 7 0 -2
BITMAP
77D0
38A0
34B0
34B0
34B0
00B0
00B0
ENDCHAR
STARTCHAR theta
ENCODING 952
SWIDTH 600 0
DWIDTH 7 0
BBX 6 8 0 0
BITMAP
1B80
38D0
74A0
74B0
7FF0
74B0
38D0
1B80
ENDCHAR
STARTCHAR iota
ENCODING 953
SWIDTH 600 0
DWIDTH 7 0
BBX 6 5 0 0
BITMAP
7F00
0B00
0A00
0B00
07E0
ENDCHAR
STARTCHAR kappa
ENCODING 954
SWIDTH 600 0
DWIDTH 7 0
BBX 5 5 1 0
BITMAP
D280
EA40
FD00
EB40
D2C0
ENDCHAR
STARTCHAR lambda
ENCODING 955
SWIDTH 600 0
DWIDTH 7 0
BBX 6 8 0 0
BITMAP
7D00
0B00
0740
0B80
0EC0
2DD0
38E0
74B0
ENDCHAR
STARTCHAR uni03BC
ENCODING 956
SWIDTH 600 0
DWIDTH 7 0
BBX 7 7 0 -2
BITMAP
74E0
74E0
74E0
75E0
7EB4
7400
7400
ENDCHAR
STARTCHAR nu
ENCODING 957
SWIDTH 600 0
DWIDTH 7 0
BBX 6 6 0 0
BITMAP
1000
74B0
2CA0
1DD0
0FC0
0B40
ENDCHAR
STARTCHAR xi
ENCODING 958
SWIDTH 600 0
DWIDTH 7 0
BBX 6 10 0 -2
BITMAP
7FE0
1D00
1D00
0BD0
2D00
3800
3D00
1BD0
00A0
0090
ENDCHAR
STARTCHAR omicron
ENCODING 959
SWIDTH 600 0
DWIDTH 7 0
BBX 6 5 0 0
BITMAP
1F80
78E0
74B0
78E0
1F80
ENDCHAR
STARTCHAR pi
ENCODING 960
SWIDTH 600 0
DWIDTH 7 0
BBX 7 5 0 0
BITMAP
FFF4
28E0
38E0
38E0
38B4
ENDCHAR
STARTCHAR rho
ENCODING 961
SWIDTH 600 0
DWIDTH 7 0
BBX 6 7 0 -2
BITMAP
1B90
38B0
34B0
78A0
7B90
7400
7400
ENDCHAR
STARTCHAR uni03C2
ENCODING 962
SWIDTH 600 0
DWIDTH 7 0
BBX 5 7 1 -2
BITMAP
2F80
E000
D000
E000
6F40
0280
0240
ENDCHAR
STARTCHAR sigma
ENCODING 963
SWIDTH 600 0
DWIDTH 7 0
BBX 7 5 0 0
BITMAP
1FF4
75D0
74E0
75D0
1F80
ENDCHAR
STARTCHAR tau
ENCODING 964
SWIDTH 600 0
DWIDTH 7 0
BBX 6 5 0 0
BITMAP
7FF0
0B00
0B00
0700
03D0
ENDCHAR
STARTCHAR upsilon
ENCODING 965
SWIDTH 600 0
DWIDTH 7 0
BBX 6 5 0 0
BITMAP
74A0
74B0
74B0
34E0
1F80
ENDCHAR
STARTCHAR phi
ENCODING 966
SWIDTH 600 0
DWIDTH 7 0
BBX 7 8 0 -2
BITMAP
0700
2FD0
7770
A734
7770
2FD0
0700
0700
ENDCHAR
STARTCHAR chi
ENCODING 967
SWIDTH 600 0
DWIDTH 7 0
BBX 6 7 0 -2
BITMAP
74E0
2DD0
0F80
0B40
0FC0
2DE0
74B0
ENDCHAR
STARTCHAR psi
ENCODING 968
SWIDTH 600 0
DWIDTH 7 0
BBX 7 8 0 -2
BITMAP
0700
A770
A774
A734
B774
2FD0
0700
0700
ENDCHAR
STARTCHAR omega
ENCODING 969
SWIDTH 600 0
DWIDTH 7 0
BBX 7 5 0 0
BITMAP
74A0
B574
A774
B774
2EE0
ENDCHAR
STARTCHAR iotadieresis
ENCODING 970
SWIDTH 600 0
DWIDTH 7 0
BBX 6 8 0 0
BITMAP
25C0
29C0
0000
7F00
0B00
0A00
0B00
07E0
ENDCHAR
STARTCHAR upsilondieresis
ENCODING 971
SWIDTH 600 0
DWIDTH 7 0
BBX 6 8 0 0
BITMAP
29C0
29C0
0000
74A0
74B0
74B0
34E0
1F80
ENDCHAR
STARTCHAR omicrontonos
ENCODING 972
SWIDTH 600 0
DWIDTH 7 0
BBX 6 9 0 0
BITMAP
0340
0340
0700
0000
1F80
78E0
74B0
78E0
1F80
ENDCHAR
STARTCHAR upsilontonos
ENCODING 973
SWIDTH 600 0
DWIDTH 7 0
BBX 6 9 0 0
BITMAP
0340
0740
0600
0000
74A0
74B0
74B0
34E0
1F80
ENDCHAR
STARTCHAR omegatonos
ENCODING 974
SWIDTH 600 0
DWIDTH 7 0
BBX 7 9 0 0
BITMAP
0340
0340
0700
0000
74A0
B574
A774
B774
2EE0
ENDCHAR
STARTCHAR uni03D0
ENCODING 976
SWIDTH 600 0
DWIDTH 7 0
BBX 6 8 0 0
BITMAP
1F80
39D0
75D0
7FD0
78B0
3470
38B0
1B90
ENDCHAR
STARTCHAR uni03D1
ENCODING 977
SWIDTH 600 0
DWIDTH 7 0
BBX 6 8 0 0
BITMAP
2F80
74D0
74A0
1FF0
24B0
34B0
38E0
1F80
ENDCHAR
STARTCHAR uni03D5
ENCODING 981
SWIDTH 600 0
DWIDTH 7 0
BBX 7 8 0 -2
BITMAP
0700
2FD0
7770
A734
7770
2FD0
0700
0700
ENDCHAR
STARTCHAR uni03D7
ENCODING 983
SWIDTH 600 0
DWIDTH 7 0
BBX 5 7 1 -2
BITMAP
D280
EA40
FD00
EB40
D2C0
02C0
0740
ENDCHAR
STARTCHAR uni03D9
ENCODING 985
SWIDTH 600 0
DWIDTH 7 0
BBX 6 7 0 -2
BITMAP
1F80
74A0
74B0
74F0
1F90
0700
0700
ENDCHAR
STARTCHAR uni03DB
ENCODING 987
SWIDTH 600 0
DWIDTH 7 0
BBX 5 7 1 -2
BITMAP
6FC0
E000
E000
F400
6F40
0280
0240
ENDCHAR
STARTCHAR uni03DD
ENCODING 989
SWIDTH 600 0
DWIDTH 7 0
BBX 5 7 1 -2
BITMAP
BF80
A000
B540
BA40
A000
B000
B000
ENDCHAR
STARTCHAR uni03E1
ENCODING 993
SWIDTH 600 0
DWIDTH 7 0
BBX 6 10 0 -2
BITMAP
1800
1E00
0780
0BD0
7EE0
21F0
1FF0
09B0
00B0
0060
ENDCHAR
STARTCHAR uni0400
ENCODING 1024
SWIDTH 600 0
DWIDTH 7 0
BBX 5 10 1 0
BITMAP
2800
1900
0000
FF80
E000
E000
FF40
E000
E000
FFC0
ENDCHAR
STARTCHAR uni0401
ENCODING 1025
SWIDTH 600 0
DWIDTH 7 0
BBX 5 10 1 0
BITMAP
7240
7240
0000
FF80
E000
E000
FF40
E000
E000
FFC0
ENDCHAR
STARTCHAR uni0402
ENCODING 1026
SWIDTH 600 0
DWIDTH 7 0
BBX 7 7 0 0
BITMAP
BFC0
1D00
1D00
1FE0
1D70
1D74
1DE0
ENDCHAR
STARTCHAR uni0403
ENCODING 1027
SWIDTH 600 0
DWIDTH 7 0
BBX 5 10 1 0
BITMAP
0A00
2800
0000
BFC0
A000
A000
A000
A000
A000
A000
ENDCHAR
STARTCHAR uni0404
ENCODING 1028
SWIDTH 600 0
DWIDTH 7 0
BBX 6 7 0 0
BITMAP
0BE0
2C10
7400
7F80
7400
3810
0BE0
ENDCHAR
STARTCHAR uni0405
ENCODING 1029
SWIDTH 600 0
DWIDTH 7 0
BBX 5 7 1 0
BITMAP
6F40
E140
F400
7F40
07C0
92C0
BE40
ENDCHAR
STARTCHAR uni0406
ENCODING 1030
SWIDTH 600 0
DWIDTH 7 0
BBX 6 7 0 0
BITMAP
7FE0
0B00
0B00
0B00
0B00
0B00
7FE0
ENDCHAR
STARTCHAR uni0407
ENCODING 1031
SWIDTH 600 0
DWIDTH 7 0
BBX 6 10 0 0
BITMAP
28C0
28C0
0000
7FE0
0B00
0B00
0B00
0B00
0B00
7FE0
ENDCHAR
STARTCHAR uni0408
ENCODING 1032
SWIDTH 600 0
DWIDTH 7 0
BBX 5 7 1 0
BITMAP
BF80
0380
0380
0380
0380
8740
BE00
ENDCHAR
STARTCHAR uni0409
ENCODING 1033
SWIDTH 600 0
DWIDTH 7 0
BBX 7 7 0 0
BITMAP
3F40
3740
3740
37E0
7774
7774
D7E0
ENDCHAR
STARTCHAR uni040A
ENCODING 1034
SWIDTH 600 0
DWIDTH 7 0
BBX 7 7 0 0
BITMAP
A700
A700
A700
BFE0
A774
A774
A7E0
ENDCHAR
STARTCHAR uni040B
ENCODING 1035
SWIDTH 600 0
DWIDTH 7 0
BBX 7 7 0 0
BITMAP
BFC0
1D00
1D00
1FE0
1D74
1D74
1D74
ENDCHAR
STARTCHAR uni040C
ENCODING 1036
SWIDTH 600 0
DWIDTH 7 0
BBX 7 10 0 0
BITMAP
0180
0640
0000
74B4
75C0
7680
7F40
76C0
74E0
7474
ENDCHAR
STARTCHAR uni040D
ENCODING 1037
SWIDTH 600 0
DWIDTH 7 0
BBX 6 10 0 0
BITMAP
0900
0640
0000
74F0
75F0
77B0
7BB0
7AB0
7CB0
78B0
ENDCHAR
STARTCHAR uni040E
ENCODING 1038
SWIDTH 600 0
DWIDTH 7 0
BBX 7 10 0 0
BITMAP
1DD0
0B80
0000
B474
38A0
2DD0
0FC0
0B80
0B00
2D00
ENDCHAR
STARTCHAR uni040F
ENCODING 1039
SWIDTH 600 0
DWIDTH 7 0
BBX 6 9 0 -2
BITMAP
74B0
74B0
74B0
74B0
74B0
74B0
7FF0
0700
0700
ENDCHAR
STARTCHAR uni0410
ENCODING 1040
SWIDTH 600 0
DWIDTH 7 0
BBX 7 7 0 0
BITMAP
0F40
0E80
1DC0
28D0
3FE0
70B0
B074
ENDCHAR
STARTCHAR uni0411
ENCODING 1041
SWIDTH 600 0
DWIDTH 7 0
BBX 6 7 0 0
BITMAP
7FE0
7400
7400
7FD0
74B0
74B0
7FD0
ENDCHAR
STARTCHAR uni0412
ENCODING 1042
SWIDTH 600 0
DWIDTH 7 0
BBX 6 7 0 0
BITMAP
7F90
74E0
74E0
7FD0
74B0
74B0
7FD0
ENDCHAR
STARTCHAR uni0413
ENCODING 1043
SWIDTH 600 0
DWIDTH 7 0
BBX 5 7 1 0
BITMAP
BFC0
A000
A000
A000
A000
A000
A000
ENDCHAR
STARTCHAR uni0414
ENCODING 1044
SWIDTH 600 0
DWIDTH 7 0
BBX 7 9 0 -2
BITMAP
1FE0
1CE0
2CE0
28E0
38E0
74E0
FFF4
E034
A034
ENDCHAR
STARTCHAR uni0415
ENCODING 1045
SWIDTH 600 0
DWIDTH 7 0
BBX 5 7 1 0
BITMAP
FF80
E000
E000
FF40
E000
E000
FFC0
ENDCHAR
STARTCHAR uni0416
ENCODING 1046
SWIDTH 600 0
DWIDTH 7 0
BBX 7 7 0 0
BITMAP
E734
3760
3B90
2FD0
37A0
7770
A734
ENDCHAR
STARTCHAR uni0417
ENCODING 1047
SWIDTH 600 0
DWIDTH 7 0
BBX 5 7 1 0
BITMAP
BE00
4380
0380
2F40
02C0
82C0
BE40
ENDCHAR
STARTCHAR uni0418
ENCODING 1048
SWIDTH 600 0
DWIDTH 7 0
BBX 6 7 0 0
BITMAP
74F0
75F0
77B0
7BB0
7AB0
7CB0
78B0
ENDCHAR
STARTCHAR uni0419
ENCODING 1049
SWIDTH 600 0
DWIDTH 7 0
BBX 6 10 0 0
BITMAP
2DD0
0B80
0000
74F0
75F0
77B0
7BB0
7AB0
7CB0
78B0
ENDCHAR
STARTCHAR uni041A
ENCODING 1050
SWIDTH 600 0
DWIDTH 7 0
BBX 7 7 0 0
BITMAP
74B4
75C0
7680
7F40
76C0
74E0
7474
ENDCHAR
STARTCHAR uni041B
ENCODING 1051
SWIDTH 600 0
DWIDTH 7 0
BBX 6 7 0 0
BITMAP
0FF0
1DB0
1CB0
2CB0
28B0
34B0
E0B0
ENDCHAR
STARTCHAR uni041C
ENCODING 1052
SWIDTH 600 0
DWIDTH 7 0
BBX 6 7 0 0
BITMAP
74F0
78F0
7DB0
7BB0
7770
7070
7070
ENDCHAR
STARTCHAR uni041D
ENCODING 1053
SWIDTH 600 0
DWIDTH 7 0
BBX 6 7 0 0
BITMAP
74B0
74B0
74B0
7FF0
74B0
74B0
74B0
ENDCHAR
STARTCHAR uni041E
ENCODING 1054
SWIDTH 600 0
DWIDTH 7 0
BBX 6 7 0 0
BITMAP
1F80
38E0
74B0
B0B0
74B0
38E0
1F80
ENDCHAR
STARTCHAR uni041F
ENCODING 1055
SWIDTH 600 0
DWIDTH 7 0
BBX 6 7 0 0
BITMAP
7FF0
74B0
74B0
74B0
74B0
74B0
74B0
ENDCHAR
STARTCHAR uni0420
ENCODING 1056
SWIDTH 600 0
DWIDTH 7 0
BBX 6 7 0 0
BITMAP
7F90
74B0
7470
74B0
7F90
7400
7400
ENDCHAR
STARTCHAR uni0421
ENCODING 1057
SWIDTH 600 0
DWIDTH 7 0
BBX 6 7 0 0
BITMAP
0BE0
2C10
7400
7400
7400
2C10
0BE0
ENDCHAR
STARTCHAR uni0422
ENCODING 1058
SWIDTH 600 0
DWIDTH 7 0
BBX 7 7 0 0
BITMAP
BFF4
0B00
0B00
0B00
0B00
0B00
0B00
ENDCHAR
STARTCHAR uni0423
ENCODING 1059
SWIDTH 600 0
DWIDTH 7 0
BBX 7 7 0 0
BITMAP
B474
38A0
2DD0
0FC0
0B80
0B00
2D00
ENDCHAR
STARTCHAR uni0424
ENCODING 1060
SWIDTH 600 0
DWIDTH 7 0
BBX 7 7 0 0
BITMAP
0700
2FD0
B774
A734
B774
2FD0
0700
ENDCHAR
STARTCHAR uni0425
ENCODING 1061
SWIDTH 600 0
DWIDTH 7 0
BBX 6 7 0 0
BITMAP
74B0
2DD0
1FC0
0F40
1EC0
39E0
B4B0
ENDCHAR
STARTCHAR uni0426
ENCODING 1062
SWIDTH 600 0
DWIDTH 7 0
BBX 7 9 0 -2
BITMAP
74B0
74B0
74B0
74B0
74B0
74B0
7FF8
0028
0028
ENDCHAR
STARTCHAR uni0427
ENCODING 1063
SWIDTH 600 0
DWIDTH 7 0
BBX 6 7 0 0
BITMAP
B0B0
70B0
74B0
2FF0
00B0
00B0
00B0
ENDCHAR
STARTCHAR uni0428
ENCODING 1064
SWIDTH 600 0
DWIDTH 7 0
BBX 7 7 0 0
BITMAP
A774
A774
A774
A774
A774
A774
BFF4
ENDCHAR
STARTCHAR uni0429
ENCODING 1065
SWIDTH 600 0
DWIDTH 7 0
BBX 7 9 0 -2
BITMAP
A670
A670
A670
A670
A670
A670
BFF8
0028
0028
ENDCHAR
STARTCHAR uni042A
ENCODING 1066
SWIDTH 600 0
DWIDTH 7 0
BBX 6 7 0 0
BITMAP
BD00
1D00
1D00
1FD0
1D70
1D70
1FD0
ENDCHAR
STARTCHAR uni042B
ENCODING 1067
SWIDTH 600 0
DWIDTH 7 0
BBX 7 7 0 0
BITMAP
A074
A074
A074
BE74
A774
A774
BD74
ENDCHAR
STARTCHAR uni042C
ENCODING 1068
SWIDTH 600 0
DWIDTH 7 0
BBX 6 7 0 0
BITMAP
7400
7400
7400
7FD0
74B0
74B0
7FD0
ENDCHAR
STARTCHAR uni042D
ENCODING 1069
SWIDTH 600 0
DWIDTH 7 0
BBX 6 7 0 0
BITMAP
6F40
11D0
00A0
0FF0
00B0
11D0
6F40
ENDCHAR
STARTCHAR uni042E
ENCODING 1070
SWIDTH 600 0
DWIDTH 7 0
BBX 7 7 0 0
BITMAP
A2D0
A770
AA74
BE74
AA74
A770
A2D0
ENDCHAR
STARTCHAR uni042F
ENCODING 1071
SWIDTH 600 0
DWIDTH 7 0
BBX 6 7 0 0
BITMAP
2FF0
74B0
74B0
2FF0
2DB0
38B0
B0B0
ENDCHAR
STARTCHAR uni0430
ENCODING 1072
SWIDTH 600 0
DWIDTH 7 0
BBX 6 5 0 0
BITMAP
2F90
10E0
1BF0
78B0
2EB0
ENDCHAR
STARTCHAR uni0431
ENCODING 1073
SWIDTH 600 0
DWIDTH 7 0
BBX 6 8 0 0
BITMAP
06A0
1E40
3800
7BD0
74E0
74B0
38E0
1B80
ENDCHAR
STARTCHAR uni0432
ENCODING 1074
SWIDTH 600 0
DWIDTH 7 0
BBX 5 5 1 0
BITMAP
FF40
E380
FF40
E2C0
FF40
ENDCHAR
STARTCHAR uni0433
ENCODING 1075
SWIDTH 600 0
DWIDTH 7 0
BBX 5 5 1 0
BITMAP
BF80
B000
B000
B000
B000
ENDCHAR
STARTCHAR uni0434
ENCODING 1076
SWIDTH 600 0
DWIDTH 7 0
BBX 7 7 0 -2
BITMAP
2FE0
28E0
38E0
34E0
BFF4
A034
A034
ENDCHAR
STARTCHAR uni0435
ENCODING 1077
SWIDTH 600 0
DWIDTH 7 0
BBX 6 5 0 0
BITMAP
1B90
38A0
7FF0
3800
1BD0
ENDCHAR
STARTCHAR uni0436
ENCODING 1078
SWIDTH 600 0
DWIDTH 7 0
BBX 7 5 0 0
BITMAP
A734
37A0
3FD0
7770
A734
ENDCHAR
STARTCHAR uni0437
ENCODING 1079
SWIDTH 600 0
DWIDTH 7 0
BBX 6 5 0 0
BITMAP
2F90
10E0
0FD0
10B0
6F90
ENDCHAR
STARTCHAR uni0438
ENCODING 1080
SWIDTH 600 0
DWIDTH 7 0
BBX 6 5 0 0
BITMAP
74E0
76E0
7BA0
7DA0
78A0
ENDCHAR
STARTCHAR uni0439
ENCODING 1081
SWIDTH 600 0
DWIDTH 7 0
BBX 6 8 0 0
BITMAP
1CD0
0B80
0000
74E0
76E0
7BA0
7DA0
78A0
ENDCHAR
STARTCHAR uni043A
ENCODING 1082
SWIDTH 600 0
DWIDTH 7 0
BBX 5 5 1 0
BITMAP
D2C0
D700
FE00
D740
D2C0
ENDCHAR
STARTCHAR uni043B
ENCODING 1083
SWIDTH 600 0
DWIDTH 7 0
BBX 6 5 0 0
BITMAP
1FE0
2CE0
28E0
38E0
B0E0
ENDCHAR
STARTCHAR uni043C
ENCODING 1084
SWIDTH 600 0
DWIDTH 7 0
BBX 7 5 0 0
BITMAP
B4F4
BDF4
AEB4
AB74
B174
ENDCHAR
STARTCHAR uni043D
ENCODING 1085
SWIDTH 600 0
DWIDTH 7 0
BBX 6 5 0 0
BITMAP
74A0
74A0
7FE0
74A0
74A0
ENDCHAR
STARTCHAR uni043E
ENCODING 1086
SWIDTH 600 0
DWIDTH 7 0
BBX 6 5 0 0
BITMAP
1F80
74E0
74B0
74E0
1F80
ENDCHAR
STARTCHAR uni043F
ENCODING 1087
SWIDTH 600 0
DWIDTH 7 0
BBX 6 5 0 0
BITMAP
7FE0
74A0
74A0
74A0
74A0
ENDCHAR
STARTCHAR uni0440
ENCODING 1088
SWIDTH 600 0
DWIDTH 7 0
BBX 6 7 0 -2
BITMAP
7BD0
78B0
74B0
78A0
7B90
7400
7400
ENDCHAR
STARTCHAR uni0441
ENCODING 1089
SWIDTH 600 0
DWIDTH 7 0
BBX 6 5 0 0
BITMAP
1BE0
3800
7400
3810
1BE0
ENDCHAR
STARTCHAR uni0442
ENCODING 1090
SWIDTH 600 0
DWIDTH 7 0
BBX 6 5 0 0
BITMAP
7FF0
0B00
0B00
0B00
0B00
ENDCHAR
STARTCHAR uni0443
ENCODING 1091
SWIDTH 600 0
DWIDTH 7 0
BBX 6 7 0 -2
BITMAP
7070
38A0
1DD0
0E80
0740
0B00
3900
ENDCHAR
STARTCHAR uni0444
ENCODING 1092
SWIDTH 600 0
DWIDTH 7 0
BBX 7 10 0 -2
BITMAP
0700
0700
0700
3FE0
A774
A734
A774
7FE0
0700
0700
ENDCHAR
STARTCHAR uni0445
ENCODING 1093
SWIDTH 600 0
DWIDTH 7 0
BBX 6 5 0 0
BITMAP
38E0
1EC0
0F40
2EC0
74E0
ENDCHAR
STARTCHAR uni0446
ENCODING 1094
SWIDTH 600 0
DWIDTH 7 0
BBX 7 7 0 -2
BITMAP
74E0
74E0
74E0
74E0
7FF4
0034
0034
ENDCHAR
STARTCHAR uni0447
ENCODING 1095
SWIDTH 600 0
DWIDTH 7 0
BBX 6 5 0 0
BITMAP
74E0
74E0
2FE0
00E0
00E0
ENDCHAR
STARTCHAR uni0448
ENCODING 1096
SWIDTH 600 0
DWIDTH 7 0
BBX 7 5 0 0
BITMAP
B774
B774
B774
B774
BFF4
ENDCHAR
STARTCHAR uni0449
ENCODING 1097
SWIDTH 600 0
DWIDTH 7 0
BBX 7 7 0 -2
BITMAP
A770
A770
A770
A770
BFF8
0028
0028
ENDCHAR
STARTCHAR uni044A
ENCODING 1098
SWIDTH 600 0
DWIDTH 7 0
BBX 6 5 0 0
BITMAP
BD00
1D00
1FE0
1DB0
1FE0
ENDCHAR
STARTCHAR uni044B
ENCODING 1099
SWIDTH 600 0
DWIDTH 7 0
BBX 7 5 0 0
BITMAP
B074
B074
BE74
B774
BE74
ENDCHAR
STARTCHAR uni044C
ENCODING 1100
SWIDTH 600 0
DWIDTH 7 0
BBX 5 5 1 0
BITMAP
E000
E000
FF80
E2C0
FF80
ENDCHAR
STARTCHAR uni044D
ENCODING 1101
SWIDTH 600 0
DWIDTH 7 0
BBX 5 5 1 0
BITMAP
BE00
4780
3F80
4780
BE00
ENDCHAR
STARTCHAR uni044E
ENCODING 1102
SWIDTH 600 0
DWIDTH 7 0
BBX 7 5 0 0
BITMAP
B2E0
B674
BE74
B674
B2E0
ENDCHAR
STARTCHAR uni044F
ENCODING 1103
SWIDTH 600 0
DWIDTH 7 0
BBX 6 5 0 0
BITMAP
2FE0
78A0
2FE0
2CA0
74A0
ENDCHAR
STARTCHAR uni0450
ENCODING 1104
SWIDTH 600 0
DWIDTH 7 0
BBX 6 9 0 0
BITMAP
0800
1E00
0200
0000
1B90
38A0
7FF0
3800
1BD0
ENDCHAR
STARTCHAR uni0451
ENCODING 1105
SWIDTH 600 0
DWIDTH 7 0
BBX 6 8 0 0
BITMAP
1CD0
1CD0
0000
1B90
38A0
7FF0
3800
1BD0
ENDCHAR
STARTCHAR uni0452
ENCODING 1106
SWIDTH 600 0
DWIDTH 7 0
BBX 6 10 0 -2
BITMAP
7400
FF40
7400
7BD0
78E0
74B0
74B0
74B0
00E0
0780
ENDCHAR
STARTCHAR uni0453
ENCODING 1107
SWIDTH 600 0
DWIDTH 7 0
BBX 5 9 1 0
BITMAP
0200
0B40
0900
0000
BF80
B000
B000
B000
B000
ENDCHAR
STARTCHAR uni0454
ENCODING 1108
SWIDTH 600 0
DWIDTH 7 0
BBX 6 5 0 0
BITMAP
1BE0
3800
7F80
3810
1BE0
ENDCHAR
STARTCHAR uni0455
ENCODING 1109
SWIDTH 600 0
DWIDTH 7 0
BBX 5 5 1 0
BITMAP
7E40
E500
7F40
43C0
BF40
ENDCHAR
STARTCHAR uni0456
ENCODING 1110
SWIDTH 600 0
DWIDTH 7 0
BBX 4 8 1 0
BITMAP
0E
0E
00
FE
0E
0E
0E
0E
ENDCHAR
STARTCHAR uni0457
ENCODING 1111
SWIDTH 600 0
DWIDTH 7 0
BBX 5 8 1 0
BITMAP
3680
3680
0000
FE00
0E00
0E00
0E00
0E00
ENDCHAR
STARTCHAR uni0458
ENCODING 1112
SWIDTH 600 0
DWIDTH 7 0
BBX 5 10 0 -2
BITMAP
0380
0380
0000
3F80
0380
0380
0380
0380
0380
7E00
ENDCHAR
STARTCHAR uni0459
ENCODING 1113
SWIDTH 600 0
DWIDTH 7 0
BBX 7 5 0 0
BITMAP
3F40
3740
37E0
7774
E7E0
ENDCHAR
STARTCHAR uni045A
ENCODING 1114
SWIDTH 600 0
DWIDTH 7 0
BBX 7 5 0 0
BITMAP
B700
B700
BFE0
BB74
B7E0
ENDCHAR
STARTCHAR uni045B
ENCODING 1115
SWIDTH 600 0
DWIDTH 7 0
BBX 6 8 0 0
BITMAP
7400
FF40
7400
7BD0
78B0
74B0
74B0
74B0
ENDCHAR
STARTCHAR uni045C
ENCODING 1116
SWIDTH 600 0
DWIDTH 7 0
BBX 5 9 1 0
BITMAP
0200
0B00
0800
0000
D2C0
D700
FE00
D740
D2C0
ENDCHAR
STARTCHAR uni045D
ENCODING 1117
SWIDTH 600 0
DWIDTH 7 0
BBX 6 9 0 0
BITMAP
0800
0E00
0200
0000
74E0
76E0
7BA0
7DA0
78A0
ENDCHAR
STARTCHAR uni045E
ENCODING 1118
SWIDTH 600 0
DWIDTH 7 0
BBX 6 10 0 -2
BITMAP
1CD0
0B80
0000
7070
38A0
1DD0
0E80
0740
0B00
3900
ENDCHAR
STARTCHAR uni045F
ENCODING 1119
SWIDTH 600 0
DWIDTH 7 0
BBX 6 7 0 -2
BITMAP
74E0
74E0
74E0
74E0
7FE0
0740
0700
ENDCHAR
STARTCHAR uni0462
ENCODING 1122
SWIDTH 600 0
DWIDTH 7 0
BBX 7 7 0 0
BITMAP
2C00
FFD0
2C00
2FD0
2C74
2CB0
2FD0
ENDCHAR
STARTCHAR uni0463
ENCODING 1123
SWIDTH 600 0
DWIDTH 7 0
BBX 6 6 0 0
BITMAP
1D00
BFC0
1D00
1FE0
1DB0
1FE0
ENDCHAR
STARTCHAR uni0472
ENCODING 1138
SWIDTH 600 0
DWIDTH 7 0
BBX 6 7 0 0
BITMAP
1F80
38E0
70B0
BFF0
70B0
38E0
1F80
ENDCHAR
STARTCHAR uni0473
ENCODING 1139
SWIDTH 600 0
DWIDTH 7 0
BBX 6 5 0 0
BITMAP
1F80
74A0
7FF0
74A0
1F80
ENDCHAR
STARTCHAR uni0474
ENCODING 1140
SWIDTH 600 0
DWIDTH 7 0
BBX 7 7 0 0
BITMAP
B078
74A0
34D0
39C0
2EC0
1F80
0F40
ENDCHAR
STARTCHAR uni0475
ENCODING 1141
SWIDTH 600 0
DWIDTH 7 0
BBX 7 5 0 0
BITMAP
7474
38D0
2DC0
1E80
0F40
ENDCHAR
STARTCHAR uni0490
ENCODING 1168
SWIDTH 600 0
DWIDTH 7 0
BBX 5 9 1 0
BITMAP
02C0
02C0
BFC0
A000
A000
A000
A000
A000
A000
ENDCHAR
STARTCHAR uni0491
ENCODING 1169
SWIDTH 600 0
DWIDTH 7 0
BBX 5 7 1 0
BITMAP
0280
0280
BF80
B000
B000
B000
B000
ENDCHAR
STARTCHAR uni0492
ENCODING 1170
SWIDTH 600 0
DWIDTH 7 0
BBX 6 7 0 0
BITMAP
2FF0
2C00
2C00
7F80
2C00
2C00
2C00
ENDCHAR
STARTCHAR uni0493
ENCODING 1171
SWIDTH 600 0
DWIDTH 7 0
BBX 6 5 0 0
BITMAP
2FE0
2C00
7F80
2C00
2C00
ENDCHAR
STARTCHAR uni0496
ENCODING 1174
SWIDTH 600 0
DWIDTH 7 0
BBX 7 9 0 -2
BITMAP
E734
3760
3B90
2FD0
37A0
7770
A738
0018
0018
ENDCHAR
STARTCHAR uni0497
ENCODING 1175
SWIDTH 600 0
DWIDTH 7 0
BBX 7 7 0 -2
BITMAP
A734
37A0
3FD0
7760
A738
0028
0028
ENDCHAR
STARTCHAR uni0498
ENCODING 1176
SWIDTH 600 0
DWIDTH 7 0
BBX 6 9 0 -2
BITMAP
2F80
10E0
00E0
0BD0
00B0
20B0
6FD0
0700
0700
ENDCHAR
STARTCHAR uni0499
ENCODING 1177
SWIDTH 600 0
DWIDTH 7 0
BBX 6 7 0 -2
BITMAP
2F90
10E0
0FD0
10B0
6FD0
0B00
0B00
ENDCHAR
STARTCHAR uni049A
ENCODING 1178
SWIDTH 600 0
DWIDTH 7 0
BBX 7 9 0 -2
BITMAP
74B4
75C0
7680
7F40
76C0
74D0
7478
0028
0028
ENDCHAR
STARTCHAR uni049B
ENCODING 1179
SWIDTH 600 0
DWIDTH 7 0
BBX 6 7 1 -2
BITMAP
D2C0
D700
FE00
D740
D2E0
0090
0090
ENDCHAR
STARTCHAR uni04A0
ENCODING 1184
SWIDTH 600 0
DWIDTH 7 0
BBX 7 7 0 0
BITMAP
BD34
0DA0
0DD0
0FC0
0DD0
0D70
0D34
ENDCHAR
STARTCHAR uni04A1
ENCODING 1185
SWIDTH 600 0
DWIDTH 7 0
BBX 7 5 0 0
BITMAP
BD70
0DD0
0FC0
0DA0
0D74
ENDCHAR
STARTCHAR uni04A2
ENCODING 1186
SWIDTH 600 0
DWIDTH 7 0
BBX 7 9 0 -2
BITMAP
74B0
74B0
74B0
7FF0
74B0
74B0
74B8
0028
0028
ENDCHAR
STARTCHAR uni04A3
ENCODING 1187
SWIDTH 600 0
DWIDTH 7 0
BBX 7 7 0 -2
BITMAP
74E0
74E0
7FE0
74E0
74F4
0034
0034
ENDCHAR
STARTCHAR uni04AA
ENCODING 1194
SWIDTH 600 0
DWIDTH 7 0
BBX 6 9 0 -2
BITMAP
0BE0
2C10
7400
7400
7400
3C10
0BE0
0280
0280
ENDCHAR
STARTCHAR uni04AB
ENCODING 1195
SWIDTH 600 0
DWIDTH 7 0
BBX 6 7 0 -2
BITMAP
1BE0
3800
7400
3810
1FE0
0380
0340
ENDCHAR
STARTCHAR uni04AE
ENCODING 1198
SWIDTH 600 0
DWIDTH 7 0
BBX 7 7 0 0
BITMAP
B074
38E0
2DD0
0F80
0B40
0B00
0B00
ENDCHAR
STARTCHAR uni04AF
ENCODING 1199
SWIDTH 600 0
DWIDTH 7 0
BBX 6 7 0 -2
BITMAP
7070
38E0
2DD0
1EC0
0B40
0700
0700
ENDCHAR
STARTCHAR uni04B0
ENCODING 1200
SWIDTH 600 0
DWIDTH 7 0
BBX 7 7 0 0
BITMAP
B074
38E0
2DD0
0F80
3FE0
0B00
0B00
ENDCHAR
STARTCHAR uni04B1
ENCODING 1201
SWIDTH 600 0
DWIDTH 7 0
BBX 6 7 0 -2
BITMAP
7070
38E0
1DC0
0E80
3FE0
0700
0700
ENDCHAR
STARTCHAR uni04B2
ENCODING 1202
SWIDTH 600 0
DWIDTH 7 0
BBX 7 9 0 -2
BITMAP
74B0
2DD0
1FC0
0F40
1EC0
39D0
B4B8
0028
0024
ENDCHAR
STARTCHAR uni04B3
ENCODING 1203
SWIDTH 600 0
DWIDTH 7 0
BBX 7 7 0 -2
BITMAP
38E0
1EC0
0F40
2EC0
74F4
0074
0074
ENDCHAR
STARTCHAR uni04B6
ENCODING 1206
SWIDTH 600 0
DWIDTH 7 0
BBX 7 9 0 -2
BITMAP
B0A0
B0A0
74A0
2FE0
00A0
00A0
00B8
0038
0038
ENDCHAR
STARTCHAR uni04B7
ENCODING 1207
SWIDTH 600 0
DWIDTH 7 0
BBX 7 7 0 -2
BITMAP
74E0
74E0
2FE0
00E0
00F4
0034
0034
ENDCHAR
STARTCHAR uni04BA
ENCODING 1210
SWIDTH 600 0
DWIDTH 7 0
BBX 6 7 0 0
BITMAP
7400
7400
7400
7FD0
74B0
7470
7470
ENDCHAR
STARTCHAR uni04BB
ENCODING 1211
SWIDTH 600 0
DWIDTH 7 0
BBX 6 8 0 0
BITMAP
7400
7400
7400
7BD0
78B0
74B0
74B0
74B0
ENDCHAR
STARTCHAR uni04C0
ENCODING 1216
SWIDTH 600 0
DWIDTH 7 0
BBX 6 7 0 0
BITMAP
7FE0
0B00
0B00
0B00
0B00
0B00
7FE0
ENDCHAR
STARTCHAR uni04C1
ENCODING 1217
SWIDTH 600 0
DWIDTH 7 0
BBX 7 10 0 0
BITMAP
2DD0
0F80
0000
E734
3760
3B90
2FD0
37A0
7770
A734
ENDCHAR
STARTCHAR uni04C2
ENCODING 1218
SWIDTH 600 0
DWIDTH 7 0
BBX 7 8 0 0
BITMAP
29C0
0B80
0000
A734
37A0
3FD0
7770
A734
ENDCHAR
STARTCHAR uni04CF
ENCODING 1231
SWIDTH 600 0
DWIDTH 7 0
BBX 6 8 0 0
BITMAP
7F00
0B00
0B00
0B00
0B00
0B00
0B00
02E0
ENDCHAR
STARTCHAR uni04D0
ENCODING 1232
SWIDTH 600 0
DWIDTH 7 0
BBX 7 10 0 0
BITMAP
2DD0
0F80
0000
0F40
0E80
1DC0
28D0
3FE0
70B0
B074
ENDCHAR
STARTCHAR uni04D1
ENCODING 1233
SWIDTH 600 0
DWIDTH 7 0
BBX 6 8 0 0
BITMAP
1CD0
0B80
0000
2F90
10E0
1BF0
78B0
2EB0
ENDCHAR
STARTCHAR uni04D4
ENCODING 1236
SWIDTH 600 0
DWIDTH 7 0
BBX 7 7 0 0
BITMAP
0BF4
0FC0
1EC0
3AF0
7FC0
B2C0
E2F8
ENDCHAR
STARTCHAR uni04D5
ENCODING 1237
SWIDTH 600 0
DWIDTH 7 0
BBX 7 5 0 0
BITMAP
7EE0
0734
6FF4
A740
7AF0
ENDCHAR
STARTCHAR uni04D6
ENCODING 1238
SWIDTH 600 0
DWIDTH 7 0
BBX 5 10 1 0
BITMAP
7340
2E00
0000
FF80
E000
E000
FF40
E000
E000
FFC0
ENDCHAR
STARTCHAR uni04D7
ENCODING 1239
SWIDTH 600 0
DWIDTH 7 0
BBX 6 8 0 0
BITMAP
1CD0
0B80
0000
1B90
38A0
7FF0
3800
1BD0
ENDCHAR
STARTCHAR uni04D8
ENCODING 1240
SWIDTH 600 0
DWIDTH 7 0
BBX 6 7 0 0
BITMAP
1F80
04E0
00B0
7FF0
74B0
38E0
1B80
ENDCHAR
STARTCHAR uni04D9
ENCODING 1241
SWIDTH 600 0
DWIDTH 7 0
BBX 6 5 0 0
BITMAP
2F80
10E0
7FF0
74A0
1F80
ENDCHAR
STARTCHAR uni04E2
ENCODING 1250
SWIDTH 600 0
DWIDTH 7 0
BBX 6 9 0 0
BITMAP
1FC0
0000
74F0
75F0
77B0
7BB0
7AB0
7CB0
78B0
ENDCHAR
STARTCHAR uni04E3
ENCODING 1251
SWIDTH 600 0
DWIDTH 7 0
BBX 6 8 0 0
BITMAP
0FC0
0000
0000
74E0
76E0
7BA0
7DA0
78A0
ENDCHAR
STARTCHAR uni04E6
ENCODING 1254
SWIDTH 600 0
DWIDTH 7 0
BBX 6 10 0 0
BITMAP
28C0
28C0
0000
1F80
38E0
74B0
B0B0
74B0
38E0
1F80
ENDCHAR
STARTCHAR uni04E7
ENCODING 1255
SWIDTH 600 0
DWIDTH 7 0
BBX 6 8 0 0
BITMAP
29D0
29D0
0000
1F80
74E0
74B0
74E0
1F80
ENDCHAR
STARTCHAR uni04E8
ENCODING 1256
SWIDTH 600 0
DWIDTH 7 0
BBX 6 7 0 0
BITMAP
1F80
38E0
70B0
BFF0
70B0
38E0
1F80
ENDCHAR
STARTCHAR uni04E9
ENCODING 1257
SWIDTH 600 0
DWIDTH 7 0
BBX 6 5 0 0
BITMAP
1F80
74A0
7FF0
74A0
1F80
ENDCHAR
STARTCHAR uni04EE
ENCODING 1262
SWIDTH 600 0
DWIDTH 7 0
BBX 7 9 0 0
BITMAP
1FC0
0000
B474
38A0
2DD0
0FC0
0B80
0B00
2D00
ENDCHAR
STARTCHAR uni04EF
ENCODING 1263
SWIDTH 600 0
DWIDTH 7 0
BBX 6 10 0 -2
BITMAP
1FC0
0000
0000
7070
38A0
1DD0
0E80
0740
0B00
3900
ENDCHAR
STARTCHAR uni04F2
ENCODING 1266
SWIDTH 600 0
DWIDTH 7 0
BBX 7 10 0 0
BITMAP
0660
0990
0000
B474
38A0
2DD0
0FC0
0B80
0B00
2D00
ENDCHAR
STARTCHAR uni04F3
ENCODING 1267
SWIDTH 600 0
DWIDTH 7 0
BBX 6 10 0 -2
BITMAP
0660
0990
0000
7070
38A0
1DD0
0E80
0740
0B00
3900
ENDCHAR
STARTCHAR a.sups
ENCODING 7491
SWIDTH 600 0
DWIDTH 7 0
BBX 4 4 1 4
BITMAP
2E
07
2F
7B
ENDCHAR
STARTCHAR b.sups
ENCODING 7495
SWIDTH 600 0
DWIDTH 7 0
BBX 5 6 1 4
BITMAP
1000
7000
7E00
7340
7300
7E00
ENDCHAR
STARTCHAR d.sups
ENCODING 7496
SWIDTH 600 0
DWIDTH 7 0
BBX 4 6 1 4
BITMAP
01
03
3F
A7
A7
3B
ENDCHAR
STARTCHAR e.sups
ENCODING 7497
SWIDTH 600 0
DWIDTH 7 0
BBX 4 4 1 4
BITMAP
2D
63
7F
2E
ENDCHAR
STARTCHAR g.sups
ENCODING 7501
SWIDTH 600 0
DWIDTH 7 0
BBX 5 6 1 2
BITMAP
2F40
6600
7D00
3F00
6340
7E00
ENDCHAR
STARTCHAR k.sups
ENCODING 7503
SWIDTH 600 0
DWIDTH 7 0
BBX 5 6 1 4
BITMAP
1000
7000
7700
7D00
7A00
2240
ENDCHAR
STARTCHAR m.sups
ENCODING 7504
SWIDTH 600 0
DWIDTH 7 0
BBX 6 4 0 4
BITMAP
6EE0
6770
6730
6620
ENDCHAR
STARTCHAR o.sups
ENCODING 7506
SWIDTH 600 0
DWIDTH 7 0
BBX 4 4 1 4
BITMAP
2D
67
67
2D
ENDCHAR
STARTCHAR p.sups
ENCODING 7510
SWIDTH 600 0
DWIDTH 7 0
BBX 5 5 1 3
BITMAP
7E00
7340
7300
7E00
7000
ENDCHAR
STARTCHAR t.sups
ENCODING 7511
SWIDTH 600 0
DWIDTH 7 0
BBX 4 5 1 4
BITMAP
18
7F
28
28
1F
ENDCHAR
STARTCHAR u.sups
ENCODING 7512
SWIDTH 600 0
DWIDTH 7 0
BBX 4 4 1 4
BITMAP
63
63
67
3B
ENDCHAR
STARTCHAR v.sups
ENCODING 7515
SWIDTH 600 0
DWIDTH 7 0
BBX 4 4 1 4
BITMAP
A3
76
39
2C
ENDCHAR
STARTCHAR c.sups
ENCODING 7580
SWIDTH 600 0
DWIDTH 7 0
BBX 3 4 2 4
BITMAP
78
D0
D0
78
ENDCHAR
STARTCHAR f.sups
ENCODING 7584
SWIDTH 600 0
DWIDTH 7 0
BBX 4 5 2 4
BITMAP
2D
FD
70
70
20
ENDCHAR
STARTCHAR z.sups
ENCODING 7611
SWIDTH 600 0
DWIDTH 7 0
BBX 4 4 1 4
BITMAP
3F
0D
28
7F
ENDCHAR
STARTCHAR uni1E06
ENCODING 7686
SWIDTH 600 0
DWIDTH 7 0
BBX 6 9 0 -2
BITMAP
7F90
74E0
74E0
7FD0
74B0
74B0
7FD0
0000
1FC0
ENDCHAR
STARTCHAR uni1E07
ENCODING 7687
SWIDTH 600 0
DWIDTH 7 0
BBX 6 10 0 -2
BITMAP
7400
7400
7400
7BD0
78B0
74B0
78A0
7B90
0000
1FC0
ENDCHAR
STARTCHAR uni1E0C
ENCODING 7692
SWIDTH 600 0
DWIDTH 7 0
BBX 6 10 0 -3
BITMAP
7F80
75E0
74B0
7470
74B0
75E0
7F80
0000
0B40
0B40
ENDCHAR
STARTCHAR uni1E0D
ENCODING 7693
SWIDTH 600 0
DWIDTH 7 0
BBX 6 11 0 -3
BITMAP
00A0
00A0
00A0
1FE0
74E0
74A0
74E0
2EA0
0000
0740
0740
ENDCHAR
STARTCHAR uni1E0E
ENCODING 7694
SWIDTH 600 0
DWIDTH 7 0
BBX 6 9 0 -2
BITMAP
7F80
75E0
74B0
7470
74B0
75E0
7F80
0000
1FC0
ENDCHAR
STARTCHAR uni1E0F
ENCODING 7695
SWIDTH 600 0
DWIDTH 7 0
BBX 6 10 0 -2
BITMAP
00A0
00A0
00A0
1FE0
74E0
74A0
74E0
2EA0
0000
1FC0
ENDCHAR
STARTCHAR uni1E10
ENCODING 7696
SWIDTH 600 0
DWIDTH 7 0
BBX 6 11 0 -4
BITMAP
7F80
75E0
74B0
7470
74B0
75E0
7F80
0500
0B00
0700
0E00
ENDCHAR
STARTCHAR uni1E11
ENCODING 7697
SWIDTH 600 0
DWIDTH 7 0
BBX 6 12 0 -4
BITMAP
00A0
00A0
00A0
1FE0
74E0
74A0
74E0
2EA0
0500
0A00
0700
0D00
ENDCHAR
STARTCHAR uni1E16
ENCODING 7702
SWIDTH 600 0
DWIDTH 7 0
BBX 5 12 1 0
BITMAP
0600
0900
0000
3F40
0000
FF80
E000
E000
FF40
E000
E000
FFC0
ENDCHAR
STARTCHAR uni1E17
ENCODING 7703
SWIDTH 600 0
DWIDTH 7 0
BBX 6 11 0 0
BITMAP
0180
0600
0000
1FC0
0000
0000
1B90
38A0
7FF0
3800
1BD0
ENDCHAR
STARTCHAR uni1E20
ENCODING 7712
SWIDTH 600 0
DWIDTH 7 0
BBX 6 9 0 0
BITMAP
0FD0
0000
0BD0
3840
7400
75F0
7470
38B0
1BD0
ENDCHAR
STARTCHAR uni1E21
ENCODING 7713
SWIDTH 600 0
DWIDTH 7 0
BBX 7 10 0 -2
BITMAP
1FC0
0000
0000
1FF4
39D0
3EC0
3900
3FE0
70B4
2F90
ENDCHAR
STARTCHAR uni1E24
ENCODING 7716
SWIDTH 600 0
DWIDTH 7 0
BBX 6 10 0 -3
BITMAP
74B0
74B0
74B0
7FF0
74B0
74B0
74B0
0000
0B40
0B40
ENDCHAR
STARTCHAR uni1E25
ENCODING 7717
SWIDTH 600 0
DWIDTH 7 0
BBX 6 11 0 -3
BITMAP
7400
7400
7400
7BD0
78B0
74B0
74B0
74B0
0000
0740
0740
ENDCHAR
STARTCHAR uni1E26
ENCODING 7718
SWIDTH 600 0
DWIDTH 7 0
BBX 6 10 0 0
BITMAP
28C0
28C0
0000
74B0
74B0
74B0
7FF0
74B0
74B0
74B0
ENDCHAR
STARTCHAR uni1E27
ENCODING 7719
SWIDTH 600 0
DWIDTH 7 0
BBX 7 11 -1 0
BITMAP
7240
7240
0000
1D00
1D00
1D00
1EF4
1E2C
1D2C
1D2C
1D2C
ENDCHAR
STARTCHAR uni1E28
ENCODING 7720
SWIDTH 600 0
DWIDTH 7 0
BBX 6 11 0 -4
BITMAP
74B0
74B0
74B0
7FF0
74B0
74B0
74B0
3000
7400
2800
A000
ENDCHAR
STARTCHAR uni1E29
ENCODING 7721
SWIDTH 600 0
DWIDTH 7 0
BBX 6 12 0 -4
BITMAP
7400
7400
7400
7BD0
78B0
74B0
74B0
74B0
3000
7400
2800
A400
ENDCHAR
STARTCHAR uni1E2A
ENCODING 7722
SWIDTH 600 0
DWIDTH 7 0
BBX 6 10 0 -3
BITMAP
74B0
74B0
74B0
7FF0
74B0
74B0
74B0
0000
18C0
0B80
ENDCHAR
STARTCHAR uni1E2B
ENCODING 7723
SWIDTH 600 0
DWIDTH 7 0
BBX 6 11 0 -3
BITMAP
7400
7400
7400
7BD0
78B0
74B0
74B0
74B0
0000
18C0
0B80
ENDCHAR
STARTCHAR uni1E32
ENCODING 7730
SWIDTH 600 0
DWIDTH 7 0
BBX 7 10 0 -3
BITMAP
74B0
76D0
7B40
7F80
7AC0
74E0
74B4
0000
0740
0740
ENDCHAR
STARTCHAR uni1E33
ENCODING 7731
SWIDTH 600 0
DWIDTH 7 0
BBX 5 11 1 -3
BITMAP
D000
D000
D000
D780
ED00
FE00
E740
D2C0
0000
1D00
1D00
ENDCHAR
STARTCHAR uni1E34
ENCODING 7732
SWIDTH 600 0
DWIDTH 7 0
BBX 7 9 0 -2
BITMAP
74B0
76D0
7B40
7F80
7AC0
74E0
74B4
0000
0FD0
ENDCHAR
STARTCHAR uni1E35
ENCODING 7733
SWIDTH 600 0
DWIDTH 7 0
BBX 5 10 1 -2
BITMAP
D000
D000
D000
D780
ED00
FE00
E740
D2C0
0000
3F40
ENDCHAR
STARTCHAR uni1E36
ENCODING 7734
SWIDTH 600 0
DWIDTH 7 0
BBX 5 10 1 -3
BITMAP
A000
A000
A000
A000
A000
A000
BFC0
0000
1E00
1E00
ENDCHAR
STARTCHAR uni1E37
ENCODING 7735
SWIDTH 600 0
DWIDTH 7 0
BBX 6 11 0 -3
BITMAP
7F00
0B00
0B00
0B00
0B00
0B00
0B00
02E0
0000
02C0
02C0
ENDCHAR
STARTCHAR uni1E38
ENCODING 7736
SWIDTH 600 0
DWIDTH 7 0
BBX 6 12 0 -3
BITMAP
BE00
0000
2800
2800
2800
2800
2800
2800
2FF0
0000
0780
0780
ENDCHAR
STARTCHAR uni1E39
ENCODING 7737
SWIDTH 600 0
DWIDTH 7 0
BBX 6 13 0 -3
BITMAP
2F80
0000
7F00
0B00
0B00
0B00
0B00
0B00
0B00
02E0
0000
02C0
02C0
ENDCHAR
STARTCHAR uni1E3A
ENCODING 7738
SWIDTH 600 0
DWIDTH 7 0
BBX 5 9 1 -2
BITMAP
A000
A000
A000
A000
A000
A000
BFC0
0000
3F40
ENDCHAR
STARTCHAR uni1E3B
ENCODING 7739
SWIDTH 600 0
DWIDTH 7 0
BBX 6 10 0 -2
BITMAP
7F00
0B00
0B00
0B00
0B00
0B00
0B00
02E0
0000
0BE0
ENDCHAR
STARTCHAR uni1E3E
ENCODING 7742
SWIDTH 600 0
DWIDTH 7 0
BBX 6 10 0 0
BITMAP
0280
0A00
0000
74F0
78F0
7DB0
7BB0
7770
7070
7070
ENDCHAR
STARTCHAR uni1E3F
ENCODING 7743
SWIDTH 600 0
DWIDTH 7 0
BBX 7 9 0 0
BITMAP
0080
02C0
0200
0000
AEB0
B774
B774
B774
B774
ENDCHAR
STARTCHAR uni1E40
ENCODING 7744
SWIDTH 600 0
DWIDTH 7 0
BBX 6 10 0 0
BITMAP
0700
0700
0000
74F0
78F0
7DB0
7BB0
7770
7070
7070
ENDCHAR
STARTCHAR uni1E41
ENCODING 7745
SWIDTH 600 0
DWIDTH 7 0
BBX 7 8 0 0
BITMAP
0740
0740
0000
AEB0
B774
B774
B774
B774
ENDCHAR
STARTCHAR uni1E42
ENCODING 7746
SWIDTH 600 0
DWIDTH 7 0
BBX 6 10 0 -3
BITMAP
74F0
78F0
7DB0
7BB0
7770
7070
7070
0000
0B40
0B40
ENDCHAR
STARTCHAR uni1E43
ENCODING 7747
SWIDTH 600 0
DWIDTH 7 0
BBX 7 8 0 -3
BITMAP
AEB0
B774
B774
B774
B774
0000
0B40
0B40
ENDCHAR
STARTCHAR uni1E44
ENCODING 7748
SWIDTH 600 0
DWIDTH 7 0
BBX 6 10 0 0
BITMAP
0740
0740
0000
78B0
7CB0
79B0
7BB0
77B0
75F0
74F0
ENDCHAR
STARTCHAR uni1E45
ENCODING 7749
SWIDTH 600 0
DWIDTH 7 0
BBX 6 8 0 0
BITMAP
0740
0740
0000
7BD0
78B0
74B0
74B0
74B0
ENDCHAR
STARTCHAR uni1E46
ENCODING 7750
SWIDTH 600 0
DWIDTH 7 0
BBX 6 10 0 -3
BITMAP
78B0
7CB0
79B0
7BB0
77B0
75F0
74F0
0000
0B40
0B40
ENDCHAR
STARTCHAR uni1E47
ENCODING 7751
SWIDTH 600 0
DWIDTH 7 0
BBX 6 8 0 -3
BITMAP
7BD0
78B0
74B0
74B0
74B0
0000
0740
0740
ENDCHAR
STARTCHAR uni1E48
ENCODING 7752
SWIDTH 600 0
DWIDTH 7 0
BBX 6 9 0 -2
BITMAP
78B0
7CB0
79B0
7BB0
77B0
75F0
74F0
0000
1FC0
ENDCHAR
STARTCHAR uni1E49
ENCODING 7753
SWIDTH 600 0
DWIDTH 7 0
BBX 6 7 0 -2
BITMAP
7BD0
78B0
74B0
74B0
74B0
0000
1FC0
ENDCHAR
STARTCHAR uni1E52
ENCODING 7762
SWIDTH 600 0
DWIDTH 7 0
BBX 6 12 0 0
BITMAP
0240
0600
0000
1FC0
0000
1F80
38E0
74B0
B0B0
74B0
38E0
1F80
ENDCHAR
STARTCHAR uni1E53
ENCODING 7763
SWIDTH 600 0
DWIDTH 7 0
BBX 6 11 0 0
BITMAP
0240
0600
0000
1FC0
0000
0000
1F80
74E0
74B0
74E0
1F80
ENDCHAR
STARTCHAR uni1E58
ENCODING 7768
SWIDTH 600 0
DWIDTH 7 0
BBX 7 10 0 0
BITMAP
0700
0700
0000
7FD0
74B0
74B0
7FD0
76D0
74E0
74B4
ENDCHAR
STARTCHAR uni1E59
ENCODING 7769
SWIDTH 600 0
DWIDTH 7 0
BBX 5 8 1 0
BITMAP
0E00
0E00
0000
ABC0
B400
B000
B000
B000
ENDCHAR
STARTCHAR uni1E5A
ENCODING 7770
SWIDTH 600 0
DWIDTH 7 0
BBX 7 10 0 -3
BITMAP
7FD0
74B0
74B0
7FD0
76D0
74E0
74B4
0000
0740
0740
ENDCHAR
STARTCHAR uni1E5B
ENCODING 7771
SWIDTH 600 0
DWIDTH 7 0
BBX 5 8 1 -3
BITMAP
ABC0
B400
B000
B000
B000
0000
B000
B000
ENDCHAR
STARTCHAR uni1E5C
ENCODING 7772
SWIDTH 600 0
DWIDTH 7 0
BBX 7 12 0 -3
BITMAP
1FC0
0000
7FD0
74B0
74B0
7FD0
76D0
74E0
74B4
0000
0740
0740
ENDCHAR
STARTCHAR uni1E5D
ENCODING 7773
SWIDTH 600 0
DWIDTH 7 0
BBX 5 11 1 -3
BITMAP
2F40
0000
0000
ABC0
B400
B000
B000
B000
0000
B000
B000
ENDCHAR
STARTCHAR uni1E5E
ENCODING 7774
SWIDTH 600 0
DWIDTH 7 0
BBX 7 9 0 -2
BITMAP
7FD0
74B0
74B0
7FD0
76D0
74E0
74B4
0000
0FC0
ENDCHAR
STARTCHAR uni1E5F
ENCODING 7775
SWIDTH 600 0
DWIDTH 7 0
BBX 6 7 0 -2
BITMAP
2AF0
2D00
2C00
2C00
2C00
0000
7E00
ENDCHAR
STARTCHAR uni1E60
ENCODING 7776
SWIDTH 600 0
DWIDTH 7 0
BBX 5 10 1 0
BITMAP
1D00
1D00
0000
6F40
E140
F400
7F40
07C0
92C0
BE40
ENDCHAR
STARTCHAR uni1E61
ENCODING 7777
SWIDTH 600 0
DWIDTH 7 0
BBX 5 8 1 0
BITMAP
1D00
1D00
0000
7E40
E500
7F40
43C0
BF40
ENDCHAR
STARTCHAR uni1E62
ENCODING 7778
SWIDTH 600 0
DWIDTH 7 0
BBX 5 10 1 -3
BITMAP
6F40
E140
F400
7F40
07C0
92C0
BE40
0000
2D00
2D00
ENDCHAR
STARTCHAR uni1E63
ENCODING 7779
SWIDTH 600 0
DWIDTH 7 0
BBX 5 8 1 -3
BITMAP
7E40
E500
7F40
43C0
BF40
0000
1D00
1D00
ENDCHAR
STARTCHAR uni1E6C
ENCODING 7788
SWIDTH 600 0
DWIDTH 7 0
BBX 7 10 0 -3
BITMAP
BFF4
0B00
0B00
0B00
0B00
0B00
0B00
0000
0B40
0B40
ENDCHAR
STARTCHAR uni1E6D
ENCODING 7789
SWIDTH 600 0
DWIDTH 7 0
BBX 6 10 0 -3
BITMAP
0E00
0E00
7FF0
0E00
0E00
0E00
07E0
0000
02C0
02C0
ENDCHAR
STARTCHAR uni1E6E
ENCODING 7790
SWIDTH 600 0
DWIDTH 7 0
BBX 7 9 0 -2
BITMAP
BFF4
0B00
0B00
0B00
0B00
0B00
0B00
0000
1FC0
ENDCHAR
STARTCHAR uni1E6F
ENCODING 7791
SWIDTH 600 0
DWIDTH 7 0
BBX 6 9 0 -2
BITMAP
0E00
0E00
7FF0
0E00
0E00
0E00
07E0
0000
0BE0
ENDCHAR
STARTCHAR uni1E7E
ENCODING 7806
SWIDTH 600 0
DWIDTH 7 0
BBX 7 10 0 -3
BITMAP
B074
74B0
38E0
2DD0
1EC0
0F80
0B40
0000
0B40
0B40
ENDCHAR
STARTCHAR uni1E7F
ENCODING 7807
SWIDTH 600 0
DWIDTH 7 0
BBX 6 8 0 -3
BITMAP
7070
38E0
2DD0
1EC0
0B40
0000
0B40
0B40
ENDCHAR
STARTCHAR Wgrave
ENCODING 7808
SWIDTH 600 0
DWIDTH 7 0
BBX 7 10 0 0
BITMAP
0900
0600
0000
E034
A134
B774
7B70
7AB0
7DF0
38E0
ENDCHAR
STARTCHAR wgrave
ENCODING 7809
SWIDTH 600 0
DWIDTH 7 0
BBX 7 9 0 0
BITMAP
0800
1E00
0600
0000
E134
B774
BAB0
7EF0
3DE0
ENDCHAR
STARTCHAR Wacute
ENCODING 7810
SWIDTH 600 0
DWIDTH 7 0
BBX 7 10 0 0
BITMAP
0280
0A00
0000
E034
A134
B774
7B70
7AB0
7DF0
38E0
ENDCHAR
STARTCHAR wacute
ENCODING 7811
SWIDTH 600 0
DWIDTH 7 0
BBX 7 9 0 0
BITMAP
0180
0380
0600
0000
E134
B774
BAB0
7EF0
3DE0
ENDCHAR
STARTCHAR Wdieresis
ENCODING 7812
SWIDTH 600 0
DWIDTH 7 0
BBX 7 10 0 0
BITMAP
28C0
28C0
0000
E034
A134
B774
7B70
7AB0
7DF0
38E0
ENDCHAR
STARTCHAR wdieresis
ENCODING 7813
SWIDTH 600 0
DWIDTH 7 0
BBX 7 8 0 0
BITMAP
29D0
29D0
0000
E134
B774
BAB0
7EF0
3DE0
ENDCHAR
STARTCHAR uni1E8E
ENCODING 7822
SWIDTH 600 0
DWIDTH 7 0
BBX 7 10 0 0
BITMAP
0700
0700
0000
B074
38E0
2DD0
0F80
0B40
0B00
0B00
ENDCHAR
STARTCHAR uni1E8F
ENCODING 7823
SWIDTH 600 0
DWIDTH 7 0
BBX 6 10 0 -2
BITMAP
0740
0740
0000
7070
38A0
1DD0
0E80
0740
0B00
3900
ENDCHAR
STARTCHAR uni1E90
ENCODING 7824
SWIDTH 600 0
DWIDTH 7 0
BBX 6 9 0 0
BITMAP
0B80
0880
3FF0
01D0
0380
0B40
1E00
2C00
7FF0
ENDCHAR
STARTCHAR uni1E91
ENCODING 7825
SWIDTH 600 0
DWIDTH 7 0
BBX 6 8 0 0
BITMAP
0B80
1990
0000
3FE0
02C0
0B40
1D00
7FF0
ENDCHAR
STARTCHAR uni1E92
ENCODING 7826
SWIDTH 600 0
DWIDTH 7 0
BBX 6 10 0 -3
BITMAP
3FF0
01D0
0380
0B40
1E00
2C00
7FF0
0000
0740
0740
ENDCHAR
STARTCHAR uni1E93
ENCODING 7827
SWIDTH 600 0
DWIDTH 7 0
BBX 6 8 0 -3
BITMAP
3FE0
02C0
0B40
1D00
7FF0
0000
0740
0740
ENDCHAR
STARTCHAR uni1E94
ENCODING 7828
SWIDTH 600 0
DWIDTH 7 0
BBX 6 9 0 -2
BITMAP
3FF0
01D0
0380
0B40
1E00
2C00
7FF0
0000
1FC0
ENDCHAR
STARTCHAR uni1E95
ENCODING 7829
SWIDTH 600 0
DWIDTH 7 0
BBX 6 7 0 -2
BITMAP
3FE0
02C0
0B40
1D00
7FF0
0000
1FC0
ENDCHAR
STARTCHAR uni1E96
ENCODING 7830
SWIDTH 600 0
DWIDTH 7 0
BBX 6 10 0 -2
BITMAP
7400
7400
7400
7BD0
78B0
74B0
74B0
74B0
0000
1FC0
ENDCHAR
STARTCHAR uni1E97
ENCODING 7831
SWIDTH 600 0
DWIDTH 7 0
BBX 6 10 0 0
BITMAP
3680
3680
0000
0E00
0E00
7FF0
0E00
0E00
0E00
07E0
ENDCHAR
STARTCHAR uni1E9E
ENCODING 7838
SWIDTH 600 0
DWIDTH 7 0
BBX 7 7 0 0
BITMAP
1F80
38E0
75D0
76E0
74B4
7474
77E0
ENDCHAR
STARTCHAR uni1EA0
ENCODING 7840
SWIDTH 600 0
DWIDTH 7 0
BBX 7 10 0 -3
BITMAP
0F40
0E80
1DC0
28D0
3FE0
70B0
B074
0000
0B40
0B40
ENDCHAR
STARTCHAR uni1EA1
ENCODING 7841
SWIDTH 600 0
DWIDTH 7 0
BBX 6 8 0 -3
BITMAP
2F90
10E0
1BF0
78B0
2EB0
0000
0B40
0B40
ENDCHAR
STARTCHAR uni1EA2
ENCODING 7842
SWIDTH 600 0
DWIDTH 7 0
BBX 7 10 0 0
BITMAP
0A00
0340
0600
0F40
0E80
1DC0
28D0
3FE0
70B0
B074
ENDCHAR
STARTCHAR uni1EA3
ENCODING 7843
SWIDTH 600 0
DWIDTH 7 0
BBX 6 9 0 0
BITMAP
0600
0280
0340
0000
2F90
10E0
1BF0
78B0
2EB0
ENDCHAR
STARTCHAR uni1EA4
ENCODING 7844
SWIDTH 600 0
DWIDTH 7 0
BBX 7 10 0 0
BITMAP
0020
0B90
1980
0F40
0E80
1DC0
28D0
3FE0
70B0
B074
ENDCHAR
STARTCHAR uni1EA5
ENCODING 7845
SWIDTH 600 0
DWIDTH 7 0
BBX 7 9 0 0
BITMAP
0024
0BA0
0980
0000
2F90
10E0
1BF0
78B0
2EB0
ENDCHAR
STARTCHAR uni1EA6
ENCODING 7846
SWIDTH 600 0
DWIDTH 7 0
BBX 7 10 0 0
BITMAP
5000
2B40
1980
0F40
0E80
1DC0
28D0
3FE0
70B0
B074
ENDCHAR
STARTCHAR uni1EA7
ENCODING 7847
SWIDTH 600 0
DWIDTH 7 0
BBX 6 9 0 0
BITMAP
6000
2B80
0980
0000
2F90
10E0
1BF0
78B0
2EB0
ENDCHAR
STARTCHAR uni1EA8
ENCODING 7848
SWIDTH 600 0
DWIDTH 7 0
BBX 7 11 0 0
BITMAP
00A0
0030
0BA0
1980
0F40
0E80
1DC0
28D0
3FE0
70B0
B074
ENDCHAR
STARTCHAR uni1EA9
ENCODING 7849
SWIDTH 600 0
DWIDTH 7 0
BBX 7 10 0 0
BITMAP
0060
0034
0BA0
0980
0000
2F90
10E0
1BF0
78B0
2EB0
ENDCHAR
STARTCHAR uni1EAA
ENCODING 7850
SWIDTH 600 0
DWIDTH 7 0
BBX 7 11 0 0
BITMAP
0940
1A80
0A80
0000
0F40
0E80
1DC0
28D0
3FE0
70B0
B074
ENDCHAR
STARTCHAR uni1EAB
ENCODING 7851
SWIDTH 600 0
DWIDTH 7 0
BBX 6 10 0 0
BITMAP
0540
0A80
0B80
0980
0000
2F90
10E0
1BF0
78B0
2EB0
ENDCHAR
STARTCHAR uni1EAC
ENCODING 7852
SWIDTH 600 0
DWIDTH 7 0
BBX 7 12 0 -3
BITMAP
0F80
1880
0F40
0E80
1DC0
28D0
3FE0
70B0
B074
0000
0B40
0B40
ENDCHAR
STARTCHAR uni1EAD
ENCODING 7853
SWIDTH 600 0
DWIDTH 7 0
BBX 6 11 0 -3
BITMAP
0B80
1890
0000
2F90
10E0
1BF0
78B0
2EB0
0000
0B40
0B40
ENDCHAR
STARTCHAR uni1EAE
ENCODING 7854
SWIDTH 600 0
DWIDTH 7 0
BBX 7 12 0 0
BITMAP
0240
0200
18C0
0B40
0000
0F40
0E80
1DC0
28D0
3FE0
70B0
B074
ENDCHAR
STARTCHAR uni1EAF
ENCODING 7855
SWIDTH 600 0
DWIDTH 7 0
BBX 6 10 0 0
BITMAP
0180
0240
1890
0B80
0000
2F90
10E0
1BF0
78B0
2EB0
ENDCHAR
STARTCHAR uni1EB0
ENCODING 7856
SWIDTH 600 0
DWIDTH 7 0
BBX 7 12 0 0
BITMAP
0900
0600
18C0
0B40
0000
0F40
0E80
1DC0
28D0
3FE0
70B0
B074
ENDCHAR
STARTCHAR uni1EB1
ENCODING 7857
SWIDTH 600 0
DWIDTH 7 0
BBX 6 10 0 0
BITMAP
0500
0600
1890
0B80
0000
2F90
10E0
1BF0
78B0
2EB0
ENDCHAR
STARTCHAR uni1EB2
ENCODING 7858
SWIDTH 600 0
DWIDTH 7 0
BBX 7 13 0 0
BITMAP
0600
0340
0200
18C0
0B40
0000
0F40
0E80
1DC0
28D0
3FE0
70B0
B074
ENDCHAR
STARTCHAR uni1EB3
ENCODING 7859
SWIDTH 600 0
DWIDTH 7 0
BBX 6 11 0 0
BITMAP
0600
0240
0240
1890
0B80
0000
2F90
10E0
1BF0
78B0
2EB0
ENDCHAR
STARTCHAR uni1EB4
ENCODING 7860
SWIDTH 600 0
DWIDTH 7 0
BBX 7 11 0 0
BITMAP
0940
2FC0
0B40
0000
0F40
0E80
1DC0
28D0
3FE0
70B0
B074
ENDCHAR
STARTCHAR uni1EB5
ENCODING 7861
SWIDTH 600 0
DWIDTH 7 0
BBX 6 10 0 0
BITMAP
0540
0EC0
0C80
0B80
0000
2F90
10E0
1BF0
78B0
2EB0
ENDCHAR
STARTCHAR uni1EB6
ENCODING 7862
SWIDTH 600 0
DWIDTH 7 0
BBX 7 13 0 -3
BITMAP
18C0
0B80
0000
0F40
0E80
1DC0
28D0
3FE0
70B0
B074
0000
0B40
0B40
ENDCHAR
STARTCHAR uni1EB7
ENCODING 7863
SWIDTH 600 0
DWIDTH 7 0
BBX 6 11 0 -3
BITMAP
1890
0B80
0000
2F90
10E0
1BF0
78B0
2EB0
0000
0B40
0B40
ENDCHAR
STARTCHAR uni1EB8
ENCODING 7864
SWIDTH 600 0
DWIDTH 7 0
BBX 5 10 1 -3
BITMAP
FF80
E000
E000
FF40
E000
E000
FFC0
0000
1D00
1D00
ENDCHAR
STARTCHAR uni1EB9
ENCODING 7865
SWIDTH 600 0
DWIDTH 7 0
BBX 6 8 0 -3
BITMAP
1B90
38A0
7FF0
3800
1BD0
0000
0740
0740
ENDCHAR
STARTCHAR uni1EBA
ENCODING 7866
SWIDTH 600 0
DWIDTH 7 0
BBX 5 10 1 0
BITMAP
1D00
0A00
0D00
FF80
E000
E000
FF40
E000
E000
FFC0
ENDCHAR
STARTCHAR uni1EBB
ENCODING 7867
SWIDTH 600 0
DWIDTH 7 0
BBX 6 9 0 0
BITMAP
0600
0340
0300
0000
1B90
38A0
7FF0
3800
1BD0
ENDCHAR
STARTCHAR uni1EBC
ENCODING 7868
SWIDTH 600 0
DWIDTH 7 0
BBX 5 10 1 0
BITMAP
7980
5B40
0000
FF80
E000
E000
FF40
E000
E000
FFC0
ENDCHAR
STARTCHAR uni1EBD
ENCODING 7869
SWIDTH 600 0
DWIDTH 7 0
BBX 6 8 0 0
BITMAP
0950
2AD0
0000
1B90
38A0
7FF0
3800
1BD0
ENDCHAR
STARTCHAR uni1EBE
ENCODING 7870
SWIDTH 600 0
DWIDTH 7 0
BBX 5 10 1 0
BITMAP
0080
1E80
2600
FF80
E000
E000
FF40
E000
E000
FFC0
ENDCHAR
STARTCHAR uni1EBF
ENCODING 7871
SWIDTH 600 0
DWIDTH 7 0
BBX 7 9 0 0
BITMAP
0024
0BA0
0980
0000
1B90
38A0
7FF0
3800
1BD0
ENDCHAR
STARTCHAR uni1EC0
ENCODING 7872
SWIDTH 600 0
DWIDTH 7 0
BBX 5 10 1 0
BITMAP
8000
AE00
2600
FF80
E000
E000
FF40
E000
E000
FFC0
ENDCHAR
STARTCHAR uni1EC1
ENCODING 7873
SWIDTH 600 0
DWIDTH 7 0
BBX 6 9 0 0
BITMAP
5000
2B40
0980
0000
1B90
38A0
7FF0
3800
1BD0
ENDCHAR
STARTCHAR uni1EC2
ENCODING 7874
SWIDTH 600 0
DWIDTH 7 0
BBX 6 11 1 0
BITMAP
0180
00D0
1E80
2600
FF80
E000
E000
FF40
E000
E000
FFC0
ENDCHAR
STARTCHAR uni1EC3
ENCODING 7875
SWIDTH 600 0
DWIDTH 7 0
BBX 7 10 0 0
BITMAP
0060
0034
0BA0
0980
0000
1B90
38A0
7FF0
3800
1BD0
ENDCHAR
STARTCHAR uni1EC4
ENCODING 7876
SWIDTH 600 0
DWIDTH 7 0
BBX 5 11 1 0
BITMAP
1500
2B00
2A00
0000
FF80
E000
E000
FF40
E000
E000
FFC0
ENDCHAR
STARTCHAR uni1EC5
ENCODING 7877
SWIDTH 600 0
DWIDTH 7 0
BBX 6 10 0 0
BITMAP
0540
0A80
0B40
0980
0000
1B90
38A0
7FF0
3800
1BD0
ENDCHAR
STARTCHAR uni1EC6
ENCODING 7878
SWIDTH 600 0
DWIDTH 7 0
BBX 5 12 1 -3
BITMAP
2E00
2240
FF80
E000
E000
FF40
E000
E000
FFC0
0000
1D00
1D00
ENDCHAR
STARTCHAR uni1EC7
ENCODING 7879
SWIDTH 600 0
DWIDTH 7 0
BBX 6 11 0 -3
BITMAP
0B80
1990
0000
1B90
38A0
7FF0
3800
1BD0
0000
0740
0740
ENDCHAR
STARTCHAR uni1EC8
ENCODING 7880
SWIDTH 600 0
DWIDTH 7 0
BBX 6 10 0 0
BITMAP
0A00
0340
0600
7FE0
0B00
0B00
0B00
0B00
0B00
7FE0
ENDCHAR
STARTCHAR uni1EC9
ENCODING 7881
SWIDTH 600 0
DWIDTH 7 0
BBX 4 9 1 0
BITMAP
0D
06
09
00
FE
0E
0E
0E
0E
ENDCHAR
STARTCHAR uni1ECA
ENCODING 7882
SWIDTH 600 0
DWIDTH 7 0
BBX 6 10 0 -3
BITMAP
7FE0
0B00
0B00
0B00
0B00
0B00
7FE0
0000
0B40
0B40
ENDCHAR
STARTCHAR uni1ECB
ENCODING 7883
SWIDTH 600 0
DWIDTH 7 0
BBX 4 11 1 -3
BITMAP
0E
0E
00
FE
0E
0E
0E
0E
00
0E
0E
ENDCHAR
STARTCHAR uni1ECC
ENCODING 7884
SWIDTH 600 0
DWIDTH 7 0
BBX 6 10 0 -3
BITMAP
1F80
38E0
74B0
B0B0
74B0
38E0
1F80
0000
0B40
0B40
ENDCHAR
STARTCHAR uni1ECD
ENCODING 7885
SWIDTH 600 0
DWIDTH 7 0
BBX 6 8 0 -3
BITMAP
1F80
74E0
74B0
74E0
1F80
0000
0B40
0B40
ENDCHAR
STARTCHAR uni1ECE
ENCODING 7886
SWIDTH 600 0
DWIDTH 7 0
BBX 6 10 0 0
BITMAP
0A00
0340
0600
1F80
38E0
74B0
B0B0
74B0
38E0
1F80
ENDCHAR
STARTCHAR uni1ECF
ENCODING 7887
SWIDTH 600 0
DWIDTH 7 0
BBX 6 9 0 0
BITMAP
0A00
0340
0600
0000
1F80
74E0
74B0
74E0
1F80
ENDCHAR
STARTCHAR uni1ED0
ENCODING 7888
SWIDTH 600 0
DWIDTH 7 0
BBX 6 10 0 0
BITMAP
0020
0B90
1980
1F80
38E0
74B0
B0B0
74B0
38E0
1F80
ENDCHAR
STARTCHAR uni1ED1
ENCODING 7889
SWIDTH 600 0
DWIDTH 7 0
BBX 6 9 0 0
BITMAP
0020
0BA0
0980
0000
1F80
74E0
74B0
74E0
1F80
ENDCHAR
STARTCHAR uni1ED2
ENCODING 7890
SWIDTH 600 0
DWIDTH 7 0
BBX 6 10 0 0
BITMAP
5000
2B40
1980
1F80
38E0
74B0
B0B0
74B0
38E0
1F80
ENDCHAR
STARTCHAR uni1ED3
ENCODING 7891
SWIDTH 600 0
DWIDTH 7 0
BBX 6 9 0 0
BITMAP
5000
2B40
0980
0000
1F80
74E0
74B0
74E0
1F80
ENDCHAR
STARTCHAR uni1ED4
ENCODING 7892
SWIDTH 600 0
DWIDTH 7 0
BBX 6 11 0 0
BITMAP
00A0
0030
0BA0
1980
1F80
38E0
74B0
B0B0
74B0
38E0
1F80
ENDCHAR
STARTCHAR uni1ED5
ENCODING 7893
SWIDTH 600 0
DWIDTH 7 0
BBX 6 10 0 0
BITMAP
00A0
0030
0BA0
0980
0000
1F80
74E0
74B0
74E0
1F80
ENDCHAR
STARTCHAR uni1ED6
ENCODING 7894
SWIDTH 600 0
DWIDTH 7 0
BBX 6 11 0 0
BITMAP
0940
1A80
0A80
0000
1F80
38E0
74B0
B0B0
74B0
38E0
1F80
ENDCHAR
STARTCHAR uni1ED7
ENCODING 7895
SWIDTH 600 0
DWIDTH 7 0
BBX 6 10 0 0
BITMAP
0540
1B80
0B40
0980
0000
1F80
74E0
74B0
74E0
1F80
ENDCHAR
STARTCHAR uni1ED8
ENCODING 7896
SWIDTH 600 0
DWIDTH 7 0
BBX 6 12 0 -3
BITMAP
0F80
1880
1F80
38E0
74B0
B0B0
74B0
38E0
1F80
0000
0B40
0B40
ENDCHAR
STARTCHAR uni1ED9
ENCODING 7897
SWIDTH 600 0
DWIDTH 7 0
BBX 6 11 0 -3
BITMAP
0F80
1980
0000
1F80
74E0
74B0
74E0
1F80
0000
0B40
0B40
ENDCHAR
STARTCHAR uni1EDA
ENCODING 7898
SWIDTH 600 0
DWIDTH 7 0
BBX 7 10 0 0
BITMAP
0280
0A24
0034
1FE0
38E0
74B0
B0B0
74B0
38E0
1F80
ENDCHAR
STARTCHAR uni1EDB
ENCODING 7899
SWIDTH 600 0
DWIDTH 7 0
BBX 7 9 0 0
BITMAP
0180
0380
0624
0034
1FE0
74E0
74B0
74E0
1F80
ENDCHAR
STARTCHAR uni1EDC
ENCODING 7900
SWIDTH 600 0
DWIDTH 7 0
BBX 7 10 0 0
BITMAP
0900
0624
0034
1FE0
38E0
74B0
B0B0
74B0
38E0
1F80
ENDCHAR
STARTCHAR uni1EDD
ENCODING 7901
SWIDTH 600 0
DWIDTH 7 0
BBX 7 9 0 0
BITMAP
0800
1E00
0624
0034
1FE0
74E0
74B0
74E0
1F80
ENDCHAR
STARTCHAR uni1EDE
ENCODING 7902
SWIDTH 600 0
DWIDTH 7 0
BBX 7 10 0 0
BITMAP
0A00
0364
0634
1FE0
38E0
74B0
B0B0
74B0
38E0
1F80
ENDCHAR
STARTCHAR uni1EDF
ENCODING 7903
SWIDTH 600 0
DWIDTH 7 0
BBX 7 9 0 0
BITMAP
0A00
0340
0624
0034
1FE0
74E0
74B0
74E0
1F80
ENDCHAR
STARTCHAR uni1EE0
ENCODING 7904
SWIDTH 600 0
DWIDTH 7 0
BBX 7 10 0 0
BITMAP
2D90
37A4
0034
1FE0
38E0
74B0
B0B0
74B0
38E0
1F80
ENDCHAR
STARTCHAR uni1EE1
ENCODING 7905
SWIDTH 600 0
DWIDTH 7 0
BBX 7 8 0 0
BITMAP
1840
2BA4
0034
1FE0
74E0
74B0
74E0
1F80
ENDCHAR
STARTCHAR uni1EE2
ENCODING 7906
SWIDTH 600 0
DWIDTH 7 0
BBX 7 12 0 -3
BITMAP
0024
0034
1FE0
38E0
74B0
B0B0
74B0
38E0
1F80
0000
0B40
0B40
ENDCHAR
STARTCHAR uni1EE3
ENCODING 7907
SWIDTH 600 0
DWIDTH 7 0
BBX 7 10 0 -3
BITMAP
0024
0034
1FE0
74E0
74B0
74E0
1F80
0000
0B40
0B40
ENDCHAR
STARTCHAR uni1EE4
ENCODING 7908
SWIDTH 600 0
DWIDTH 7 0
BBX 6 10 0 -3
BITMAP
74B0
74B0
74B0
74B0
74B0
38E0
1F80
0000
0B40
0B40
ENDCHAR
STARTCHAR uni1EE5
ENCODING 7909
SWIDTH 600 0
DWIDTH 7 0
BBX 6 8 0 -3
BITMAP
74E0
74E0
74E0
75E0
2EA0
0000
0740
0740
ENDCHAR
STARTCHAR uni1EE6
ENCODING 7910
SWIDTH 600 0
DWIDTH 7 0
BBX 6 10 0 0
BITMAP
0A00
0340
0600
74B0
74B0
74B0
74B0
74B0
38E0
1F80
ENDCHAR
STARTCHAR uni1EE7
ENCODING 7911
SWIDTH 600 0
DWIDTH 7 0
BBX 6 9 0 0
BITMAP
0A00
0340
0600
0000
74E0
74E0
74E0
75E0
2EA0
ENDCHAR
STARTCHAR uni1EE8
ENCODING 7912
SWIDTH 600 0
DWIDTH 7 0
BBX 8 10 0 0
BITMAP
0280
0A08
001D
74B8
74B0
74B0
74B0
74B0
38E0
1F80
ENDCHAR
STARTCHAR uni1EE9
ENCODING 7913
SWIDTH 600 0
DWIDTH 7 0
BBX 7 9 0 0
BITMAP
0180
0380
0618
0028
74F4
74E0
74E0
75E0
2EA0
ENDCHAR
STARTCHAR uni1EEA
ENCODING 7914
SWIDTH 600 0
DWIDTH 7 0
BBX 8 10 0 0
BITMAP
0900
0608
001D
74B8
74B0
74B0
74B0
74B0
38E0
1F80
ENDCHAR
STARTCHAR uni1EEB
ENCODING 7915
SWIDTH 600 0
DWIDTH 7 0
BBX 7 9 0 0
BITMAP
0800
1E00
0618
0028
74F4
74E0
74E0
75E0
2EA0
ENDCHAR
STARTCHAR uni1EEC
ENCODING 7916
SWIDTH 600 0
DWIDTH 7 0
BBX 8 10 0 0
BITMAP
0A00
0348
061D
74B8
74B0
74B0
74B0
74B0
38E0
1F80
ENDCHAR
STARTCHAR uni1EED
ENCODING 7917
SWIDTH 600 0
DWIDTH 7 0
BBX 7 9 0 0
BITMAP
0A00
0340
0618
0028
74F4
74E0
74E0
75E0
2EA0
ENDCHAR
STARTCHAR uni1EEE
ENCODING 7918
SWIDTH 600 0
DWIDTH 7 0
BBX 8 10 0 0
BITMAP
1D90
26D8
001D
74B8
74B0
74B0
74B0
74B0
38E0
1F80
ENDCHAR
STARTCHAR uni1EEF
ENCODING 7919
SWIDTH 600 0
DWIDTH 7 0
BBX 7 8 0 0
BITMAP
1840
2B98
0028
74F4
74E0
74E0
75E0
2EA0
ENDCHAR
STARTCHAR uni1EF0
ENCODING 7920
SWIDTH 600 0
DWIDTH 7 0
BBX 8 12 0 -3
BITMAP
0008
001D
74B8
74B0
74B0
74B0
74B0
38E0
1F80
0000
0B40
0B40
ENDCHAR
STARTCHAR uni1EF1
ENCODING 7921
SWIDTH 600 0
DWIDTH 7 0
BBX 7 10 0 -3
BITMAP
0018
0028
74F4
74E0
74E0
75E0
2EA0
0000
0740
0740
ENDCHAR
STARTCHAR Ygrave
ENCODING 7922
SWIDTH 600 0
DWIDTH 7 0
BBX 7 10 0 0
BITMAP
0900
0600
0000
B074
38E0
2DD0
0F80
0B40
0B00
0B00
ENDCHAR
STARTCHAR ygrave
ENCODING 7923
SWIDTH 600 0
DWIDTH 7 0
BBX 6 11 0 -2
BITMAP
0800
1E00
0600
0000
7070
38A0
1DD0
0E80
0740
0B00
3900
ENDCHAR
STARTCHAR uni1EF4
ENCODING 7924
SWIDTH 600 0
DWIDTH 7 0
BBX 7 10 0 -3
BITMAP
B074
38E0
2DD0
0F80
0B40
0B00
0B00
0000
0B40
0B40
ENDCHAR
STARTCHAR uni1EF5
ENCODING 7925
SWIDTH 600 0
DWIDTH 7 0
BBX 7 8 0 -3
BITMAP
7070
38A0
1DD0
0E80
0740
0B00
39B4
00B4
ENDCHAR
STARTCHAR uni1EF6
ENCODING 7926
SWIDTH 600 0
DWIDTH 7 0
BBX 7 10 0 0
BITMAP
0A00
0340
0600
B074
38E0
2DD0
0F80
0B40
0B00
0B00
ENDCHAR
STARTCHAR uni1EF7
ENCODING 7927
SWIDTH 600 0
DWIDTH 7 0
BBX 6 11 0 -2
BITMAP
0A00
0340
0300
0000
7070
38A0
1DD0
0E80
0740
0B00
3900
ENDCHAR
STARTCHAR uni1EF8
ENCODING 7928
SWIDTH 600 0
DWIDTH 7 0
BBX 7 10 0 0
BITMAP
1D90
26C0
0000
B074
38E0
2DD0
0F80
0B40
0B00
0B00
ENDCHAR
STARTCHAR uni1EF9
ENCODING 7929
SWIDTH 600 0
DWIDTH 7 0
BBX 6 10 0 -2
BITMAP
0950
2AD0
0000
7070
38A0
1DD0
0E80
0740
0B00
3900
ENDCHAR
STARTCHAR uni1FBD
ENCODING 8125
SWIDTH 600 0
DWIDTH 7 0
BBX 3 3 2 6
BITMAP
A0
34
60
ENDCHAR
STARTCHAR uni1FBE
ENCODING 8126
SWIDTH 600 0
DWIDTH 7 0
BBX 3 5 2 0
BITMAP
B0
B0
B0
B0
78
ENDCHAR
STARTCHAR uni1FBF
ENCODING 8127
SWIDTH 600 0
DWIDTH 7 0
BBX 3 3 2 6
BITMAP
A0
34
60
ENDCHAR
STARTCHAR uni1FC0
ENCODING 8128
SWIDTH 600 0
DWIDTH 7 0
BBX 4 2 1 6
BITMAP
65
AF
ENDCHAR
STARTCHAR uni1FC1
ENCODING 8129
SWIDTH 600 0
DWIDTH 7 0
BBX 4 4 1 6
BITMAP
3A
55
00
63
ENDCHAR
STARTCHAR uni1FCD
ENCODING 8141
SWIDTH 600 0
DWIDTH 7 0
BBX 4 3 1 6
BITMAP
AA
76
63
ENDCHAR
STARTCHAR uni1FCE
ENCODING 8142
SWIDTH 600 0
DWIDTH 7 0
BBX 4 3 1 6
BITMAP
A7
76
69
ENDCHAR
STARTCHAR uni1FCF
ENCODING 8143
SWIDTH 600 0
DWIDTH 7 0
BBX 4 4 1 6
BITMAP
15
7E
0C
08
ENDCHAR
STARTCHAR uni1FDD
ENCODING 8157
SWIDTH 600 0
DWIDTH 7 0
BBX 4 3 1 6
BITMAP
7A
96
63
ENDCHAR
STARTCHAR uni1FDE
ENCODING 8158
SWIDTH 600 0
DWIDTH 7 0
BBX 4 3 1 6
BITMAP
77
96
69
ENDCHAR
STARTCHAR uni1FDF
ENCODING 8159
SWIDTH 600 0
DWIDTH 7 0
BBX 4 4 1 6
BITMAP
15
7E
28
18
ENDCHAR
STARTCHAR uni1FED
ENCODING 8173
SWIDTH 600 0
DWIDTH 7 0
BBX 5 3 1 6
BITMAP
1800
AA40
0800
ENDCHAR
STARTCHAR uni1FEE
ENCODING 8174
SWIDTH 600 0
DWIDTH 7 0
BBX 5 3 1 6
BITMAP
0C00
9E40
1800
ENDCHAR
STARTCHAR uni1FEF
ENCODING 8175
SWIDTH 600 0
DWIDTH 7 0
BBX 2 3 2 6
BITMAP
A0
A0
60
ENDCHAR
STARTCHAR uni1FFD
ENCODING 8189
SWIDTH 600 0
DWIDTH 7 0
BBX 3 3 2 6
BITMAP
34
34
70
ENDCHAR
STARTCHAR uni1FFE
ENCODING 8190
SWIDTH 600 0
DWIDTH 7 0
BBX 3 3 2 6
BITMAP
74
A0
60
ENDCHAR
STARTCHAR uni2007
ENCODING 8199
SWIDTH 600 0
DWIDTH 7 0
BBX 1 1 0 0
BITMAP
00
ENDCHAR
STARTCHAR uni2010
ENCODING 8208
SWIDTH 600 0
DWIDTH 7 0
BBX 6 1 0 3
BITMAP
7FE0
ENDCHAR
STARTCHAR figuredash
ENCODING 8210
SWIDTH 600 0
DWIDTH 7 0
BBX 5 1 1 2
BITMAP
FF80
ENDCHAR
STARTCHAR endash
ENCODING 8211
SWIDTH 600 0
DWIDTH 7 0
BBX 5 1 1 2
BITMAP
FF80
ENDCHAR
STARTCHAR emdash
ENCODING 8212
SWIDTH 600 0
DWIDTH 7 0
BBX 7 1 0 2
BITMAP
FFF8
ENDCHAR
STARTCHAR uni2015
ENCODING 8213
SWIDTH 600 0
DWIDTH 7 0
BBX 7 1 0 2
BITMAP
FFF8
ENDCHAR
STARTCHAR uni2016
ENCODING 8214
SWIDTH 600 0
DWIDTH 7 0
BBX 5 11 1 -3
BITMAP
A340
A340
A340
A340
A340
A340
A340
A340
A340
A340
A340
ENDCHAR
STARTCHAR underscoredbl
ENCODING 8215
SWIDTH 600 0
DWIDTH 7 0
BBX 6 2 0 -3
BITMAP
7FF0
7FF0
ENDCHAR
STARTCHAR quoteleft
ENCODING 8216
SWIDTH 600 0
DWIDTH 7 0
BBX 3 4 2 3
BITMAP
70
90
F4
B4
ENDCHAR
STARTCHAR quoteright
ENCODING 8217
SWIDTH 600 0
DWIDTH 7 0
BBX 3 4 2 4
BITMAP
B4
B8
24
A0
ENDCHAR
STARTCHAR quotesinglbase
ENCODING 8218
SWIDTH 600 0
DWIDTH 7 0
BBX 3 4 2 -2
BITMAP
B4
B8
24
A0
ENDCHAR
STARTCHAR quotereversed
ENCODING 8219
SWIDTH 600 0
DWIDTH 7 0
BBX 3 4 2 4
BITMAP
B4
F4
90
70
ENDCHAR
STARTCHAR quotedblleft
ENCODING 8220
SWIDTH 600 0
DWIDTH 7 0
BBX 6 4 0 3
BITMAP
28A0
7180
79E0
39E0
ENDCHAR
STARTCHAR quotedblright
ENCODING 8221
SWIDTH 600 0
DWIDTH 7 0
BBX 5 4 1 4
BITMAP
E380
F7C0
71C0
D340
ENDCHAR
STARTCHAR quotedblbase
ENCODING 8222
SWIDTH 600 0
DWIDTH 7 0
BBX 5 4 1 -2
BITMAP
E380
F7C0
71C0
D340
ENDCHAR
STARTCHAR dagger
ENCODING 8224
SWIDTH 600 0
DWIDTH 7 0
BBX 5 9 1 -1
BITMAP
1C00
1C00
FF80
1C00
1C00
1C00
1C00
1C00
1800
ENDCHAR
STARTCHAR daggerdbl
ENCODING 8225
SWIDTH 600 0
DWIDTH 7 0
BBX 5 9 1 -1
BITMAP
1C00
1C00
FF80
1C00
1C00
1C00
FF80
1C00
1C00
ENDCHAR
STARTCHAR bullet
ENCODING 8226
SWIDTH 600 0
DWIDTH 7 0
BBX 4 4 1 1
BITMAP
2D
7F
7F
2D
ENDCHAR
STARTCHAR ellipsis
ENCODING 8230
SWIDTH 600 0
DWIDTH 7 0
BBX 7 2 0 0
BITMAP
A774
AB74
ENDCHAR
STARTCHAR uni202F
ENCODING 8239
SWIDTH 600 0
DWIDTH 7 0
BBX 1 1 0 0
BITMAP
00
ENDCHAR
STARTCHAR perthousand
ENCODING 8240
SWIDTH 600 0
DWIDTH 7 0
BBX 7 7 0 0
BITMAP
7800
9C10
7AE0
2900
79E0
9EA4
79E0
ENDCHAR
STARTCHAR uni2032
ENCODING 8242
SWIDTH 600 0
DWIDTH 7 0
BBX 3 4 2 4
BITMAP
74
70
70
60
ENDCHAR
STARTCHAR uni2033
ENCODING 8243
SWIDTH 600 0
DWIDTH 7 0
BBX 5 4 1 4
BITMAP
B380
B340
A340
9300
ENDCHAR
STARTCHAR uni2035
ENCODING 8245
SWIDTH 600 0
DWIDTH 7 0
BBX 2 4 2 4
BITMAP
B0
B0
70
30
ENDCHAR
STARTCHAR guilsinglleft
ENCODING 8249
SWIDTH 600 0
DWIDTH 7 0
BBX 3 5 2 0
BITMAP
24
A0
D0
A0
24
ENDCHAR
STARTCHAR guilsinglright
ENCODING 8250
SWIDTH 600 0
DWIDTH 7 0
BBX 3 5 2 0
BITMAP
90
74
28
74
90
ENDCHAR
STARTCHAR exclamdbl
ENCODING 8252
SWIDTH 600 0
DWIDTH 7 0
BBX 5 7 1 0
BITMAP
E380
E380
D340
9240
0000
E380
E380
ENDCHAR
STARTCHAR uni203D
ENCODING 8253
SWIDTH 600 0
DWIDTH 7 0
BBX 5 7 1 0
BITMAP
BE00
4380
2B40
2D00
0000
2800
2800
ENDCHAR
STARTCHAR uni203E
ENCODING 8254
SWIDTH 600 0
DWIDTH 7 0
BBX 6 1 0 6
BITMAP
7FF0
ENDCHAR
STARTCHAR uni203F
ENCODING 8255
SWIDTH 600 0
DWIDTH 7 0
BBX 10 2 -2 -3
BITMAP
640170
1AFE40
ENDCHAR
STARTCHAR fraction
ENCODING 8260
SWIDTH 600 0
DWIDTH 7 0
BBX 6 7 0 0
BITMAP
0020
00A0
0040
0000
0400
3400
5000
ENDCHAR
STARTCHAR uni2047
ENCODING 8263
SWIDTH 600 0
DWIDTH 7 0
BBX 7 7 0 0
BITMAP
BAE0
1D74
28B0
34D0
0000
75E0
75E0
ENDCHAR
STARTCHAR uni2048
ENCODING 8264
SWIDTH 600 0
DWIDTH 7 0
BBX 6 7 0 0
BITMAP
B8E0
1DE0
2890
3490
0000
74E0
74E0
ENDCHAR
STARTCHAR uni2049
ENCODING 8265
SWIDTH 600 0
DWIDTH 7 0
BBX 7 7 0 0
BITMAP
39E0
3474
34B0
24D0
0000
79E0
79E0
ENDCHAR
STARTCHAR zero.sups
ENCODING 8304
SWIDTH 600 0
DWIDTH 7 0
BBX 4 4 1 4
BITMAP
2E
A3
A3
2E
ENDCHAR
STARTCHAR i.sups
ENCODING 8305
SWIDTH 600 0
DWIDTH 7 0
BBX 3 5 2 4
BITMAP
24
F4
24
24
24
ENDCHAR
STARTCHAR four.sups
ENCODING 8308
SWIDTH 600 0
DWIDTH 7 0
BBX 5 4 1 4
BITMAP
1800
3600
7F40
0600
ENDCHAR
STARTCHAR five.sups
ENCODING 8309
SWIDTH 600 0
DWIDTH 7 0
BBX 4 4 1 4
BITMAP
3F
3E
17
6E
ENDCHAR
STARTCHAR six.sups
ENCODING 8310
SWIDTH 600 0
DWIDTH 7 0
BBX 4 4 1 4
BITMAP
2E
79
7B
2E
ENDCHAR
STARTCHAR seven.sups
ENCODING 8311
SWIDTH 600 0
DWIDTH 7 0
BBX 4 4 1 4
BITMAP
7F
09
0C
18
ENDCHAR
STARTCHAR eight.sups
ENCODING 8312
SWIDTH 600 0
DWIDTH 7 0
BBX 4 4 1 4
BITMAP
3E
3E
67
3E
ENDCHAR
STARTCHAR nine.sups
ENCODING 8313
SWIDTH 600 0
DWIDTH 7 0
BBX 4 4 1 4
BITMAP
3D
7B
2B
7D
ENDCHAR
STARTCHAR parenleft.sups
ENCODING 8317
SWIDTH 600 0
DWIDTH 7 0
BBX 3 6 2 3
BITMAP
24
70
A0
A0
70
24
ENDCHAR
STARTCHAR parenright.sups
ENCODING 8318
SWIDTH 600 0
DWIDTH 7 0
BBX 2 6 2 3
BITMAP
90
70
30
30
70
90
ENDCHAR
STARTCHAR n.sups
ENCODING 8319
SWIDTH 600 0
DWIDTH 7 0
BBX 4 4 1 4
BITMAP
7E
73
73
62
ENDCHAR
STARTCHAR zero.subs
ENCODING 8320
SWIDTH 600 0
DWIDTH 7 0
BBX 4 4 1 -2
BITMAP
2E
A3
A3
2E
ENDCHAR
STARTCHAR one.subs
ENCODING 8321
SWIDTH 600 0
DWIDTH 7 0
BBX 5 4 1 -2
BITMAP
2D00
0D00
0D00
7F80
ENDCHAR
STARTCHAR two.subs
ENCODING 8322
SWIDTH 600 0
DWIDTH 7 0
BBX 4 4 1 -2
BITMAP
6D
16
19
7F
ENDCHAR
STARTCHAR three.subs
ENCODING 8323
SWIDTH 600 0
DWIDTH 7 0
BBX 4 4 1 -2
BITMAP
2E
1E
17
6E
ENDCHAR
STARTCHAR four.subs
ENCODING 8324
SWIDTH 600 0
DWIDTH 7 0
BBX 5 4 1 -2
BITMAP
1800
3600
7F40
0600
ENDCHAR
STARTCHAR five.subs
ENCODING 8325
SWIDTH 600 0
DWIDTH 7 0
BBX 4 4 1 -2
BITMAP
3F
3E
17
6E
ENDCHAR
STARTCHAR six.subs
ENCODING 8326
SWIDTH 600 0
DWIDTH 7 0
BBX 4 4 1 -2
BITMAP
2E
79
7B
2E
ENDCHAR
STARTCHAR seven.subs
ENCODING 8327
SWIDTH 600 0
DWIDTH 7 0
BBX 4 4 1 -2
BITMAP
7F
09
0C
18
ENDCHAR
STARTCHAR eight.subs
ENCODING 8328
SWIDTH 600 0
DWIDTH 7 0
BBX 4 4 1 -2
BITMAP
3E
3E
67
3E
ENDCHAR
STARTCHAR nine.subs
ENCODING 8329
SWIDTH 600 0
DWIDTH 7 0
BBX 4 4 1 -2
BITMAP
3D
7B
2B
7D
ENDCHAR
STARTCHAR parenleft.subs
ENCODING 8333
SWIDTH 600 0
DWIDTH 7 0
BBX 3 6 2 -3
BITMAP
24
70
A0
A0
70
24
ENDCHAR
STARTCHAR parenright.subs
ENCODING 8334
SWIDTH 600 0
DWIDTH 7 0
BBX 2 6 2 -3
BITMAP
90
70
30
30
70
90
ENDCHAR
STARTCHAR uni0259.sups
ENCODING 8340
SWIDTH 600 0
DWIDTH 7 0
BBX 4 4 1 4
BITMAP
3D
07
7F
2D
ENDCHAR
STARTCHAR colonmonetary
ENCODING 8353
SWIDTH 600 0
DWIDTH 7 0
BBX 5 9 1 -1
BITMAP
0600
2F80
BA40
EA00
EA00
EA00
BA80
2F40
1800
ENDCHAR
STARTCHAR franc
ENCODING 8355
SWIDTH 600 0
DWIDTH 7 0
BBX 6 7 0 0
BITMAP
2FF0
2C00
2C00
2FD0
2C00
7F80
2C00
ENDCHAR
STARTCHAR lira
ENCODING 8356
SWIDTH 600 0
DWIDTH 7 0
BBX 6 7 0 0
BITMAP
0BE0
1D10
7FC0
0D00
7FC0
1D00
7FF0
ENDCHAR
STARTCHAR uni20A6
ENCODING 8358
SWIDTH 600 0
DWIDTH 7 0
BBX 7 7 0 0
BITMAP
38A0
3DA0
BFF4
36A0
BFF4
36A0
35E0
ENDCHAR
STARTCHAR peseta
ENCODING 8359
SWIDTH 600 0
DWIDTH 7 0
BBX 7 7 0 0
BITMAP
3F80
38E0
BFF4
39E0
3F80
3800
3800
ENDCHAR
STARTCHAR uni20A9
ENCODING 8361
SWIDTH 600 0
DWIDTH 7 0
BBX 7 7 0 0
BITMAP
7670
7770
7BB0
FFF8
3AA0
3DE0
2DD0
ENDCHAR
STARTCHAR dong
ENCODING 8363
SWIDTH 600 0
DWIDTH 7 0
BBX 6 8 1 0
BITMAP
0340
2FD0
0340
7F40
E340
7E40
0000
FF80
ENDCHAR
STARTCHAR Euro
ENCODING 8364
SWIDTH 600 0
DWIDTH 7 0
BBX 6 7 0 0
BITMAP
0BE0
2D10
7FE0
3800
7FC0
2D10
0BE0
ENDCHAR
STARTCHAR uni20AE
ENCODING 8366
SWIDTH 600 0
DWIDTH 7 0
BBX 7 7 0 0
BITMAP
BFF4
0B00
0BD0
1F50
1B80
2B00
0B00
ENDCHAR
STARTCHAR uni20B1
ENCODING 8369
SWIDTH 600 0
DWIDTH 7 0
BBX 7 7 0 0
BITMAP
3F80
39D0
7EF4
79B0
BEF4
3AD0
3E40
ENDCHAR
STARTCHAR uni20B2
ENCODING 8370
SWIDTH 600 0
DWIDTH 7 0
BBX 6 9 0 -1
BITMAP
0240
0BD0
2C40
3400
75F0
34B0
2CB0
0BD0
0240
ENDCHAR
STARTCHAR uni20B4
ENCODING 8372
SWIDTH 600 0
DWIDTH 7 0
BBX 6 7 0 0
BITMAP
1F80
11D0
7FF0
0F40
7FF0
2C50
1BD0
ENDCHAR
STARTCHAR uni20B5
ENCODING 8373
SWIDTH 600 0
DWIDTH 7 0
BBX 5 9 1 -1
BITMAP
0500
2F80
B940
E500
E500
E500
B940
2F80
0500
ENDCHAR
STARTCHAR uni20B8
ENCODING 8376
SWIDTH 600 0
DWIDTH 7 0
BBX 7 7 0 0
BITMAP
BFF4
0000
BFF4
0B00
0B00
0B00
0B00
ENDCHAR
STARTCHAR uni20B9
ENCODING 8377
SWIDTH 600 0
DWIDTH 7 0
BBX 5 7 1 0
BITMAP
FF80
1E00
FF80
0E00
F800
2D00
0B00
ENDCHAR
STARTCHAR uni20BA
ENCODING 8378
SWIDTH 600 0
DWIDTH 7 0
BBX 6 7 0 0
BITMAP
2C40
2E40
7D80
6D00
7C70
2CA0
2F80
ENDCHAR
STARTCHAR uni20BD
ENCODING 8381
SWIDTH 600 0
DWIDTH 7 0
BBX 6 7 0 0
BITMAP
2FD0
2C70
2C70
BFD0
2C00
BFE0
2C00
ENDCHAR
STARTCHAR uni2105
ENCODING 8453
SWIDTH 600 0
DWIDTH 7 0
BBX 7 7 0 0
BITMAP
7820
A0A0
A080
79E0
1B74
7374
51E0
ENDCHAR
STARTCHAR uni2113
ENCODING 8467
SWIDTH 600 0
DWIDTH 7 0
BBX 5 8 1 0
BITMAP
1F40
3A80
3680
3B00
3800
F400
3840
1F80
ENDCHAR
STARTCHAR uni2116
ENCODING 8470
SWIDTH 600 0
DWIDTH 7 0
BBX 8 7 -1 0
BITMAP
38DE
3DE7
3E9E
3A80
379E
3780
7280
ENDCHAR
STARTCHAR uni2117
ENCODING 8471
SWIDTH 600 0
DWIDTH 7 0
BBX 7 7 0 0
BITMAP
1F80
6060
8FA4
8DD4
9FA4
6460
1F80
ENDCHAR
STARTCHAR uni2120
ENCODING 8480
SWIDTH 600 0
DWIDTH 7 0
BBX 7 4 0 4
BITMAP
B768
93B8
67A8
B614
ENDCHAR
STARTCHAR trademark
ENCODING 8482
SWIDTH 600 0
DWIDTH 7 0
BBX 7 3 0 4
BITMAP
FBB8
63A8
6318
ENDCHAR
STARTCHAR uni2126
ENCODING 8486
SWIDTH 600 0
DWIDTH 7 0
BBX 7 7 0 0
BITMAP
1B80
38E0
70B0
B0B0
74B0
38D0
BDF4
ENDCHAR
STARTCHAR estimated
ENCODING 8494
SWIDTH 600 0
DWIDTH 7 0
BBX 7 7 0 0
BITMAP
1F80
2060
A030
BFF4
A000
2050
1F40
ENDCHAR
STARTCHAR uni2150
ENCODING 8528
SWIDTH 600 0
DWIDTH 7 0
BBX 7 7 0 0
BITMAP
7820
28A0
2840
0000
05F4
3460
5090
ENDCHAR
STARTCHAR uni2151
ENCODING 8529
SWIDTH 600 0
DWIDTH 7 0
BBX 7 7 0 0
BITMAP
7820
28A0
2840
01E0
06B4
35F4
51E0
ENDCHAR
STARTCHAR uni2152
ENCODING 8530
SWIDTH 600 0
DWIDTH 7 0
BBX 7 7 0 0
BITMAP
7800
2810
2AE0
2900
29E0
69A4
29E0
ENDCHAR
STARTCHAR onethird
ENCODING 8531
SWIDTH 600 0
DWIDTH 7 0
BBX 6 7 0 0
BITMAP
7820
28A0
2840
01E0
0430
34B0
51F0
ENDCHAR
STARTCHAR twothirds
ENCODING 8532
SWIDTH 600 0
DWIDTH 7 0
BBX 6 8 0 0
BITMAP
7800
1C20
28A0
BD40
01E0
0430
34B0
51F0
ENDCHAR
STARTCHAR uni2155
ENCODING 8533
SWIDTH 600 0
DWIDTH 7 0
BBX 7 7 0 0
BITMAP
7820
28A0
2840
0000
05F4
35F4
51F0
ENDCHAR
STARTCHAR uni2156
ENCODING 8534
SWIDTH 600 0
DWIDTH 7 0
BBX 7 8 0 0
BITMAP
7800
1C20
28A0
BD40
0000
05F4
35F4
51F0
ENDCHAR
STARTCHAR uni2157
ENCODING 8535
SWIDTH 600 0
DWIDTH 7 0
BBX 7 8 0 0
BITMAP
7800
1C20
28A0
7C40
0000
05F4
35F4
51F0
ENDCHAR
STARTCHAR uni2158
ENCODING 8536
SWIDTH 600 0
DWIDTH 7 0
BBX 7 8 0 0
BITMAP
2000
6C20
BEA0
0C40
0000
05F4
35F4
51F0
ENDCHAR
STARTCHAR uni2159
ENCODING 8537
SWIDTH 600 0
DWIDTH 7 0
BBX 7 7 0 0
BITMAP
7820
28A0
2840
00B0
0680
36F4
51F0
ENDCHAR
STARTCHAR uni215A
ENCODING 8538
SWIDTH 600 0
DWIDTH 7 0
BBX 7 7 0 0
BITMAP
7C20
7CA0
7840
00B0
0680
36F4
51F0
ENDCHAR
STARTCHAR oneeighth
ENCODING 8539
SWIDTH 600 0
DWIDTH 7 0
BBX 7 7 0 0
BITMAP
7820
28A0
2840
01F0
05F0
35B4
51F0
ENDCHAR
STARTCHAR threeeighths
ENCODING 8540
SWIDTH 600 0
DWIDTH 7 0
BBX 7 8 0 0
BITMAP
7800
1C20
28A0
7C40
01F0
05F0
35B4
51F0
ENDCHAR
STARTCHAR fiveeighths
ENCODING 8541
SWIDTH 600 0
DWIDTH 7 0
BBX 7 7 0 0
BITMAP
7C20
7CA0
7840
01F0
05F0
35B4
51F0
ENDCHAR
STARTCHAR seveneighths
ENCODING 8542
SWIDTH 600 0
DWIDTH 7 0
BBX 7 7 0 0
BITMAP
BD20
18A0
3440
01F0
05F0
35B4
51F0
ENDCHAR
STARTCHAR uni2189
ENCODING 8585
SWIDTH 600 0
DWIDTH 7 0
BBX 6 8 0 0
BITMAP
7800
9920
99A0
7840
01E0
0430
34B0
51F0
ENDCHAR
STARTCHAR uni2190
ENCODING 8592
SWIDTH 600 0
DWIDTH 7 0
BBX 7 5 0 0
BITMAP
0A00
2800
BFF4
2800
0A00
ENDCHAR
STARTCHAR arrowup
ENCODING 8593
SWIDTH 600 0
DWIDTH 7 0
BBX 6 6 0 0
BITMAP
0600
1F80
7BA0
5720
0700
0700
ENDCHAR
STARTCHAR uni2192
ENCODING 8594
SWIDTH 600 0
DWIDTH 7 0
BBX 7 5 0 0
BITMAP
0340
01D0
BFF4
01D0
0340
ENDCHAR
STARTCHAR arrowdown
ENCODING 8595
SWIDTH 600 0
DWIDTH 7 0
BBX 6 6 0 0
BITMAP
0700
0700
5720
7BA0
1F80
0600
ENDCHAR
STARTCHAR arrowboth
ENCODING 8596
SWIDTH 600 0
DWIDTH 7 0
BBX 7 5 0 0
BITMAP
1480
70B0
FFF8
70B0
1480
ENDCHAR
STARTCHAR arrowupdn
ENCODING 8597
SWIDTH 600 0
DWIDTH 7 0
BBX 5 7 1 -1
BITMAP
1800
BF40
9D40
1C00
9D40
BF40
1800
ENDCHAR
STARTCHAR uni2196
ENCODING 8598
SWIDTH 600 0
DWIDTH 7 0
BBX 5 5 1 0
BITMAP
FF40
F900
ED00
D740
4140
ENDCHAR
STARTCHAR uni2197
ENCODING 8599
SWIDTH 600 0
DWIDTH 7 0
BBX 5 5 1 0
BITMAP
BF40
5F40
2E40
B240
8100
ENDCHAR
STARTCHAR uni2198
ENCODING 8600
SWIDTH 600 0
DWIDTH 7 0
BBX 5 5 1 0
BITMAP
E240
7A80
1F80
AF80
5540
ENDCHAR
STARTCHAR uni2199
ENCODING 8601
SWIDTH 600 0
DWIDTH 7 0
BBX 5 5 1 0
BITMAP
9280
9B00
FC00
FA40
5500
ENDCHAR
STARTCHAR arrowupdnbse
ENCODING 8616
SWIDTH 600 0
DWIDTH 7 0
BBX 6 8 0 -2
BITMAP
0B40
2FD0
1750
0700
3BA0
1F80
0100
7FF0
ENDCHAR
STARTCHAR uni21D0
ENCODING 8656
SWIDTH 600 0
DWIDTH 7 0
BBX 7 7 0 -1
BITMAP
0100
0A00
2FF4
A000
2FF4
0A00
0100
ENDCHAR
STARTCHAR uni21D1
ENCODING 8657
SWIDTH 600 0
DWIDTH 7 0
BBX 6 6 0 0
BITMAP
0600
1E80
7DE0
5DA0
0D80
0D80
ENDCHAR
STARTCHAR uni21D2
ENCODING 8658
SWIDTH 600 0
DWIDTH 7 0
BBX 7 7 0 -1
BITMAP
0100
0380
BFD0
0074
BFD0
0380
0100
ENDCHAR
STARTCHAR uni21D3
ENCODING 8659
SWIDTH 600 0
DWIDTH 7 0
BBX 6 6 0 0
BITMAP
0D80
0D80
5DA0
7DE0
1E80
0600
ENDCHAR
STARTCHAR uni2200
ENCODING 8704
SWIDTH 600 0
DWIDTH 7 0
BBX 7 7 0 0
BITMAP
B074
74B0
3FE0
28D0
1DC0
0E80
0F40
ENDCHAR
STARTCHAR partialdiff
ENCODING 8706
SWIDTH 600 0
DWIDTH 7 0
BBX 6 7 0 0
BITMAP
1F80
04E0
00B0
1FB0
74E0
75D0
2F40
ENDCHAR
STARTCHAR uni2203
ENCODING 8707
SWIDTH 600 0
DWIDTH 7 0
BBX 6 7 0 0
BITMAP
3FE0
00E0
00E0
2FE0
00E0
00E0
7FE0
ENDCHAR
STARTCHAR uni2206
ENCODING 8710
SWIDTH 600 0
DWIDTH 7 0
BBX 7 7 0 0
BITMAP
0F40
1E80
1DC0
29D0
34E0
74B0
BFF4
ENDCHAR
STARTCHAR product
ENCODING 8719
SWIDTH 600 0
DWIDTH 7 0
BBX 7 8 0 -1
BITMAP
BFF4
B074
B074
B074
B074
B074
B074
B074
ENDCHAR
STARTCHAR summation
ENCODING 8721
SWIDTH 600 0
DWIDTH 7 0
BBX 6 8 0 -1
BITMAP
7FF0
2C00
0E00
0740
0740
0E00
2C00
7FF0
ENDCHAR
STARTCHAR minus
ENCODING 8722
SWIDTH 600 0
DWIDTH 7 0
BBX 6 1 0 3
BITMAP
7FE0
ENDCHAR
STARTCHAR uni2215
ENCODING 8725
SWIDTH 600 0
DWIDTH 7 0
BBX 6 7 0 0
BITMAP
0020
00A0
0040
0000
0400
3400
5000
ENDCHAR
STARTCHAR uni2219
ENCODING 8729
SWIDTH 600 0
DWIDTH 7 0
BBX 3 3 2 3
BITMAP
B4
F8
B4
ENDCHAR
STARTCHAR radical
ENCODING 8730
SWIDTH 600 0
DWIDTH 7 0
BBX 7 10 0 -1
BITMAP
0004
0024
0030
0030
0060
6490
1880
0DC0
0A80
0340
ENDCHAR
STARTCHAR infinity
ENCODING 8734
SWIDTH 600 0
DWIDTH 7 0
BBX 7 3 0 2
BITMAP
BFF4
DB28
BAF4
ENDCHAR
STARTCHAR orthogonal
ENCODING 8735
SWIDTH 600 0
DWIDTH 7 0
BBX 6 5 0 1
BITMAP
7000
7000
7000
7000
7FE0
ENDCHAR
STARTCHAR intersection
ENCODING 8745
SWIDTH 600 0
DWIDTH 7 0
BBX 6 6 0 0
BITMAP
1F80
34A0
7060
7060
7060
1000
ENDCHAR
STARTCHAR integral
ENCODING 8747
SWIDTH 600 0
DWIDTH 7 0
BBX 4 11 1 -2
BITMAP
0B
1C
2C
2C
1C
1C
1D
1D
0D
1C
78
ENDCHAR
STARTCHAR uni2237
ENCODING 8759
SWIDTH 600 0
DWIDTH 7 0
BBX 6 6 0 1
BITMAP
78E0
7DF0
78E0
78E0
7DF0
78E0
ENDCHAR
STARTCHAR approxequal
ENCODING 8776
SWIDTH 600 0
DWIDTH 7 0
BBX 6 4 0 2
BITMAP
2D60
62D0
2D60
62D0
ENDCHAR
STARTCHAR notequal
ENCODING 8800
SWIDTH 600 0
DWIDTH 7 0
BBX 6 5 0 1
BITMAP
0090
7FE0
0600
7FE0
2400
ENDCHAR
STARTCHAR equivalence
ENCODING 8801
SWIDTH 600 0
DWIDTH 7 0
BBX 6 7 0 0
BITMAP
7FE0
0000
0000
7FE0
0000
0000
7FE0
ENDCHAR
STARTCHAR lessequal
ENCODING 8804
SWIDTH 600 0
DWIDTH 7 0
BBX 6 6 0 0
BITMAP
0050
1B90
7D00
1B90
0050
7FE0
ENDCHAR
STARTCHAR greaterequal
ENCODING 8805
SWIDTH 600 0
DWIDTH 7 0
BBX 6 6 0 0
BITMAP
1000
2E40
01E0
2E40
1000
7FE0
ENDCHAR
STARTCHAR house
ENCODING 8962
SWIDTH 600 0
DWIDTH 7 0
BBX 7 7 0 0
BITMAP
0B40
1DC0
34A0
A074
A034
A034
BFF4
ENDCHAR
STARTCHAR revlogicalnot
ENCODING 8976
SWIDTH 600 0
DWIDTH 7 0
BBX 6 3 0 1
BITMAP
7FE0
7000
7000
ENDCHAR
STARTCHAR uni231C
ENCODING 8988
SWIDTH 600 0
DWIDTH 7 0
BBX 4 8 2 0
BITMAP
BD
90
90
90
90
90
90
90
ENDCHAR
STARTCHAR uni231D
ENCODING 8989
SWIDTH 600 0
DWIDTH 7 0
BBX 4 8 1 0
BITMAP
FD
09
09
09
09
09
09
09
ENDCHAR
STARTCHAR uni231E
ENCODING 8990
SWIDTH 600 0
DWIDTH 7 0
BBX 4 9 2 -2
BITMAP
50
90
90
90
90
90
90
90
BD
ENDCHAR
STARTCHAR uni231F
ENCODING 8991
SWIDTH 600 0
DWIDTH 7 0
BBX 4 9 1 -2
BITMAP
05
09
09
09
09
09
09
09
FD
ENDCHAR
STARTCHAR integraltp
ENCODING 8992
SWIDTH 600 0
DWIDTH 7 0
BBX 4 13 2 -4
BITMAP
2D
74
70
70
70
70
70
70
70
70
70
70
70
ENDCHAR
STARTCHAR integralbt
ENCODING 8993
SWIDTH 600 0
DWIDTH 7 0
BBX 3 13 1 -2
BITMAP
18
1C
1C
1C
1C
1C
1C
1C
1C
1C
1C
2C
B4
ENDCHAR
STARTCHAR uni2500
ENCODING 9472
SWIDTH 600 0
DWIDTH 7 0
BBX 9 1 -1 3
BITMAP
BFFF40
ENDCHAR
STARTCHAR uni2501
ENCODING 9473
SWIDTH 600 0
DWIDTH 7 0
BBX 9 3 -1 2
BITMAP
BFFF40
BFFF40
BFFF40
ENDCHAR
STARTCHAR uni2502
ENCODING 9474
SWIDTH 600 0
DWIDTH 7 0
BBX 2 15 2 -4
BITMAP
70
70
70
70
70
70
70
70
70
70
70
70
70
70
70
ENDCHAR
STARTCHAR uni2503
ENCODING 9475
SWIDTH 600 0
DWIDTH 7 0
BBX 4 15 1 -4
BITMAP
7E
7E
7E
7E
7E
7E
7E
7E
7E
7E
7E
7E
7E
7E
7E
ENDCHAR
STARTCHAR uni2504
ENCODING 9476
SWIDTH 600 0
DWIDTH 7 0
BBX 7 1 0 3
BITMAP
B774
ENDCHAR
STARTCHAR uni2505
ENCODING 9477
SWIDTH 600 0
DWIDTH 7 0
BBX 7 3 0 2
BITMAP
B774
B774
B774
ENDCHAR
STARTCHAR uni2506
ENCODING 9478
SWIDTH 600 0
DWIDTH 7 0
BBX 2 12 2 -3
BITMAP
70
70
70
00
70
70
70
00
00
70
70
70
ENDCHAR
STARTCHAR uni2507
ENCODING 9479
SWIDTH 600 0
DWIDTH 7 0
BBX 4 12 1 -3
BITMAP
7E
7E
7E
00
7E
7E
7E
00
00
7E
7E
7E
ENDCHAR
STARTCHAR uni2508
ENCODING 9480
SWIDTH 600 0
DWIDTH 7 0
BBX 7 1 0 3
BITMAP
AEB4
ENDCHAR
STARTCHAR uni2509
ENCODING 9481
SWIDTH 600 0
DWIDTH 7 0
BBX 7 3 0 2
BITMAP
AEB4
AEB4
AEB4
ENDCHAR
STARTCHAR uni250A
ENCODING 9482
SWIDTH 600 0
DWIDTH 7 0
BBX 2 12 2 -3
BITMAP
70
70
00
70
70
00
70
70
00
00
70
70
ENDCHAR
STARTCHAR uni250B
ENCODING 9483
SWIDTH 600 0
DWIDTH 7 0
BBX 4 12 1 -3
BITMAP
7E
7E
00
7E
7E
00
7E
7E
00
00
7E
7E
ENDCHAR
STARTCHAR uni250C
ENCODING 9484
SWIDTH 600 0
DWIDTH 7 0
BBX 6 8 2 -4
BITMAP
7FD0
7000
7000
7000
7000
7000
7000
7000
ENDCHAR
STARTCHAR uni250D
ENCODING 9485
SWIDTH 600 0
DWIDTH 7 0
BBX 6 10 2 -5
BITMAP
7FD0
7FD0
7FD0
7000
7000
7000
7000
7000
7000
1000
ENDCHAR
STARTCHAR uni250E
ENCODING 9486
SWIDTH 600 0
DWIDTH 7 0
BBX 7 8 1 -4
BITMAP
7FF4
7E00
7E00
7E00
7E00
7E00
7E00
7E00
ENDCHAR
STARTCHAR uni250F
ENCODING 9487
SWIDTH 600 0
DWIDTH 7 0
BBX 7 10 1 -5
BITMAP
7FF4
7FF4
7FF4
7E00
7E00
7E00
7E00
7E00
7E00
1400
ENDCHAR
STARTCHAR uni2510
ENCODING 9488
SWIDTH 600 0
DWIDTH 7 0
BBX 5 8 -1 -4
BITMAP
BFC0
01C0
01C0
01C0
01C0
01C0
01C0
01C0
ENDCHAR
STARTCHAR uni2511
ENCODING 9489
SWIDTH 600 0
DWIDTH 7 0
BBX 5 10 -1 -5
BITMAP
BFC0
BFC0
BFC0
01C0
01C0
01C0
01C0
01C0
01C0
0040
ENDCHAR
STARTCHAR uni2512
ENCODING 9490
SWIDTH 600 0
DWIDTH 7 0
BBX 6 8 -1 -4
BITMAP
BFE0
07E0
07E0
07E0
07E0
07E0
07E0
07E0
ENDCHAR
STARTCHAR uni2513
ENCODING 9491
SWIDTH 600 0
DWIDTH 7 0
BBX 6 10 -1 -5
BITMAP
BFE0
BFE0
BFE0
07E0
07E0
07E0
07E0
07E0
07E0
0140
ENDCHAR
STARTCHAR uni2514
ENCODING 9492
SWIDTH 600 0
DWIDTH 7 0
BBX 6 8 2 3
BITMAP
7000
7000
7000
7000
7000
7000
7000
7FD0
ENDCHAR
STARTCHAR uni2515
ENCODING 9493
SWIDTH 600 0
DWIDTH 7 0
BBX 6 10 2 2
BITMAP
1000
7000
7000
7000
7000
7000
7000
7FD0
7FD0
7FD0
ENDCHAR
STARTCHAR uni2516
ENCODING 9494
SWIDTH 600 0
DWIDTH 7 0
BBX 7 8 1 3
BITMAP
7E00
7E00
7E00
7E00
7E00
7E00
7E00
7FF4
ENDCHAR
STARTCHAR uni2517
ENCODING 9495
SWIDTH 600 0
DWIDTH 7 0
BBX 7 10 1 2
BITMAP
1400
7E00
7E00
7E00
7E00
7E00
7E00
7FF4
7FF4
7FF4
ENDCHAR
STARTCHAR uni2518
ENCODING 9496
SWIDTH 600 0
DWIDTH 7 0
BBX 5 8 -1 3
BITMAP
01C0
01C0
01C0
01C0
01C0
01C0
01C0
BFC0
ENDCHAR
STARTCHAR uni2519
ENCODING 9497
SWIDTH 600 0
DWIDTH 7 0
BBX 5 10 -1 2
BITMAP
0040
01C0
01C0
01C0
01C0
01C0
01C0
BFC0
BFC0
BFC0
ENDCHAR
STARTCHAR uni251A
ENCODING 9498
SWIDTH 600 0
DWIDTH 7 0
BBX 6 8 -1 3
BITMAP
07E0
07E0
07E0
07E0
07E0
07E0
07E0
BFE0
ENDCHAR
STARTCHAR uni251B
ENCODING 9499
SWIDTH 600 0
DWIDTH 7 0
BBX 6 10 -1 2
BITMAP
0140
07E0
07E0
07E0
07E0
07E0
07E0
BFE0
BFE0
BFE0
ENDCHAR
STARTCHAR uni251C
ENCODING 9500
SWIDTH 600 0
DWIDTH 7 0
BBX 6 15 2 -4
BITMAP
7000
7000
7000
7000
7000
7000
7000
7FD0
7000
7000
7000
7000
7000
7000
7000
ENDCHAR
STARTCHAR uni251D
ENCODING 9501
SWIDTH 600 0
DWIDTH 7 0
BBX 6 17 2 -5
BITMAP
1000
7000
7000
7000
7000
7000
7000
7FD0
7FD0
7FD0
7000
7000
7000
7000
7000
7000
1000
ENDCHAR
STARTCHAR uni251E
ENCODING 9502
SWIDTH 600 0
DWIDTH 7 0
BBX 7 15 1 -4
BITMAP
7E00
7E00
7E00
7E00
7E00
7E00
7E00
7FF4
1C00
1C00
1C00
1C00
1C00
1C00
1C00
ENDCHAR
STARTCHAR uni251F
ENCODING 9503
SWIDTH 600 0
DWIDTH 7 0
BBX 7 15 1 -4
BITMAP
1C00
1C00
1C00
1C00
1C00
1C00
1C00
7FF4
7E00
7E00
7E00
7E00
7E00
7E00
7E00
ENDCHAR
STARTCHAR uni2520
ENCODING 9504
SWIDTH 600 0
DWIDTH 7 0
BBX 7 15 1 -4
BITMAP
7E00
7E00
7E00
7E00
7E00
7E00
7E00
7FF4
7E00
7E00
7E00
7E00
7E00
7E00
7E00
ENDCHAR
STARTCHAR uni2521
ENCODING 9505
SWIDTH 600 0
DWIDTH 7 0
BBX 7 17 1 -5
BITMAP
1400
7E00
7E00
7E00
7E00
7E00
7E00
7FF4
7FF4
7FF4
1C00
1C00
1C00
1C00
1C00
1C00
0400
ENDCHAR
STARTCHAR uni2522
ENCODING 9506
SWIDTH 600 0
DWIDTH 7 0
BBX 7 17 1 -5
BITMAP
0400
1C00
1C00
1C00
1C00
1C00
1C00
7FF4
7FF4
7FF4
7E00
7E00
7E00
7E00
7E00
7E00
1400
ENDCHAR
STARTCHAR uni2523
ENCODING 9507
SWIDTH 600 0
DWIDTH 7 0
BBX 7 17 1 -5
BITMAP
1400
7E00
7E00
7E00
7E00
7E00
7E00
7FF4
7FF4
7FF4
7E00
7E00
7E00
7E00
7E00
7E00
1400
ENDCHAR
STARTCHAR uni2524
ENCODING 9508
SWIDTH 600 0
DWIDTH 7 0
BBX 5 15 -1 -4
BITMAP
01C0
01C0
01C0
01C0
01C0
01C0
01C0
BFC0
01C0
01C0
01C0
01C0
01C0
01C0
01C0
ENDCHAR
STARTCHAR uni2525
ENCODING 9509
SWIDTH 600 0
DWIDTH 7 0
BBX 5 17 -1 -5
BITMAP
0040
01C0
01C0
01C0
01C0
01C0
01C0
BFC0
BFC0
BFC0
01C0
01C0
01C0
01C0
01C0
01C0
0040
ENDCHAR
STARTCHAR uni2526
ENCODING 9510
SWIDTH 600 0
DWIDTH 7 0
BBX 6 15 -1 -4
BITMAP
07E0
07E0
07E0
07E0
07E0
07E0
07E0
BFE0
01C0
01C0
01C0
01C0
01C0
01C0
01C0
ENDCHAR
STARTCHAR uni2527
ENCODING 9511
SWIDTH 600 0
DWIDTH 7 0
BBX 6 15 -1 -4
BITMAP
01C0
01C0
01C0
01C0
01C0
01C0
01C0
BFE0
07E0
07E0
07E0
07E0
07E0
07E0
07E0
ENDCHAR
STARTCHAR uni2528
ENCODING 9512
SWIDTH 600 0
DWIDTH 7 0
BBX 6 15 -1 -4
BITMAP
07E0
07E0
07E0
07E0
07E0
07E0
07E0
BFE0
07E0
07E0
07E0
07E0
07E0
07E0
07E0
ENDCHAR
STARTCHAR uni2529
ENCODING 9513
SWIDTH 600 0
DWIDTH 7 0
BBX 6 17 -1 -5
BITMAP
0140
07E0
07E0
07E0
07E0
07E0
07E0
BFE0
BFE0
BFE0
01C0
01C0
01C0
01C0
01C0
01C0
0040
ENDCHAR
STARTCHAR uni252A
ENCODING 9514
SWIDTH 600 0
DWIDTH 7 0
BBX 6 17 -1 -5
BITMAP
0040
01C0
01C0
01C0
01C0
01C0
01C0
BFE0
BFE0
BFE0
07E0
07E0
07E0
07E0
07E0
07E0
0140
ENDCHAR
STARTCHAR uni252B
ENCODING 9515
SWIDTH 600 0
DWIDTH 7 0
BBX 6 17 -1 -5
BITMAP
0140
07E0
07E0
07E0
07E0
07E0
07E0
BFE0
BFE0
BFE0
07E0
07E0
07E0
07E0
07E0
07E0
0140
ENDCHAR
STARTCHAR uni252C
ENCODING 9516
SWIDTH 600 0
DWIDTH 7 0
BBX 9 8 -1 -4
BITMAP
BFFF40
01C000
01C000
01C000
01C000
01C000
01C000
01C000
ENDCHAR
STARTCHAR uni252D
ENCODING 9517
SWIDTH 600 0
DWIDTH 7 0
BBX 9 10 -1 -5
BITMAP
BFC000
BFFF40
BFC000
01C000
01C000
01C000
01C000
01C000
01C000
004000
ENDCHAR
STARTCHAR uni252E
ENCODING 9518
SWIDTH 600 0
DWIDTH 7 0
BBX 9 10 -1 -5
BITMAP
01FF40
BFFF40
01FF40
01C000
01C000
01C000
01C000
01C000
01C000
004000
ENDCHAR
STARTCHAR uni252F
ENCODING 9519
SWIDTH 600 0
DWIDTH 7 0
BBX 9 10 -1 -5
BITMAP
BFFF40
BFFF40
BFFF40
01C000
01C000
01C000
01C000
01C000
01C000
004000
ENDCHAR
STARTCHAR uni2530
ENCODING 9520
SWIDTH 600 0
DWIDTH 7 0
BBX 9 8 -1 -4
BITMAP
BFFF40
07E000
07E000
07E000
07E000
07E000
07E000
07E000
ENDCHAR
STARTCHAR uni2531
ENCODING 9521
SWIDTH 600 0
DWIDTH 7 0
BBX 9 10 -1 -5
BITMAP
BFE000
BFFF40
BFE000
07E000
07E000
07E000
07E000
07E000
07E000
014000
ENDCHAR
STARTCHAR uni2532
ENCODING 9522
SWIDTH 600 0
DWIDTH 7 0
BBX 9 10 -1 -5
BITMAP
07FF40
BFFF40
07FF40
07E000
07E000
07E000
07E000
07E000
07E000
014000
ENDCHAR
STARTCHAR uni2533
ENCODING 9523
SWIDTH 600 0
DWIDTH 7 0
BBX 9 10 -1 -5
BITMAP
BFFF40
BFFF40
BFFF40
07E000
07E000
07E000
07E000
07E000
07E000
014000
ENDCHAR
STARTCHAR uni2534
ENCODING 9524
SWIDTH 600 0
DWIDTH 7 0
BBX 9 8 -1 3
BITMAP
01C000
01C000
01C000
01C000
01C000
01C000
01C000
BFFF40
ENDCHAR
STARTCHAR uni2535
ENCODING 9525
SWIDTH 600 0
DWIDTH 7 0
BBX 9 10 -1 2
BITMAP
004000
01C000
01C000
01C000
01C000
01C000
01C000
BFC000
BFFF40
BFC000
ENDCHAR
STARTCHAR uni2536
ENCODING 9526
SWIDTH 600 0
DWIDTH 7 0
BBX 9 10 -1 2
BITMAP
004000
01C000
01C000
01C000
01C000
01C000
01C000
01FF40
BFFF40
01FF40
ENDCHAR
STARTCHAR uni2537
ENCODING 9527
SWIDTH 600 0
DWIDTH 7 0
BBX 9 10 -1 2
BITMAP
004000
01C000
01C000
01C000
01C000
01C000
01C000
BFFF40
BFFF40
BFFF40
ENDCHAR
STARTCHAR uni2538
ENCODING 9528
SWIDTH 600 0
DWIDTH 7 0
BBX 9 8 -1 3
BITMAP
07E000
07E000
07E000
07E000
07E000
07E000
07E000
BFFF40
ENDCHAR
STARTCHAR uni2539
ENCODING 9529
SWIDTH 600 0
DWIDTH 7 0
BBX 9 10 -1 2
BITMAP
014000
07E000
07E000
07E000
07E000
07E000
07E000
BFE000
BFFF40
BFE000
ENDCHAR
STARTCHAR uni253A
ENCODING 9530
SWIDTH 600 0
DWIDTH 7 0
BBX 9 10 -1 2
BITMAP
014000
07E000
07E000
07E000
07E000
07E000
07E000
07FF40
BFFF40
07FF40
ENDCHAR
STARTCHAR uni253B
ENCODING 9531
SWIDTH 600 0
DWIDTH 7 0
BBX 9 10 -1 2
BITMAP
014000
07E000
07E000
07E000
07E000
07E000
07E000
BFFF40
BFFF40
BFFF40
ENDCHAR
STARTCHAR uni253C
ENCODING 9532
SWIDTH 600 0
DWIDTH 7 0
BBX 9 15 -1 -4
BITMAP
01C000
01C000
01C000
01C000
01C000
01C000
01C000
BFFF40
01C000
01C000
01C000
01C000
01C000
01C000
01C000
ENDCHAR
STARTCHAR uni253D
ENCODING 9533
SWIDTH 600 0
DWIDTH 7 0
BBX 9 17 -1 -5
BITMAP
004000
01C000
01C000
01C000
01C000
01C000
01C000
BFC000
BFFF40
BFC000
01C000
01C000
01C000
01C000
01C000
01C000
004000
ENDCHAR
STARTCHAR uni253E
ENCODING 9534
SWIDTH 600 0
DWIDTH 7 0
BBX 9 17 -1 -5
BITMAP
004000
01C000
01C000
01C000
01C000
01C000
01C000
01FF40
BFFF40
01FF40
01C000
01C000
01C000
01C000
01C000
01C000
004000
ENDCHAR
STARTCHAR uni253F
ENCODING 9535
SWIDTH 600 0
DWIDTH 7 0
BBX 9 17 -1 -5
BITMAP
004000
01C000
01C000
01C000
01C000
01C000
01C000
BFFF40
BFFF40
BFFF40
01C000
01C000
01C000
01C000
01C000
01C000
004000
ENDCHAR
STARTCHAR uni2540
ENCODING 9536
SWIDTH 600 0
DWIDTH 7 0
BBX 9 15 -1 -4
BITMAP
07E000
07E000
07E000
07E000
07E000
07E000
07E000
BFFF40
01C000
01C000
01C000
01C000
01C000
01C000
01C000
ENDCHAR
STARTCHAR uni2541
ENCODING 9537
SWIDTH 600 0
DWIDTH 7 0
BBX 9 15 -1 -4
BITMAP
01C000
01C000
01C000
01C000
01C000
01C000
01C000
BFFF40
07E000
07E000
07E000
07E000
07E000
07E000
07E000
ENDCHAR
STARTCHAR uni2542
ENCODING 9538
SWIDTH 600 0
DWIDTH 7 0
BBX 9 15 -1 -4
BITMAP
07E000
07E000
07E000
07E000
07E000
07E000
07E000
BFFF40
07E000
07E000
07E000
07E000
07E000
07E000
07E000
ENDCHAR
STARTCHAR uni2543
ENCODING 9539
SWIDTH 600 0
DWIDTH 7 0
BBX 9 17 -1 -5
BITMAP
014000
07E000
07E000
07E000
07E000
07E000
07E000
BFE000
BFFF40
BFE000
01C000
01C000
01C000
01C000
01C000
01C000
004000
ENDCHAR
STARTCHAR uni2544
ENCODING 9540
SWIDTH 600 0
DWIDTH 7 0
BBX 9 17 -1 -5
BITMAP
014000
07E000
07E000
07E000
07E000
07E000
07E000
07FF40
BFFF40
07FF40
01C000
01C000
01C000
01C000
01C000
01C000
004000
ENDCHAR
STARTCHAR uni2545
ENCODING 9541
SWIDTH 600 0
DWIDTH 7 0
BBX 9 17 -1 -5
BITMAP
004000
01C000
01C000
01C000
01C000
01C000
01C000
BFE000
BFFF40
BFE000
07E000
07E000
07E000
07E000
07E000
07E000
014000
ENDCHAR
STARTCHAR uni2546
ENCODING 9542
SWIDTH 600 0
DWIDTH 7 0
BBX 9 17 -1 -5
BITMAP
004000
01C000
01C000
01C000
01C000
01C000
01C000
07FF40
BFFF40
07FF40
07E000
07E000
07E000
07E000
07E000
07E000
014000
ENDCHAR
STARTCHAR uni2547
ENCODING 9543
SWIDTH 600 0
DWIDTH 7 0
BBX 9 17 -1 -5
BITMAP
014000
07E000
07E000
07E000
07E000
07E000
07E000
BFFF40
BFFF40
BFFF40
01C000
01C000
01C000
01C000
01C000
01C000
004000
ENDCHAR
STARTCHAR uni2548
ENCODING 9544
SWIDTH 600 0
DWIDTH 7 0
BBX 9 17 -1 -5
BITMAP
004000
01C000
01C000
01C000
01C000
01C000
01C000
BFFF40
BFFF40
BFFF40
07E000
07E000
07E000
07E000
07E000
07E000
014000
ENDCHAR
STARTCHAR uni2549
ENCODING 9545
SWIDTH 600 0
DWIDTH 7 0
BBX 9 17 -1 -5
BITMAP
014000
07E000
07E000
07E000
07E000
07E000
07E000
BFE000
BFFF40
BFE000
07E000
07E000
07E000
07E000
07E000
07E000
014000
ENDCHAR
STARTCHAR uni254A
ENCODING 9546
SWIDTH 600 0
DWIDTH 7 0
BBX 9 17 -1 -5
BITMAP
014000
07E000
07E000
07E000
07E000
07E000
07E000
07FF40
BFFF40
07FF40
07E000
07E000
07E000
07E000
07E000
07E000
014000
ENDCHAR
STARTCHAR uni254B
ENCODING 9547
SWIDTH 600 0
DWIDTH 7 0
BBX 9 17 -1 -5
BITMAP
014000
07E000
07E000
07E000
07E000
07E000
07E000
BFFF40
BFFF40
BFFF40
07E000
07E000
07E000
07E000
07E000
07E000
014000
ENDCHAR
STARTCHAR uni254C
ENCODING 9548
SWIDTH 600 0
DWIDTH 7 0
BBX 6 1 0 3
BITMAP
74E0
ENDCHAR
STARTCHAR uni254D
ENCODING 9549
SWIDTH 600 0
DWIDTH 7 0
BBX 6 3 0 2
BITMAP
74E0
74E0
74E0
ENDCHAR
STARTCHAR uni254E
ENCODING 9550
SWIDTH 600 0
DWIDTH 7 0
BBX 2 10 2 -2
BITMAP
70
70
70
00
00
00
60
70
70
60
ENDCHAR
STARTCHAR uni254F
ENCODING 9551
SWIDTH 600 0
DWIDTH 7 0
BBX 4 10 1 -2
BITMAP
7E
7E
7E
00
00
00
00
7E
7E
7E
ENDCHAR
STARTCHAR uni2550
ENCODING 9552
SWIDTH 600 0
DWIDTH 7 0
BBX 9 4 -1 1
BITMAP
BFFF40
000000
000000
BFFF40
ENDCHAR
STARTCHAR uni2551
ENCODING 9553
SWIDTH 600 0
DWIDTH 7 0
BBX 5 15 1 -4
BITMAP
E380
E380
E380
E380
E380
E380
E380
E380
E380
E380
E380
E380
E380
E380
E380
ENDCHAR
STARTCHAR uni2552
ENCODING 9554
SWIDTH 600 0
DWIDTH 7 0
BBX 6 10 2 -5
BITMAP
7FD0
7000
7000
7FD0
7000
7000
7000
7000
7000
5000
ENDCHAR
STARTCHAR uni2553
ENCODING 9555
SWIDTH 600 0
DWIDTH 7 0
BBX 7 8 1 -4
BITMAP
FFF4
E380
E380
E380
E380
E380
E380
E380
ENDCHAR
STARTCHAR uni2554
ENCODING 9556
SWIDTH 600 0
DWIDTH 7 0
BBX 7 10 1 -5
BITMAP
FFF4
E000
E000
E3F4
E380
E380
E380
E380
E380
5140
ENDCHAR
STARTCHAR uni2555
ENCODING 9557
SWIDTH 600 0
DWIDTH 7 0
BBX 5 10 -1 -5
BITMAP
BFC0
01C0
01C0
BFC0
01C0
01C0
01C0
01C0
01C0
0140
ENDCHAR
STARTCHAR uni2556
ENCODING 9558
SWIDTH 600 0
DWIDTH 7 0
BBX 7 8 -1 -4
BITMAP
BFF8
0E38
0E38
0E38
0E38
0E38
0E38
0E38
ENDCHAR
STARTCHAR uni2557
ENCODING 9559
SWIDTH 600 0
DWIDTH 7 0
BBX 7 10 -1 -5
BITMAP
BFF8
0038
0038
BE38
0E38
0E38
0E38
0E38
0E38
0514
ENDCHAR
STARTCHAR uni2558
ENCODING 9560
SWIDTH 600 0
DWIDTH 7 0
BBX 6 10 2 1
BITMAP
5000
7000
7000
7000
7000
7000
7FD0
7000
7000
7FD0
ENDCHAR
STARTCHAR uni2559
ENCODING 9561
SWIDTH 600 0
DWIDTH 7 0
BBX 7 8 1 3
BITMAP
E380
E380
E380
E380
E380
E380
E380
FFF4
ENDCHAR
STARTCHAR uni255A
ENCODING 9562
SWIDTH 600 0
DWIDTH 7 0
BBX 7 10 1 1
BITMAP
5140
E380
E380
E380
E380
E380
E3F4
E000
E000
FFF4
ENDCHAR
STARTCHAR uni255B
ENCODING 9563
SWIDTH 600 0
DWIDTH 7 0
BBX 5 10 -1 1
BITMAP
0140
01C0
01C0
01C0
01C0
01C0
BFC0
01C0
01C0
BFC0
ENDCHAR
STARTCHAR uni255C
ENCODING 9564
SWIDTH 600 0
DWIDTH 7 0
BBX 7 8 -1 3
BITMAP
0E38
0E38
0E38
0E38
0E38
0E38
0E38
BFF8
ENDCHAR
STARTCHAR uni255D
ENCODING 9565
SWIDTH 600 0
DWIDTH 7 0
BBX 7 10 -1 1
BITMAP
0514
0E38
0E38
0E38
0E38
0E38
BE38
0038
0038
BFF8
ENDCHAR
STARTCHAR uni255E
ENCODING 9566
SWIDTH 600 0
DWIDTH 7 0
BBX 6 16 2 -5
BITMAP
5000
7000
7000
7000
7000
7000
7FD0
7000
7000
7FD0
7000
7000
7000
7000
7000
5000
ENDCHAR
STARTCHAR uni255F
ENCODING 9567
SWIDTH 600 0
DWIDTH 7 0
BBX 7 16 1 -5
BITMAP
E380
E380
E380
E380
E380
E380
E380
E3F4
E380
E380
E380
E380
E380
E380
E380
5000
ENDCHAR
STARTCHAR uni2560
ENCODING 9568
SWIDTH 600 0
DWIDTH 7 0
BBX 7 16 1 -5
BITMAP
E140
E380
E380
E380
E380
E380
E3F4
E000
E000
E3F4
E380
E380
E380
E380
E380
5140
ENDCHAR
STARTCHAR uni2561
ENCODING 9569
SWIDTH 600 0
DWIDTH 7 0
BBX 5 16 -1 -5
BITMAP
0140
01C0
01C0
01C0
01C0
01C0
BFC0
01C0
01C0
BFC0
01C0
01C0
01C0
01C0
01C0
0140
ENDCHAR
STARTCHAR uni2562
ENCODING 9570
SWIDTH 600 0
DWIDTH 7 0
BBX 7 16 -1 -5
BITMAP
0E38
0E38
0E38
0E38
0E38
0E38
0E38
BE38
0E38
0E38
0E38
0E38
0E38
0E38
0E38
0014
ENDCHAR
STARTCHAR uni2563
ENCODING 9571
SWIDTH 600 0
DWIDTH 7 0
BBX 7 16 -1 -5
BITMAP
0538
0E38
0E38
0E38
0E38
0E38
BE38
0038
0038
BE38
0E38
0E38
0E38
0E38
0E38
0514
ENDCHAR
STARTCHAR uni2564
ENCODING 9572
SWIDTH 600 0
DWIDTH 7 0
BBX 9 10 -1 -5
BITMAP
BFFF40
000000
000000
BFFF40
01C000
01C000
01C000
01C000
01C000
014000
ENDCHAR
STARTCHAR uni2565
ENCODING 9573
SWIDTH 600 0
DWIDTH 7 0
BBX 9 8 -1 -4
BITMAP
BFFF40
0E3800
0E3800
0E3800
0E3800
0E3800
0E3800
0E3800
ENDCHAR
STARTCHAR uni2566
ENCODING 9574
SWIDTH 600 0
DWIDTH 7 0
BBX 9 10 -1 -5
BITMAP
BFFF40
000000
000000
BE3F40
0E3800
0E3800
0E3800
0E3800
0E3800
051400
ENDCHAR
STARTCHAR uni2567
ENCODING 9575
SWIDTH 600 0
DWIDTH 7 0
BBX 9 10 -1 1
BITMAP
014000
01C000
01C000
01C000
01C000
01C000
BFFF40
000000
000000
BFFF40
ENDCHAR
STARTCHAR uni2568
ENCODING 9576
SWIDTH 600 0
DWIDTH 7 0
BBX 9 8 -1 3
BITMAP
0E3800
0E3800
0E3800
0E3800
0E3800
0E3800
0E3800
BFFF40
ENDCHAR
STARTCHAR uni2569
ENCODING 9577
SWIDTH 600 0
DWIDTH 7 0
BBX 9 10 -1 1
BITMAP
051400
0E3800
0E3800
0E3800
0E3800
0E3800
BE3F40
000000
000000
BFFF40
ENDCHAR
STARTCHAR uni256A
ENCODING 9578
SWIDTH 600 0
DWIDTH 7 0
BBX 9 16 -1 -5
BITMAP
014000
01C000
01C000
01C000
01C000
01C000
BFFF40
01C000
01C000
BFFF40
01C000
01C000
01C000
01C000
01C000
014000
ENDCHAR
STARTCHAR uni256B
ENCODING 9579
SWIDTH 600 0
DWIDTH 7 0
BBX 9 15 -1 -4
BITMAP
0E3800
0E3800
0E3800
0E3800
0E3800
0E3800
0E3800
BFFF40
0E3800
0E3800
0E3800
0E3800
0E3800
0E3800
0E3800
ENDCHAR
STARTCHAR uni256C
ENCODING 9580
SWIDTH 600 0
DWIDTH 7 0
BBX 9 16 -1 -5
BITMAP
051400
0E3800
0E3800
0E3800
0E3800
0E3800
BE3F40
000000
000000
BE3F40
0E3800
0E3800
0E3800
0E3800
0E3800
051400
ENDCHAR
STARTCHAR uni256D
ENCODING 9581
SWIDTH 600 0
DWIDTH 7 0
BBX 6 8 2 -4
BITMAP
0BD0
3D00
7400
7000
7000
7000
7000
7000
ENDCHAR
STARTCHAR uni256E
ENCODING 9582
SWIDTH 600 0
DWIDTH 7 0
BBX 5 8 -1 -4
BITMAP
B900
0B40
02C0
01C0
01C0
01C0
01C0
01C0
ENDCHAR
STARTCHAR uni256F
ENCODING 9583
SWIDTH 600 0
DWIDTH 7 0
BBX 5 8 -1 3
BITMAP
01C0
01C0
01C0
01C0
01C0
02C0
0B40
B900
ENDCHAR
STARTCHAR uni2570
ENCODING 9584
SWIDTH 600 0
DWIDTH 7 0
BBX 6 8 2 3
BITMAP
7000
7000
7000
7000
7000
7400
3D00
0BD0
ENDCHAR
STARTCHAR uni2571
ENCODING 9585
SWIDTH 600 0
DWIDTH 7 0
BBX 7 13 0 -3
BITMAP
0018
0038
00B4
00E0
02C0
0380
0B00
0E00
2C00
3800
B000
E000
C000
ENDCHAR
STARTCHAR uni2572
ENCODING 9586
SWIDTH 600 0
DWIDTH 7 0
BBX 7 13 0 -3
BITMAP
C000
E000
B000
3800
2C00
0E00
0B00
0380
02C0
00E0
00B4
0038
0018
ENDCHAR
STARTCHAR uni2573
ENCODING 9587
SWIDTH 600 0
DWIDTH 7 0
BBX 7 13 0 -3
BITMAP
C018
E038
B074
38E0
2EC0
0F80
0B40
0F80
2EC0
38E0
B074
E038
C018
ENDCHAR
STARTCHAR uni2574
ENCODING 9588
SWIDTH 600 0
DWIDTH 7 0
BBX 5 1 -1 3
BITMAP
BFC0
ENDCHAR
STARTCHAR uni2575
ENCODING 9589
SWIDTH 600 0
DWIDTH 7 0
BBX 2 8 2 3
BITMAP
70
70
70
70
70
70
70
70
ENDCHAR
STARTCHAR uni2576
ENCODING 9590
SWIDTH 600 0
DWIDTH 7 0
BBX 6 1 2 3
BITMAP
7FD0
ENDCHAR
STARTCHAR uni2577
ENCODING 9591
SWIDTH 600 0
DWIDTH 7 0
BBX 2 8 2 -4
BITMAP
70
70
70
70
70
70
70
70
ENDCHAR
STARTCHAR uni2578
ENCODING 9592
SWIDTH 600 0
DWIDTH 7 0
BBX 5 3 -1 2
BITMAP
BFC0
BFC0
BFC0
ENDCHAR
STARTCHAR uni2579
ENCODING 9593
SWIDTH 600 0
DWIDTH 7 0
BBX 4 8 1 3
BITMAP
7E
7E
7E
7E
7E
7E
7E
7E
ENDCHAR
STARTCHAR uni257A
ENCODING 9594
SWIDTH 600 0
DWIDTH 7 0
BBX 6 3 2 2
BITMAP
7FD0
7FD0
7FD0
ENDCHAR
STARTCHAR uni257B
ENCODING 9595
SWIDTH 600 0
DWIDTH 7 0
BBX 4 8 1 -4
BITMAP
7E
7E
7E
7E
7E
7E
7E
7E
ENDCHAR
STARTCHAR uni257C
ENCODING 9596
SWIDTH 600 0
DWIDTH 7 0
BBX 9 3 -1 2
BITMAP
01AA40
BFFF40
01AA40
ENDCHAR
STARTCHAR uni257D
ENCODING 9597
SWIDTH 600 0
DWIDTH 7 0
BBX 4 15 1 -4
BITMAP
1C
1C
1C
1C
1C
1C
2D
7E
7E
7E
7E
7E
7E
7E
7E
ENDCHAR
STARTCHAR uni257E
ENCODING 9598
SWIDTH 600 0
DWIDTH 7 0
BBX 9 3 -1 2
BITMAP
AA8000
BFFF40
AA8000
ENDCHAR
STARTCHAR uni257F
ENCODING 9599
SWIDTH 600 0
DWIDTH 7 0
BBX 4 15 1 -4
BITMAP
7E
7E
7E
7E
7E
7E
7E
7E
2D
1C
1C
1C
1C
1C
1C
ENDCHAR
STARTCHAR uni2580
ENCODING 9600
SWIDTH 600 0
DWIDTH 7 0
BBX 7 8 0 3
BITMAP
FFF8
FFF8
FFF8
FFF8
FFF8
FFF8
FFF8
FFF8
ENDCHAR
STARTCHAR uni2581
ENCODING 9601
SWIDTH 600 0
DWIDTH 7 0
BBX 7 2 0 -4
BITMAP
FFF8
FFF8
ENDCHAR
STARTCHAR uni2582
ENCODING 9602
SWIDTH 600 0
DWIDTH 7 0
BBX 7 3 0 -4
BITMAP
FFF8
FFF8
FFF8
ENDCHAR
STARTCHAR uni2583
ENCODING 9603
SWIDTH 600 0
DWIDTH 7 0
BBX 7 5 0 -4
BITMAP
FFF8
FFF8
FFF8
FFF8
FFF8
ENDCHAR
STARTCHAR uni2584
ENCODING 9604
SWIDTH 600 0
DWIDTH 7 0
BBX 7 7 0 -4
BITMAP
FFF8
FFF8
FFF8
FFF8
FFF8
FFF8
FFF8
ENDCHAR
STARTCHAR uni2585
ENCODING 9605
SWIDTH 600 0
DWIDTH 7 0
BBX 7 9 0 -4
BITMAP
FFF8
FFF8
FFF8
FFF8
FFF8
FFF8
FFF8
FFF8
FFF8
ENDCHAR
STARTCHAR uni2586
ENCODING 9606
SWIDTH 600 0
DWIDTH 7 0
BBX 7 11 0 -4
BITMAP
FFF8
FFF8
FFF8
FFF8
FFF8
FFF8
FFF8
FFF8
FFF8
FFF8
FFF8
ENDCHAR
STARTCHAR uni2587
ENCODING 9607
SWIDTH 600 0
DWIDTH 7 0
BBX 7 13 0 -4
BITMAP
FFF8
FFF8
FFF8
FFF8
FFF8
FFF8
FFF8
FFF8
FFF8
FFF8
FFF8
FFF8
FFF8
ENDCHAR
STARTCHAR uni2588
ENCODING 9608
SWIDTH 600 0
DWIDTH 7 0
BBX 7 15 0 -4
BITMAP
FFF8
FFF8
FFF8
FFF8
FFF8
FFF8
FFF8
FFF8
FFF8
FFF8
FFF8
FFF8
FFF8
FFF8
FFF8
ENDCHAR
STARTCHAR uni2589
ENCODING 9609
SWIDTH 600 0
DWIDTH 7 0
BBX 6 15 0 -4
BITMAP
FFE0
FFE0
FFE0
FFE0
FFE0
FFE0
FFE0
FFE0
FFE0
FFE0
FFE0
FFE0
FFE0
FFE0
FFE0
ENDCHAR
STARTCHAR uni258A
ENCODING 9610
SWIDTH 600 0
DWIDTH 7 0
BBX 5 15 0 -4
BITMAP
FFC0
FFC0
FFC0
FFC0
FFC0
FFC0
FFC0
FFC0
FFC0
FFC0
FFC0
FFC0
FFC0
FFC0
FFC0
ENDCHAR
STARTCHAR uni258B
ENCODING 9611
SWIDTH 600 0
DWIDTH 7 0
BBX 4 15 0 -4
BITMAP
FF
FF
FF
FF
FF
FF
FF
FF
FF
FF
FF
FF
FF
FF
FF
ENDCHAR
STARTCHAR uni258C
ENCODING 9612
SWIDTH 600 0
DWIDTH 7 0
BBX 4 15 0 -4
BITMAP
FD
FD
FD
FD
FD
FD
FD
FD
FD
FD
FD
FD
FD
FD
FD
ENDCHAR
STARTCHAR uni258D
ENCODING 9613
SWIDTH 600 0
DWIDTH 7 0
BBX 3 15 0 -4
BITMAP
F4
F4
F4
F4
F4
F4
F4
F4
F4
F4
F4
F4
F4
F4
F4
ENDCHAR
STARTCHAR uni258E
ENCODING 9614
SWIDTH 600 0
DWIDTH 7 0
BBX 2 15 0 -4
BITMAP
E0
E0
E0
E0
E0
E0
E0
E0
E0
E0
E0
E0
E0
E0
E0
ENDCHAR
STARTCHAR uni258F
ENCODING 9615
SWIDTH 600 0
DWIDTH 7 0
BBX 1 15 0 -4
BITMAP
80
80
80
80
80
80
80
80
80
80
80
80
80
80
80
ENDCHAR
STARTCHAR uni2590
ENCODING 9616
SWIDTH 600 0
DWIDTH 7 0
BBX 4 15 3 -4
BITMAP
BE
BE
BE
BE
BE
BE
BE
BE
BE
BE
BE
BE
BE
BE
BE
ENDCHAR
STARTCHAR uni2591
ENCODING 9617
SWIDTH 600 0
DWIDTH 7 0
BBX 5 15 1 -5
BITMAP
4440
1100
4440
1100
4440
1100
4440
1100
4440
0000
0000
4440
1100
4440
1100
ENDCHAR
STARTCHAR uni2592
ENCODING 9618
SWIDTH 600 0
DWIDTH 7 0
BBX 7 16 -1 -5
BITMAP
198C
0000
5514
1488
5110
198C
5110
1488
5514
1548
1554
1554
1548
5514
1488
5110
ENDCHAR
STARTCHAR uni2593
ENCODING 9619
SWIDTH 600 0
DWIDTH 7 0
BBX 8 16 -1 -5
BITMAP
29DD
2998
6AA8
2EDD
6A74
2DDD
6A74
2EDD
6AA4
2EED
6AA8
6AA8
2AED
6AA8
2EDD
5670
ENDCHAR
STARTCHAR uni2594
ENCODING 9620
SWIDTH 600 0
DWIDTH 7 0
BBX 7 2 0 9
BITMAP
FFF8
FFF8
ENDCHAR
STARTCHAR uni2595
ENCODING 9621
SWIDTH 600 0
DWIDTH 7 0
BBX 2 15 5 -4
BITMAP
60
60
60
60
60
60
60
60
60
60
60
60
60
60
60
ENDCHAR
STARTCHAR uni2596
ENCODING 9622
SWIDTH 600 0
DWIDTH 7 0
BBX 4 7 0 -4
BITMAP
FD
FD
FD
FD
FD
FD
FD
ENDCHAR
STARTCHAR uni2597
ENCODING 9623
SWIDTH 600 0
DWIDTH 7 0
BBX 4 7 3 -4
BITMAP
BE
BE
BE
BE
BE
BE
BE
ENDCHAR
STARTCHAR uni2598
ENCODING 9624
SWIDTH 600 0
DWIDTH 7 0
BBX 4 8 0 3
BITMAP
FD
FD
FD
FD
FD
FD
FD
FD
ENDCHAR
STARTCHAR uni2599
ENCODING 9625
SWIDTH 600 0
DWIDTH 7 0
BBX 7 15 0 -4
BITMAP
FD00
FD00
FD00
FD00
FD00
FD00
FD00
FD00
FFF8
FFF8
FFF8
FFF8
FFF8
FFF8
FFF8
ENDCHAR
STARTCHAR uni259A
ENCODING 9626
SWIDTH 600 0
DWIDTH 7 0
BBX 7 15 0 -4
BITMAP
FD00
FD00
FD00
FD00
FD00
FD00
FD00
FD00
02F8
02F8
02F8
02F8
02F8
02F8
02F8
ENDCHAR
STARTCHAR uni259B
ENCODING 9627
SWIDTH 600 0
DWIDTH 7 0
BBX 7 15 0 -4
BITMAP
FFF8
FFF8
FFF8
FFF8
FFF8
FFF8
FFF8
FFF8
FD00
FD00
FD00
FD00
FD00
FD00
FD00
ENDCHAR
STARTCHAR uni259C
ENCODING 9628
SWIDTH 600 0
DWIDTH 7 0
BBX 7 15 0 -4
BITMAP
FFF8
FFF8
FFF8
FFF8
FFF8
FFF8
FFF8
FFF8
02F8
02F8
02F8
02F8
02F8
02F8
02F8
ENDCHAR
STARTCHAR uni259D
ENCODING 9629
SWIDTH 600 0
DWIDTH 7 0
BBX 4 8 3 3
BITMAP
BE
BE
BE
BE
BE
BE
BE
BE
ENDCHAR
STARTCHAR uni259E
ENCODING 9630
SWIDTH 600 0
DWIDTH 7 0
BBX 7 15 0 -4
BITMAP
02F8
02F8
02F8
02F8
02F8
02F8
02F8
02F8
FD00
FD00
FD00
FD00
FD00
FD00
FD00
ENDCHAR
STARTCHAR uni259F
ENCODING 9631
SWIDTH 600 0
DWIDTH 7 0
BBX 7 15 0 -4
BITMAP
02F8
02F8
02F8
02F8
02F8
02F8
02F8
02F8
FFF8
FFF8
FFF8
FFF8
FFF8
FFF8
FFF8
ENDCHAR
STARTCHAR uni25A0
ENCODING 9632
SWIDTH 600 0
DWIDTH 7 0
BBX 6 5 0 1
BITMAP
7FE0
7FE0
7FE0
7FE0
7FE0
ENDCHAR
STARTCHAR uni25A1
ENCODING 9633
SWIDTH 600 0
DWIDTH 7 0
BBX 6 5 0 1
BITMAP
7FF0
6030
6030
6030
7FF0
ENDCHAR
STARTCHAR uni25AA
ENCODING 9642
SWIDTH 600 0
DWIDTH 7 0
BBX 4 3 1 1
BITMAP
7F
7F
7F
ENDCHAR
STARTCHAR uni25AB
ENCODING 9643
SWIDTH 600 0
DWIDTH 7 0
BBX 4 4 1 1
BITMAP
BF
92
92
BF
ENDCHAR
STARTCHAR filledrect
ENCODING 9644
SWIDTH 600 0
DWIDTH 7 0
BBX 7 1 0 2
BITMAP
FFF8
ENDCHAR
STARTCHAR triagup
ENCODING 9650
SWIDTH 600 0
DWIDTH 7 0
BBX 5 5 1 1
BITMAP
0800
1C00
3E00
BF00
FF80
ENDCHAR
STARTCHAR uni25B3
ENCODING 9651
SWIDTH 600 0
DWIDTH 7 0
BBX 5 5 1 1
BITMAP
0800
2900
2600
9240
FF80
ENDCHAR
STARTCHAR uni25B4
ENCODING 9652
SWIDTH 600 0
DWIDTH 7 0
BBX 4 4 1 1
BITMAP
04
1C
3E
7F
ENDCHAR
STARTCHAR uni25B5
ENCODING 9653
SWIDTH 600 0
DWIDTH 7 0
BBX 5 4 1 1
BITMAP
0800
2900
6200
BF40
ENDCHAR
STARTCHAR uni25B6
ENCODING 9654
SWIDTH 600 0
DWIDTH 7 0
BBX 6 5 0 1
BITMAP
6400
7E40
7FE0
7E40
6400
ENDCHAR
STARTCHAR uni25B7
ENCODING 9655
SWIDTH 600 0
DWIDTH 7 0
BBX 6 5 0 1
BITMAP
6400
6A40
61E0
6A40
6400
ENDCHAR
STARTCHAR uni25B8
ENCODING 9656
SWIDTH 600 0
DWIDTH 7 0
BBX 4 4 1 1
BITMAP
60
7D
7D
60
ENDCHAR
STARTCHAR uni25B9
ENCODING 9657
SWIDTH 600 0
DWIDTH 7 0
BBX 5 5 1 0
BITMAP
5000
A900
9740
A900
5000
ENDCHAR
STARTCHAR triagrt
ENCODING 9658
SWIDTH 600 0
DWIDTH 7 0
BBX 7 5 0 1
BITMAP
A000
FE40
FFF4
FE40
A000
ENDCHAR
STARTCHAR triagdn
ENCODING 9660
SWIDTH 600 0
DWIDTH 7 0
BBX 5 5 1 1
BITMAP
FF80
BF00
3E00
1C00
0800
ENDCHAR
STARTCHAR uni25BD
ENCODING 9661
SWIDTH 600 0
DWIDTH 7 0
BBX 5 5 1 1
BITMAP
FF80
9240
2600
2900
0800
ENDCHAR
STARTCHAR uni25BE
ENCODING 9662
SWIDTH 600 0
DWIDTH 7 0
BBX 4 4 1 1
BITMAP
7F
3E
1C
04
ENDCHAR
STARTCHAR uni25BF
ENCODING 9663
SWIDTH 600 0
DWIDTH 7 0
BBX 5 4 1 1
BITMAP
BF40
6200
2900
0800
ENDCHAR
STARTCHAR uni25C0
ENCODING 9664
SWIDTH 600 0
DWIDTH 7 0
BBX 5 5 1 1
BITMAP
0180
1FC0
FFC0
1FC0
0180
ENDCHAR
STARTCHAR uni25C1
ENCODING 9665
SWIDTH 600 0
DWIDTH 7 0
BBX 5 5 1 1
BITMAP
0180
1EC0
F0C0
1EC0
0180
ENDCHAR
STARTCHAR uni25C2
ENCODING 9666
SWIDTH 600 0
DWIDTH 7 0
BBX 3 4 2 1
BITMAP
18
BC
BC
18
ENDCHAR
STARTCHAR uni25C3
ENCODING 9667
SWIDTH 600 0
DWIDTH 7 0
BBX 4 5 1 0
BITMAP
02
1A
B2
1A
02
ENDCHAR
STARTCHAR triaglf
ENCODING 9668
SWIDTH 600 0
DWIDTH 7 0
BBX 7 5 0 1
BITMAP
0064
1BF4
BFF4
1BF4
0064
ENDCHAR
STARTCHAR uni25C6
ENCODING 9670
SWIDTH 600 0
DWIDTH 7 0
BBX 6 6 0 1
BITMAP
0600
1F80
7FE0
7FE0
1F80
0600
ENDCHAR
STARTCHAR uni25C9
ENCODING 9673
SWIDTH 600 0
DWIDTH 7 0
BBX 6 5 0 1
BITMAP
1F80
2BA0
5FB0
2BA0
1F80
ENDCHAR
STARTCHAR lozenge
ENCODING 9674
SWIDTH 600 0
DWIDTH 7 0
BBX 5 7 1 0
BITMAP
2D00
3A00
A340
D280
A340
3A00
2D00
ENDCHAR
STARTCHAR uni25CB
ENCODING 9675
SWIDTH 600 0
DWIDTH 7 0
BBX 6 5 0 1
BITMAP
1F80
6470
9030
6070
1F90
ENDCHAR
STARTCHAR uni25CC
ENCODING 9676
SWIDTH 600 0
DWIDTH 7 0
BBX 6 6 0 0
BITMAP
0200
1480
2020
5020
2020
1A80
ENDCHAR
STARTCHAR uni25CF
ENCODING 9679
SWIDTH 600 0
DWIDTH 7 0
BBX 6 5 0 1
BITMAP
1F80
3FE0
7FF0
3FE0
1F80
ENDCHAR
STARTCHAR invbullet
ENCODING 9688
SWIDTH 600 0
DWIDTH 7 0
BBX 4 4 1 1
BITMAP
7F
51
41
7F
ENDCHAR
STARTCHAR invcircle
ENCODING 9689
SWIDTH 600 0
DWIDTH 7 0
BBX 6 6 0 1
BITMAP
5450
9BA0
5FC0
1FC0
4A50
A070
ENDCHAR
STARTCHAR uni25E6
ENCODING 9702
SWIDTH 600 0
DWIDTH 7 0
BBX 5 4 1 1
BITMAP
2E00
9240
9240
2E00
ENDCHAR
STARTCHAR uni2610
ENCODING 9744
SWIDTH 600 0
DWIDTH 7 0
BBX 8 7 -1 0
BITMAP
3FFF
5003
5003
5003
5003
5003
7FFE
ENDCHAR
STARTCHAR uni2611
ENCODING 9745
SWIDTH 600 0
DWIDTH 7 0
BBX 9 9 -1 0
BITMAP
000100
000340
3FFF00
501F00
543B00
5D7300
57A300
52D300
500200
ENDCHAR
STARTCHAR uni2615
ENCODING 9749
SWIDTH 600 0
DWIDTH 7 0
BBX 8 7 -1 0
BITMAP
1BE0
7FE8
69AA
5BD6
2007
246D
0BD0
ENDCHAR
STARTCHAR smileface
ENCODING 9786
SWIDTH 600 0
DWIDTH 7 0
BBX 7 7 0 0
BITMAP
1F90
6070
CD94
9458
CB54
6070
1F90
ENDCHAR
STARTCHAR invsmileface
ENCODING 9787
SWIDTH 600 0
DWIDTH 7 0
BBX 7 6 0 1
BITMAP
1F90
7670
BFF4
AFB4
7470
1F90
ENDCHAR
STARTCHAR sun
ENCODING 9788
SWIDTH 600 0
DWIDTH 7 0
BBX 7 7 0 0
BITMAP
0700
7BB0
34A0
F078
34A0
7BB0
0710
ENDCHAR
STARTCHAR female
ENCODING 9792
SWIDTH 600 0
DWIDTH 7 0
BBX 6 8 0 0
BITMAP
1F80
74A0
6070
7070
2ED0
0700
2FD0
0700
ENDCHAR
STARTCHAR male
ENCODING 9794
SWIDTH 600 0
DWIDTH 7 0
BBX 8 7 -1 0
BITMAP
007E
001F
1BF7
3471
7034
3470
1B90
ENDCHAR
STARTCHAR spade
ENCODING 9824
SWIDTH 600 0
DWIDTH 7 0
BBX 7 8 0 0
BITMAP
0600
1F80
3FE0
BFF4
FFF8
BFF4
1B50
3FE0
ENDCHAR
STARTCHAR club
ENCODING 9827
SWIDTH 600 0
DWIDTH 7 0
BBX 7 8 0 0
BITMAP
0B40
1FC0
0F80
BFF4
FFF8
BBF4
1B40
3FE0
ENDCHAR
STARTCHAR heart
ENCODING 9829
SWIDTH 600 0
DWIDTH 7 0
BBX 7 8 0 0
BITMAP
79E0
FFF4
FFF8
BFF4
7FF0
2FD0
0F80
0600
ENDCHAR
STARTCHAR diamond
ENCODING 9830
SWIDTH 600 0
DWIDTH 7 0
BBX 7 8 0 0
BITMAP
0600
0F80
2FD0
BFF4
BFF4
2FD0
0F80
0600
ENDCHAR
STARTCHAR musicalnote
ENCODING 9834
SWIDTH 600 0
DWIDTH 7 0
BBX 6 8 0 0
BITMAP
0340
03E0
0330
0320
0310
0300
2F00
7D00
ENDCHAR
STARTCHAR musicalnotedbl
ENCODING 9835
SWIDTH 600 0
DWIDTH 7 0
BBX 7 8 0 0
BITMAP
06A8
0BF8
0BA8
0808
0808
0808
BDF8
F9F4
ENDCHAR
STARTCHAR uni2713
ENCODING 10003
SWIDTH 600 0
DWIDTH 7 0
BBX 7 8 0 0
BITMAP
0024
0074
00E0
01C0
8340
A700
3A00
2C00
ENDCHAR
STARTCHAR uni2752
ENCODING 10066
SWIDTH 600 0
DWIDTH 7 0
BBX 6 5 0 1
BITMAP
7FF0
5030
5030
5030
7FE0
ENDCHAR
STARTCHAR uni2764
ENCODING 10084
SWIDTH 600 0
DWIDTH 7 0
BBX 8 7 -1 0
BITMAP
2E7D
BFFF
BFFF
7FFF
2FFD
07E0
0080
ENDCHAR
STARTCHAR uni27E6
ENCODING 10214
SWIDTH 600 0
DWIDTH 7 0
BBX 5 10 1 -2
BITMAP
7F40
6C00
6C00
6C00
6C00
6C00
6C00
6C00
6C00
7F40
ENDCHAR
STARTCHAR uni27E7
ENCODING 10215
SWIDTH 600 0
DWIDTH 7 0
BBX 4 10 1 -2
BITMAP
FF
1B
17
17
17
17
17
17
1B
FF
ENDCHAR
STARTCHAR uni2E18
ENCODING 11800
SWIDTH 600 0
DWIDTH 7 0
BBX 5 7 1 -2
BITMAP
1D00
1D00
0000
1C00
AD00
E140
7E40
ENDCHAR
STARTCHAR uni2E22
ENCODING 11810
SWIDTH 600 0
DWIDTH 7 0
BBX 4 5 2 3
BITMAP
BD
90
90
90
90
ENDCHAR
STARTCHAR uni2E23
ENCODING 11811
SWIDTH 600 0
DWIDTH 7 0
BBX 4 5 1 3
BITMAP
FD
09
09
09
09
ENDCHAR
STARTCHAR uni2E24
ENCODING 11812
SWIDTH 600 0
DWIDTH 7 0
BBX 4 5 2 -2
BITMAP
90
90
90
90
BD
ENDCHAR
STARTCHAR uni2E25
ENCODING 11813
SWIDTH 600 0
DWIDTH 7 0
BBX 4 5 1 -2
BITMAP
09
09
09
09
FD
ENDCHAR
STARTCHAR uniE0A0
ENCODING 57504
SWIDTH 600 0
DWIDTH 7 0
BBX 7 15 0 -3
BITMAP
7400
7400
74E0
76F8
74E0
74E0
74E0
61E0
07D0
1F40
3C00
7400
7400
7400
7400
ENDCHAR
STARTCHAR uniE0A1
ENCODING 57505
SWIDTH 600 0
DWIDTH 7 0
BBX 6 12 0 -2
BITMAP
7000
7000
7000
7000
7F40
0000
0000
1EB0
1FB0
1EB0
1DF0
1DF0
ENDCHAR
STARTCHAR uniE0A2
ENCODING 57506
SWIDTH 600 0
DWIDTH 7 0
BBX 7 10 0 -1
BITMAP
0B80
28D0
24D0
24D0
BFF4
B8F4
B8F4
BDF4
B9F4
BFF4
ENDCHAR
STARTCHAR uniE0B0
ENCODING 57520
SWIDTH 600 0
DWIDTH 7 0
BBX 7 15 0 -3
BITMAP
4000
D000
F400
FC00
FF00
FF80
FFE0
FFF4
FFE0
FF80
FF00
FC00
F400
D000
4000
ENDCHAR
STARTCHAR uniE0B1
ENCODING 57521
SWIDTH 600 0
DWIDTH 7 0
BBX 7 13 0 -2
BITMAP
9000
7400
2D00
0B40
02C0
00B0
0038
00A0
02C0
0B00
2C00
B400
9000
ENDCHAR
STARTCHAR uniE0B2
ENCODING 57522
SWIDTH 600 0
DWIDTH 7 0
BBX 7 15 0 -3
BITMAP
0004
0028
00B8
01F8
07F8
1FF8
7FF8
BFF8
7FF8
1FF8
07F8
01F8
00B8
0028
0004
ENDCHAR
STARTCHAR uniE0B3
ENCODING 57523
SWIDTH 600 0
DWIDTH 7 0
BBX 7 13 0 -2
BITMAP
0024
00B0
02D0
0B40
1D00
7400
E000
7400
1D00
0740
01D0
00B4
0024
ENDCHAR
STARTCHAR f_i
ENCODING 64257
SWIDTH 600 0
DWIDTH 7 0
BBX 7 8 0 0
BITMAP
1EB4
38B4
7400
FDB0
74B0
74B0
74B0
74B0
ENDCHAR
STARTCHAR f_l
ENCODING 64258
SWIDTH 600 0
DWIDTH 7 0
BBX 7 8 0 0
BITMAP
1EB0
38B0
34B0
FDB0
34B0
34B0
34B0
3478
ENDCHAR
STARTCHAR uniFE0E
ENCODING 65038
SWIDTH 600 0
DWIDTH 7 0
BBX 7 7 0 0
BITMAP
6AA4
8014
A4A4
0880
0880
0880
0A40
ENDCHAR
STARTCHAR uniFE0F
ENCODING 65039
SWIDTH 600 0
DWIDTH 7 0
BBX 7 7 0 0
BITMAP
0A40
1010
5E94
D8D8
5560
1010
0A40
ENDCHAR
STARTCHAR uniFEFF
ENCODING 65279
SWIDTH 600 0
DWIDTH 7 0
BBX 1 1 0 0
BITMAP
00
ENDCHAR
STARTCHAR u1F3B5
ENCODING 127925
SWIDTH 600 0
DWIDTH 7 0
BBX 6 8 0 0
BITMAP
0340
03E0
0330
0320
0310
0300
2F00
7D00
ENDCHAR
STARTCHAR u1F3B6
ENCODING 127926
SWIDTH 600 0
DWIDTH 7 0
BBX 7 8 0 0
BITMAP
06A8
0BF8
0BA8
0808
0808
0808
BDF8
F9F4
ENDCHAR
STARTCHAR u1F4A9
ENCODING 128169
SWIDTH 600 0
DWIDTH 7 0
BBX 7 7 0 0
BITMAP
0640
1FC0
7BA0
6670
BFF4
F478
BFE4
ENDCHAR
STARTCHAR u1F512
ENCODING 128274
SWIDTH 600 0
DWIDTH 7 0
BBX 7 10 0 -1
BITMAP
0B80
28D0
24D0
24D0
BFF4
B8F4
B8F4
BDF4
B9F4
BFF4
ENDCHAR
STARTCHAR u1F916
ENCODING 129302
SWIDTH 600 0
DWIDTH 7 0
BBX 8 7 -1 0
BITMAP
0BE4
2BFD
76AA
67E7
7006
199C
07E4
ENDCHAR
STARTCHAR .notdef
ENCODING -1
SWIDTH 600 0
DWIDTH 7 0
BBX 7 7 0 0
BITMAP
BFF4
B8F4
9E74
9B74
AEB4
B8F4
BFF4
ENDCHAR
STARTCHAR uni00470303
ENCODING -1
SWIDTH 600 0
DWIDTH 7 0
BBX 6 10 0 0
BITMAP
0E60
19D0
0000
0BD0
3840
7400
75F0
7470
38B0
1BD0
ENDCHAR
STARTCHAR uni004C00B7004C
ENCODING -1
SWIDTH 600 0
DWIDTH 7 0
BBX 7 7 0 0
BITMAP
B1D0
B1D0
BAD0
BAD0
B1D0
B1D0
BDF4
ENDCHAR
STARTCHAR uni01320301
ENCODING -1
SWIDTH 600 0
DWIDTH 7 0
BBX 7 12 0 -2
BITMAP
1864
6490
0000
74E0
74E0
74E0
74E0
74E0
74E0
74E0
00E0
03D0
ENDCHAR
STARTCHAR uni00670303
ENCODING -1
SWIDTH 600 0
DWIDTH 7 0
BBX 7 10 0 -2
BITMAP
0950
2AC0
0000
1FF4
39D0
3EC0
3900
3FE0
70B4
2F90
ENDCHAR
STARTCHAR uni006C00B7006C
ENCODING -1
SWIDTH 600 0
DWIDTH 7 0
BBX 8 8 -1 0
BITMAP
7CF8
1C38
1C38
1EB8
1EB8
1C38
0D28
0B5E
ENDCHAR
STARTCHAR uni01330301
ENCODING -1
SWIDTH 600 0
DWIDTH 7 0
BBX 6 11 1 -2
BITMAP
2090
B5E0
8240
0000
D2C0
D2C0
D2C0
D2C0
D2C0
0380
0F40
ENDCHAR
STARTCHAR uni014A.a
ENCODING -1
SWIDTH 600 0
DWIDTH 7 0
BBX 6 9 0 -2
BITMAP
78B0
7CB0
79B0
7BB0
77B0
75F0
74F0
00A0
02D0
ENDCHAR
STARTCHAR a.a
ENCODING -1
SWIDTH 600 0
DWIDTH 7 0
BBX 6 5 0 0
BITMAP
1FA0
74E0
74A0
74E0
2EA0
ENDCHAR
STARTCHAR agrave.a
ENCODING -1
SWIDTH 600 0
DWIDTH 7 0
BBX 6 9 0 0
BITMAP
0800
1E00
0600
0000
1FA0
74E0
74A0
74E0
2EA0
ENDCHAR
STARTCHAR aacute.a
ENCODING -1
SWIDTH 600 0
DWIDTH 7 0
BBX 6 9 0 0
BITMAP
0180
03C0
0600
0000
1FA0
74E0
74A0
74E0
2EA0
ENDCHAR
STARTCHAR acircumflex.a
ENCODING -1
SWIDTH 600 0
DWIDTH 7 0
BBX 6 8 0 0
BITMAP
0B80
1990
0000
1FA0
74E0
74A0
74E0
2EA0
ENDCHAR
STARTCHAR atilde.a
ENCODING -1
SWIDTH 600 0
DWIDTH 7 0
BBX 6 8 0 0
BITMAP
0950
2AD0
0000
1FA0
74E0
74A0
74E0
2EA0
ENDCHAR
STARTCHAR adieresis.a
ENCODING -1
SWIDTH 600 0
DWIDTH 7 0
BBX 6 8 0 0
BITMAP
18D0
18D0
0000
1FA0
74E0
74A0
74E0
2EA0
ENDCHAR
STARTCHAR amacron.a
ENCODING -1
SWIDTH 600 0
DWIDTH 7 0
BBX 6 8 0 0
BITMAP
1FC0
0000
0000
1FA0
74E0
74A0
74E0
2EA0
ENDCHAR
STARTCHAR abreve.a
ENCODING -1
SWIDTH 600 0
DWIDTH 7 0
BBX 6 8 0 0
BITMAP
18C0
0B80
0000
1FA0
74E0
74A0
74E0
2EA0
ENDCHAR
STARTCHAR aring.a
ENCODING -1
SWIDTH 600 0
DWIDTH 7 0
BBX 6 9 0 0
BITMAP
0B40
0D80
0B40
0000
1FA0
74E0
74A0
74E0
2EA0
ENDCHAR
STARTCHAR aringacute.a
ENCODING -1
SWIDTH 600 0
DWIDTH 7 0
BBX 6 9 0 0
BITMAP
0240
0D80
0B80
0000
1FA0
74E0
74A0
74E0
2FA0
ENDCHAR
STARTCHAR uni01CE.a
ENCODING -1
SWIDTH 600 0
DWIDTH 7 0
BBX 6 8 0 0
BITMAP
1990
0B80
0000
1FA0
74E0
74A0
74E0
2EA0
ENDCHAR
STARTCHAR uni1EA1.a
ENCODING -1
SWIDTH 600 0
DWIDTH 7 0
BBX 6 8 0 -3
BITMAP
1FA0
74E0
74A0
74E0
2EA0
0000
0740
0740
ENDCHAR
STARTCHAR uni1EA3.a
ENCODING -1
SWIDTH 600 0
DWIDTH 7 0
BBX 6 9 0 0
BITMAP
0A00
0340
0300
0000
1FA0
74E0
74A0
74E0
2EA0
ENDCHAR
STARTCHAR uni1EA5.a
ENCODING -1
SWIDTH 600 0
DWIDTH 7 0
BBX 7 9 0 0
BITMAP
0024
0BA0
0980
0000
1FA0
74E0
74A0
74E0
2EA0
ENDCHAR
STARTCHAR uni1EA7.a
ENCODING -1
SWIDTH 600 0
DWIDTH 7 0
BBX 6 9 0 0
BITMAP
5000
2B40
0980
0000
1FA0
74E0
74A0
74E0
2EA0
ENDCHAR
STARTCHAR uni1EA9.a
ENCODING -1
SWIDTH 600 0
DWIDTH 7 0
BBX 6 10 0 0
BITMAP
0060
0030
0BA0
0980
0000
1FA0
74E0
74A0
74E0
2EA0
ENDCHAR
STARTCHAR uni1EAB.a
ENCODING -1
SWIDTH 600 0
DWIDTH 7 0
BBX 6 10 0 0
BITMAP
0540
0A80
0B40
0980
0000
1FA0
74E0
74A0
74E0
2EA0
ENDCHAR
STARTCHAR uni1EAD.a
ENCODING -1
SWIDTH 600 0
DWIDTH 7 0
BBX 6 11 0 -3
BITMAP
0B80
1990
0000
1FA0
74E0
74A0
74E0
2EA0
0000
0740
0740
ENDCHAR
STARTCHAR uni1EAF.a
ENCODING -1
SWIDTH 600 0
DWIDTH 7 0
BBX 6 10 0 0
BITMAP
0240
0240
18C0
0B80
0000
1FA0
74E0
74A0
74E0
2EA0
ENDCHAR
STARTCHAR uni1EB1.a
ENCODING -1
SWIDTH 600 0
DWIDTH 7 0
BBX 6 10 0 0
BITMAP
0900
0600
18C0
0B80
0000
1FA0
74E0
74A0
74E0
2EA0
ENDCHAR
STARTCHAR uni1EB3.a
ENCODING -1
SWIDTH 600 0
DWIDTH 7 0
BBX 6 11 0 0
BITMAP
0600
0340
0200
18C0
0B80
0000
1FA0
74E0
74A0
74E0
2EA0
ENDCHAR
STARTCHAR uni1EB5.a
ENCODING -1
SWIDTH 600 0
DWIDTH 7 0
BBX 6 10 0 0
BITMAP
0540
1AC0
18C0
0B40
0000
1FA0
74E0
74A0
74E0
2EA0
ENDCHAR
STARTCHAR uni1EB7.a
ENCODING -1
SWIDTH 600 0
DWIDTH 7 0
BBX 6 11 0 -3
BITMAP
18C0
0B80
0000
1FA0
74E0
74A0
74E0
2EA0
0000
0740
0740
ENDCHAR
STARTCHAR aogonek.a
ENCODING -1
SWIDTH 600 0
DWIDTH 7 0
BBX 6 8 0 -3
BITMAP
1FA0
74E0
74A0
74E0
2EA0
00D0
01C0
00E0
ENDCHAR
STARTCHAR g.a
ENCODING -1
SWIDTH 600 0
DWIDTH 7 0
BBX 6 7 0 -2
BITMAP
1FA0
78E0
74A0
74E0
2FE0
10E0
2F80
ENDCHAR
STARTCHAR uni01F5.a
ENCODING -1
SWIDTH 600 0
DWIDTH 7 0
BBX 6 11 0 -2
BITMAP
0180
03C0
0600
0000
1FA0
78E0
74A0
74E0
2FE0
10E0
2F80
ENDCHAR
STARTCHAR gcircumflex.a
ENCODING -1
SWIDTH 600 0
DWIDTH 7 0
BBX 6 10 0 -2
BITMAP
0B80
1990
0000
1FA0
78E0
74A0
74E0
2FE0
10E0
2F80
ENDCHAR
STARTCHAR gbreve.a
ENCODING -1
SWIDTH 600 0
DWIDTH 7 0
BBX 6 10 0 -2
BITMAP
18D0
0B80
0000
1FA0
78E0
74A0
74E0
2FE0
10E0
2F80
ENDCHAR
STARTCHAR gdotaccent.a
ENCODING -1
SWIDTH 600 0
DWIDTH 7 0
BBX 6 10 0 -2
BITMAP
0740
0740
0000
1FA0
78E0
74A0
74E0
2FE0
10E0
2F80
ENDCHAR
STARTCHAR uni0123.a
ENCODING -1
SWIDTH 600 0
DWIDTH 7 0
BBX 6 10 0 -2
BITMAP
0780
0700
0000
1FA0
78E0
74A0
74E0
2FE0
10E0
2F80
ENDCHAR
STARTCHAR gcaron.a
ENCODING -1
SWIDTH 600 0
DWIDTH 7 0
BBX 6 10 0 -2
BITMAP
1990
0B80
0000
1FA0
78E0
74A0
74E0
2FE0
10E0
2F80
ENDCHAR
STARTCHAR uni1E21.a
ENCODING -1
SWIDTH 600 0
DWIDTH 7 0
BBX 6 10 0 -2
BITMAP
1FC0
0000
0000
1FA0
78E0
74A0
74E0
2FE0
10E0
2F80
ENDCHAR
STARTCHAR uni00670303.a
ENCODING -1
SWIDTH 600 0
DWIDTH 7 0
BBX 6 10 0 -2
BITMAP
0950
2AD0
0000
1FA0
78E0
74A0
74E0
2FE0
10E0
2F80
ENDCHAR
STARTCHAR i.a
ENCODING -1
SWIDTH 600 0
DWIDTH 7 0
BBX 6 8 1 0
BITMAP
1D00
1D00
0000
FD00
0D00
0D00
0D00
FFD0
ENDCHAR
STARTCHAR dotlessi.a
ENCODING -1
SWIDTH 600 0
DWIDTH 7 0
BBX 6 5 1 0
BITMAP
FD00
0D00
0D00
0D00
FFD0
ENDCHAR
STARTCHAR igrave.a
ENCODING -1
SWIDTH 600 0
DWIDTH 7 0
BBX 6 9 1 0
BITMAP
2400
3C00
0800
0000
FD00
0D00
0D00
0D00
FFD0
ENDCHAR
STARTCHAR iacute.a
ENCODING -1
SWIDTH 600 0
DWIDTH 7 0
BBX 6 9 1 0
BITMAP
0200
0B40
0800
0000
FD00
0D00
0D00
0D00
FFD0
ENDCHAR
STARTCHAR icircumflex.a
ENCODING -1
SWIDTH 600 0
DWIDTH 7 0
BBX 6 8 1 0
BITMAP
2E00
6640
0000
FD00
0D00
0D00
0D00
FFD0
ENDCHAR
STARTCHAR itilde.a
ENCODING -1
SWIDTH 600 0
DWIDTH 7 0
BBX 6 8 1 0
BITMAP
2540
6B40
0000
FD00
0D00
0D00
0D00
FFD0
ENDCHAR
STARTCHAR idieresis.a
ENCODING -1
SWIDTH 600 0
DWIDTH 7 0
BBX 6 8 1 0
BITMAP
7340
7340
0000
FD00
0D00
0D00
0D00
FFD0
ENDCHAR
STARTCHAR imacron.a
ENCODING -1
SWIDTH 600 0
DWIDTH 7 0
BBX 6 8 1 0
BITMAP
3F40
0000
0000
FD00
0D00
0D00
0D00
FFD0
ENDCHAR
STARTCHAR uni01D0.a
ENCODING -1
SWIDTH 600 0
DWIDTH 7 0
BBX 6 8 1 0
BITMAP
6240
2E00
0000
FD00
0D00
0D00
0D00
FFD0
ENDCHAR
STARTCHAR iogonek.a
ENCODING -1
SWIDTH 600 0
DWIDTH 7 0
BBX 6 11 1 -3
BITMAP
1D00
1D00
0000
FD00
0D00
0D00
0D00
FFD0
1800
2800
1E00
ENDCHAR
STARTCHAR uni1EC9.a
ENCODING -1
SWIDTH 600 0
DWIDTH 7 0
BBX 6 9 1 0
BITMAP
1D00
0A00
0D00
0000
FD00
0D00
0D00
0D00
FFD0
ENDCHAR
STARTCHAR uni1ECB.a
ENCODING -1
SWIDTH 600 0
DWIDTH 7 0
BBX 6 11 1 -3
BITMAP
1D00
1D00
0000
FD00
0D00
0D00
0D00
FFD0
0000
1D00
1D00
ENDCHAR
STARTCHAR uni012D.a
ENCODING -1
SWIDTH 600 0
DWIDTH 7 0
BBX 6 8 1 0
BITMAP
7240
2E00
0000
FD00
0D00
0D00
0D00
FFD0
ENDCHAR
STARTCHAR uni0268.a
ENCODING -1
SWIDTH 600 0
DWIDTH 7 0
BBX 6 8 1 0
BITMAP
1D00
1D00
0000
FD00
0D00
BFC0
0D00
FFD0
ENDCHAR
STARTCHAR iogonek.d
ENCODING -1
SWIDTH 600 0
DWIDTH 7 0
BBX 4 8 1 -3
BITMAP
FE
0E
0E
0E
0E
08
18
1E
ENDCHAR
STARTCHAR iogonek.da
ENCODING -1
SWIDTH 600 0
DWIDTH 7 0
BBX 6 8 1 -3
BITMAP
FD00
0D00
0D00
0D00
FFD0
1800
2800
1E00
ENDCHAR
STARTCHAR uni0268.d
ENCODING -1
SWIDTH 600 0
DWIDTH 7 0
BBX 5 5 1 0
BITMAP
FE00
0E00
BFC0
0E00
0E00
ENDCHAR
STARTCHAR uni0268.da
ENCODING -1
SWIDTH 600 0
DWIDTH 7 0
BBX 6 5 1 0
BITMAP
FD00
0D00
BFC0
0D00
FFD0
ENDCHAR
STARTCHAR uni029D.d
ENCODING -1
SWIDTH 600 0
DWIDTH 7 0
BBX 6 8 0 -3
BITMAP
3F80
0380
0380
0380
7F80
A7C0
7ED0
0090
ENDCHAR
STARTCHAR l.a
ENCODING -1
SWIDTH 600 0
DWIDTH 7 0
BBX 6 8 1 0
BITMAP
FD00
0D00
0D00
0D00
0D00
0D00
0D00
FFD0
ENDCHAR
STARTCHAR lacute.a
ENCODING -1
SWIDTH 600 0
DWIDTH 7 0
BBX 6 11 1 0
BITMAP
0600
1900
0000
FD00
0D00
0D00
0D00
0D00
0D00
0D00
FFD0
ENDCHAR
STARTCHAR lcaron.a
ENCODING -1
SWIDTH 600 0
DWIDTH 7 0
BBX 6 9 1 0
BITMAP
00E0
FDD0
0DD0
0D00
0D00
0D00
0D00
0D00
FFD0
ENDCHAR
STARTCHAR uni013C.a
ENCODING -1
SWIDTH 600 0
DWIDTH 7 0
BBX 6 11 1 -3
BITMAP
FD00
0D00
0D00
0D00
0D00
0D00
0D00
FFD0
0D00
0A00
2900
ENDCHAR
STARTCHAR uni1E37.a
ENCODING -1
SWIDTH 600 0
DWIDTH 7 0
BBX 6 11 1 -3
BITMAP
FD00
0D00
0D00
0D00
0D00
0D00
0D00
FFD0
0000
1D00
1D00
ENDCHAR
STARTCHAR uni1E39.a
ENCODING -1
SWIDTH 600 0
DWIDTH 7 0
BBX 6 13 1 -3
BITMAP
3F40
0000
FD00
0D00
0D00
0D00
0D00
0D00
0D00
FFD0
0000
1D00
1D00
ENDCHAR
STARTCHAR uni1E3B.a
ENCODING -1
SWIDTH 600 0
DWIDTH 7 0
BBX 6 10 1 -2
BITMAP
FD00
0D00
0D00
0D00
0D00
0D00
0D00
FFD0
0000
3F40
ENDCHAR
STARTCHAR lslash.a
ENCODING -1
SWIDTH 600 0
DWIDTH 7 0
BBX 6 8 1 0
BITMAP
FD00
0D00
0E80
1F80
7D00
1D00
0D00
FFD0
ENDCHAR
STARTCHAR ldot.a
ENCODING -1
SWIDTH 600 0
DWIDTH 7 0
BBX 7 8 0 0
BITMAP
7F00
0B00
0B00
0B2C
0B2C
0B00
0B00
BFE0
ENDCHAR
STARTCHAR uni006C00B7006C.a
ENCODING -1
SWIDTH 600 0
DWIDTH 7 0
BBX 8 8 -1 0
BITMAP
3DB8
0D28
0D28
0EA8
0D28
0D28
0D28
7FBE
ENDCHAR
STARTCHAR uni026B.a
ENCODING -1
SWIDTH 600 0
DWIDTH 7 0
BBX 6 8 1 0
BITMAP
FD00
0D00
0D00
6E40
AF80
0D00
0D00
FFD0
ENDCHAR
STARTCHAR uni026C.a
ENCODING -1
SWIDTH 600 0
DWIDTH 7 0
BBX 6 8 1 0
BITMAP
FD00
0D00
0D00
BD00
BFC0
0D00
0D00
FFD0
ENDCHAR
STARTCHAR phi.a
ENCODING -1
SWIDTH 600 0
DWIDTH 7 0
BBX 7 7 0 -2
BITMAP
22E0
B774
A734
B770
2FD0
0700
0700
ENDCHAR
STARTCHAR anoteleia.cap
ENCODING -1
SWIDTH 600 0
DWIDTH 7 0
BBX 3 3 2 5
BITMAP
B4
F8
B4
ENDCHAR
STARTCHAR uni0430.a
ENCODING -1
SWIDTH 600 0
DWIDTH 7 0
BBX 6 5 0 0
BITMAP
1FA0
74E0
74A0
74E0
2EA0
ENDCHAR
STARTCHAR uni04D1.a
ENCODING -1
SWIDTH 600 0
DWIDTH 7 0
BBX 6 8 0 0
BITMAP
1CD0
0B80
0000
1FA0
74E0
74A0
74E0
2EA0
ENDCHAR
STARTCHAR uni0431.srb
ENCODING -1
SWIDTH 600 0
DWIDTH 7 0
BBX 6 8 0 0
BITMAP
0AA0
2D40
1E40
0BD0
39E0
74B0
34E0
1F80
ENDCHAR
STARTCHAR uni0456.a
ENCODING -1
SWIDTH 600 0
DWIDTH 7 0
BBX 6 8 1 0
BITMAP
1D00
1D00
0000
FD00
0D00
0D00
0D00
FFD0
ENDCHAR
STARTCHAR zero.a
ENCODING -1
SWIDTH 600 0
DWIDTH 7 0
BBX 6 7 0 0
BITMAP
1F80
38E0
7DB0
76B0
72F0
38E0
1F80
ENDCHAR
STARTCHAR one.a
ENCODING -1
SWIDTH 600 0
DWIDTH 7 0
BBX 5 7 1 0
BITMAP
1D00
7D00
AD00
1D00
1D00
1D00
FFC0
ENDCHAR
STARTCHAR zero.onum
ENCODING -1
SWIDTH 600 0
DWIDTH 7 0
BBX 6 6 0 0
BITMAP
1F80
34A0
76B0
77B0
34A0
1F80
ENDCHAR
STARTCHAR one.onum
ENCODING -1
SWIDTH 600 0
DWIDTH 7 0
BBX 5 6 1 0
BITMAP
BD00
6D00
1D00
1D00
1E40
FFC0
ENDCHAR
STARTCHAR two.onum
ENCODING -1
SWIDTH 600 0
DWIDTH 7 0
BBX 6 6 0 0
BITMAP
2F80
11D0
01D0
03C0
1E40
7FF0
ENDCHAR
STARTCHAR three.onum
ENCODING -1
SWIDTH 600 0
DWIDTH 7 0
BBX 6 7 0 -1
BITMAP
2F80
11E0
01D0
0F80
01E0
10E0
6F80
ENDCHAR
STARTCHAR four.onum
ENCODING -1
SWIDTH 600 0
DWIDTH 7 0
BBX 6 7 0 -1
BITMAP
03D0
0BD0
2DD0
75D0
BFF0
01D0
01D0
ENDCHAR
STARTCHAR five.onum
ENCODING -1
SWIDTH 600 0
DWIDTH 7 0
BBX 5 7 1 -1
BITMAP
BF80
E000
FE00
4780
0280
4780
BE00
ENDCHAR
STARTCHAR six.onum
ENCODING -1
SWIDTH 600 0
DWIDTH 7 0
BBX 6 7 0 0
BITMAP
0BD0
2840
7400
7BD0
74B0
38B0
1B90
ENDCHAR
STARTCHAR seven.onum
ENCODING -1
SWIDTH 600 0
DWIDTH 7 0
BBX 6 7 0 -1
BITMAP
7FF0
00D0
0280
0740
0B00
0B00
0A00
ENDCHAR
STARTCHAR eight.onum
ENCODING -1
SWIDTH 600 0
DWIDTH 7 0
BBX 6 7 0 0
BITMAP
1F80
38E0
2FD0
2FD0
75F0
74A0
1F90
ENDCHAR
STARTCHAR nine.onum
ENCODING -1
SWIDTH 600 0
DWIDTH 7 0
BBX 6 7 0 -1
BITMAP
2F80
74D0
74B0
2FF0
00A0
11D0
2F40
ENDCHAR
STARTCHAR zero.b
ENCODING -1
SWIDTH 600 0
DWIDTH 7 0
BBX 6 6 0 0
BITMAP
1F80
38A0
79B0
72B0
35E0
1F80
ENDCHAR
STARTCHAR one.b
ENCODING -1
SWIDTH 600 0
DWIDTH 7 0
BBX 5 6 1 0
BITMAP
1D00
7D00
AD00
1D00
1D00
FFC0
ENDCHAR
STARTCHAR zero.cap
ENCODING -1
SWIDTH 600 0
DWIDTH 7 0
BBX 6 7 0 0
BITMAP
1F80
38E0
75B0
7BB0
74B0
38E0
1F80
ENDCHAR
STARTCHAR one.cap
ENCODING -1
SWIDTH 600 0
DWIDTH 7 0
BBX 5 7 1 0
BITMAP
6D00
6D00
1D00
1D00
1D00
1E40
FFC0
ENDCHAR
STARTCHAR two.cap
ENCODING -1
SWIDTH 600 0
DWIDTH 7 0
BBX 6 7 0 0
BITMAP
2F80
11D0
00D0
02D0
0780
1E00
7FF0
ENDCHAR
STARTCHAR three.cap
ENCODING -1
SWIDTH 600 0
DWIDTH 7 0
BBX 6 7 0 0
BITMAP
2F80
11E0
01D0
0F80
01E0
10E0
6F80
ENDCHAR
STARTCHAR four.cap
ENCODING -1
SWIDTH 600 0
DWIDTH 7 0
BBX 6 7 0 0
BITMAP
03D0
0BD0
1DD0
75D0
BFF0
01D0
01D0
ENDCHAR
STARTCHAR five.cap
ENCODING -1
SWIDTH 600 0
DWIDTH 7 0
BBX 5 7 1 0
BITMAP
BF80
E000
E500
AB40
0380
8380
BE00
ENDCHAR
STARTCHAR six.cap
ENCODING -1
SWIDTH 600 0
DWIDTH 7 0
BBX 6 7 0 0
BITMAP
0BD0
2840
3400
7BD0
74B0
38B0
1B90
ENDCHAR
STARTCHAR seven.cap
ENCODING -1
SWIDTH 600 0
DWIDTH 7 0
BBX 6 7 0 0
BITMAP
7FF0
01D0
0280
0740
0B00
0B00
0A00
ENDCHAR
STARTCHAR eight.cap
ENCODING -1
SWIDTH 600 0
DWIDTH 7 0
BBX 6 7 0 0
BITMAP
1F80
38E0
39D0
1FC0
35E0
74B0
1F90
ENDCHAR
STARTCHAR nine.cap
ENCODING -1
SWIDTH 600 0
DWIDTH 7 0
BBX 6 7 0 0
BITMAP
1F80
74D0
74A0
2EB0
00A0
11D0
2F40
ENDCHAR
STARTCHAR zero.c
ENCODING -1
SWIDTH 600 0
DWIDTH 7 0
BBX 6 7 0 0
BITMAP
1F80
38E0
7DB0
7670
72F0
38E0
1F80
ENDCHAR
STARTCHAR one.c
ENCODING -1
SWIDTH 600 0
DWIDTH 7 0
BBX 5 7 1 0
BITMAP
1D00
7D00
AD00
1D00
1D00
1D00
FFC0
ENDCHAR
STARTCHAR at.case
ENCODING -1
SWIDTH 600 0
DWIDTH 7 0
BBX 6 7 0 0
BITMAP
1BD0
3470
A6F0
9A70
A7B0
3400
1BD0
ENDCHAR
STARTCHAR asterisk.a
ENCODING -1
SWIDTH 600 0
DWIDTH 7 0
BBX 5 5 1 3
BITMAP
0800
5D40
BF40
3E00
6600
ENDCHAR
STARTCHAR hyphen.a
ENCODING -1
SWIDTH 600 0
DWIDTH 7 0
BBX 5 1 1 2
BITMAP
BF40
ENDCHAR
STARTCHAR uni00AD.a
ENCODING -1
SWIDTH 600 0
DWIDTH 7 0
BBX 5 1 1 2
BITMAP
BF40
ENDCHAR
STARTCHAR uni2010.a
ENCODING -1
SWIDTH 600 0
DWIDTH 7 0
BBX 5 1 1 2
BITMAP
BF40
ENDCHAR
STARTCHAR dollar.a
ENCODING -1
SWIDTH 600 0
DWIDTH 7 0
BBX 5 9 1 -1
BITMAP
0600
7F40
ED00
BD00
1F80
6B80
BE40
2000
2000
ENDCHAR
STARTCHAR period.sups
ENCODING -1
SWIDTH 600 0
DWIDTH 7 0
BBX 2 1 2 4
BITMAP
60
ENDCHAR
STARTCHAR comma.sups
ENCODING -1
SWIDTH 600 0
DWIDTH 7 0
BBX 2 3 2 2
BITMAP
70
30
60
ENDCHAR
STARTCHAR period.subs
ENCODING -1
SWIDTH 600 0
DWIDTH 7 0
BBX 2 1 2 -2
BITMAP
60
ENDCHAR
STARTCHAR comma.subs
ENCODING -1
SWIDTH 600 0
DWIDTH 7 0
BBX 2 3 2 -4
BITMAP
70
30
60
ENDCHAR
STARTCHAR zero.dnom
ENCODING -1
SWIDTH 600 0
DWIDTH 7 0
BBX 4 4 1 0
BITMAP
2D
77
77
2D
ENDCHAR
STARTCHAR one.dnom
ENCODING -1
SWIDTH 600 0
DWIDTH 7 0
BBX 3 3 2 0
BITMAP
B4
34
34
ENDCHAR
STARTCHAR two.dnom
ENCODING -1
SWIDTH 600 0
DWIDTH 7 0
BBX 3 4 2 0
BITMAP
B4
68
74
F8
ENDCHAR
STARTCHAR three.dnom
ENCODING -1
SWIDTH 600 0
DWIDTH 7 0
BBX 3 4 2 0
BITMAP
B4
28
74
B8
ENDCHAR
STARTCHAR four.dnom
ENCODING -1
SWIDTH 600 0
DWIDTH 7 0
BBX 4 4 1 0
BITMAP
14
3A
7F
06
ENDCHAR
STARTCHAR five.dnom
ENCODING -1
SWIDTH 600 0
DWIDTH 7 0
BBX 3 3 2 0
BITMAP
B8
F8
F4
ENDCHAR
STARTCHAR six.dnom
ENCODING -1
SWIDTH 600 0
DWIDTH 7 0
BBX 3 4 2 0
BITMAP
B4
C0
F8
B4
ENDCHAR
STARTCHAR seven.dnom
ENCODING -1
SWIDTH 600 0
DWIDTH 7 0
BBX 3 3 2 0
BITMAP
F8
24
70
ENDCHAR
STARTCHAR eight.dnom
ENCODING -1
SWIDTH 600 0
DWIDTH 7 0
BBX 3 4 2 0
BITMAP
B4
E4
E8
B4
ENDCHAR
STARTCHAR nine.dnom
ENCODING -1
SWIDTH 600 0
DWIDTH 7 0
BBX 3 4 2 0
BITMAP
B4
D8
F8
F4
ENDCHAR
STARTCHAR parenleft.dnom
ENCODING -1
SWIDTH 600 0
DWIDTH 7 0
BBX 3 6 2 -1
BITMAP
24
70
A0
A0
70
24
ENDCHAR
STARTCHAR parenright.dnom
ENCODING -1
SWIDTH 600 0
DWIDTH 7 0
BBX 3 6 2 -1
BITMAP
90
70
34
34
70
90
ENDCHAR
STARTCHAR period.dnom
ENCODING -1
SWIDTH 600 0
DWIDTH 7 0
BBX 2 1 2 0
BITMAP
60
ENDCHAR
STARTCHAR comma.dnom
ENCODING -1
SWIDTH 600 0
DWIDTH 7 0
BBX 2 3 2 -2
BITMAP
70
30
60
ENDCHAR
STARTCHAR zero.numr
ENCODING -1
SWIDTH 600 0
DWIDTH 7 0
BBX 4 4 1 3
BITMAP
2D
77
77
2D
ENDCHAR
STARTCHAR one.numr
ENCODING -1
SWIDTH 600 0
DWIDTH 7 0
BBX 3 3 2 3
BITMAP
B4
34
34
ENDCHAR
STARTCHAR two.numr
ENCODING -1
SWIDTH 600 0
DWIDTH 7 0
BBX 3 4 2 3
BITMAP
B4
68
74
F8
ENDCHAR
STARTCHAR three.numr
ENCODING -1
SWIDTH 600 0
DWIDTH 7 0
BBX 3 4 2 3
BITMAP
B4
28
74
B8
ENDCHAR
STARTCHAR four.numr
ENCODING -1
SWIDTH 600 0
DWIDTH 7 0
BBX 4 4 1 3
BITMAP
14
3A
7F
06
ENDCHAR
STARTCHAR five.numr
ENCODING -1
SWIDTH 600 0
DWIDTH 7 0
BBX 3 3 2 3
BITMAP
B8
F8
F4
ENDCHAR
STARTCHAR six.numr
ENCODING -1
SWIDTH 600 0
DWIDTH 7 0
BBX 3 4 2 3
BITMAP
B4
C0
F8
B4
ENDCHAR
STARTCHAR seven.numr
ENCODING -1
SWIDTH 600 0
DWIDTH 7 0
BBX 3 3 2 3
BITMAP
F8
24
70
ENDCHAR
STARTCHAR eight.numr
ENCODING -1
SWIDTH 600 0
DWIDTH 7 0
BBX 3 4 2 3
BITMAP
B4
E4
E8
B4
ENDCHAR
STARTCHAR nine.numr
ENCODING -1
SWIDTH 600 0
DWIDTH 7 0
BBX 3 4 2 3
BITMAP
B4
D8
F8
F4
ENDCHAR
STARTCHAR parenleft.numr
ENCODING -1
SWIDTH 600 0
DWIDTH 7 0
BBX 3 6 2 2
BITMAP
24
70
A0
A0
70
24
ENDCHAR
STARTCHAR parenright.numr
ENCODING -1
SWIDTH 600 0
DWIDTH 7 0
BBX 3 6 2 2
BITMAP
90
70
34
34
70
90
ENDCHAR
STARTCHAR period.numr
ENCODING -1
SWIDTH 600 0
DWIDTH 7 0
BBX 2 1 2 3
BITMAP
60
ENDCHAR
STARTCHAR comma.numr
ENCODING -1
SWIDTH 600 0
DWIDTH 7 0
BBX 2 3 2 1
BITMAP
70
30
60
ENDCHAR
STARTCHAR ordfeminine.a
ENCODING -1
SWIDTH 600 0
DWIDTH 7 0
BBX 4 4 1 4
BITMAP
3B
A7
A7
3B
ENDCHAR
STARTCHAR q.sups
ENCODING -1
SWIDTH 600 0
DWIDTH 7 0
BBX 4 5 1 3
BITMAP
3B
A7
A7
3F
03
ENDCHAR
STARTCHAR egrave.sups
ENCODING -1
SWIDTH 600 0
DWIDTH 7 0
BBX 4 6 1 4
BITMAP
24
08
2D
63
7F
2E
ENDCHAR
STARTCHAR eacute.sups
ENCODING -1
SWIDTH 600 0
DWIDTH 7 0
BBX 4 6 1 4
BITMAP
09
08
2D
63
7F
2E
ENDCHAR
STARTCHAR a.supa
ENCODING -1
SWIDTH 600 0
DWIDTH 7 0
BBX 4 4 1 4
BITMAP
3B
A7
A7
3B
ENDCHAR
STARTCHAR g.supa
ENCODING -1
SWIDTH 600 0
DWIDTH 7 0
BBX 4 5 1 3
BITMAP
2B
67
A7
3F
3D
ENDCHAR
STARTCHAR i.supa
ENCODING -1
SWIDTH 600 0
DWIDTH 7 0
BBX 5 5 1 4
BITMAP
0D00
3D00
0D00
0D00
7F40
ENDCHAR
STARTCHAR colon.sups
ENCODING -1
SWIDTH 600 0
DWIDTH 7 0
BBX 2 3 2 4
BITMAP
60
00
60
ENDCHAR
STARTCHAR hyphen.sups
ENCODING -1
SWIDTH 600 0
DWIDTH 7 0
BBX 3 1 2 5
BITMAP
B4
ENDCHAR
STARTCHAR endash.sups
ENCODING -1
SWIDTH 600 0
DWIDTH 7 0
BBX 3 1 2 5
BITMAP
F8
ENDCHAR
STARTCHAR emdash.sups
ENCODING -1
SWIDTH 600 0
DWIDTH 7 0
BBX 6 1 0 5
BITMAP
7FF0
ENDCHAR
STARTCHAR slash.frac
ENCODING -1
SWIDTH 600 0
DWIDTH 7 0
BBX 6 7 0 0
BITMAP
0020
00A0
0040
0000
0400
3400
5000
ENDCHAR
STARTCHAR uni0300.cap
ENCODING -1
SWIDTH 600 0
DWIDTH 7 0
BBX 2 2 2 8
BITMAP
90
60
ENDCHAR
STARTCHAR uni0300.g
ENCODING -1
SWIDTH 600 0
DWIDTH 7 0
BBX 2 3 2 6
BITMAP
A0
A0
60
ENDCHAR
STARTCHAR uni0301.cap
ENCODING -1
SWIDTH 600 0
DWIDTH 7 0
BBX 3 2 2 8
BITMAP
28
A0
ENDCHAR
STARTCHAR uni0301.g
ENCODING -1
SWIDTH 600 0
DWIDTH 7 0
BBX 3 3 2 6
BITMAP
34
34
70
ENDCHAR
STARTCHAR uni0302.cap
ENCODING -1
SWIDTH 600 0
DWIDTH 7 0
BBX 4 2 1 7
BITMAP
3E
62
ENDCHAR
STARTCHAR uni0303.cap
ENCODING -1
SWIDTH 600 0
DWIDTH 7 0
BBX 5 2 1 8
BITMAP
7640
9B00
ENDCHAR
STARTCHAR uni0304.cap
ENCODING -1
SWIDTH 600 0
DWIDTH 7 0
BBX 4 1 1 8
BITMAP
7F
ENDCHAR
STARTCHAR uni0305.cap
ENCODING -1
SWIDTH 600 0
DWIDTH 7 0
BBX 4 1 1 8
BITMAP
7F
ENDCHAR
STARTCHAR uni0306.c
ENCODING -1
SWIDTH 600 0
DWIDTH 7 0
BBX 4 2 1 6
BITMAP
A7
2E
ENDCHAR
STARTCHAR uni0306.cap
ENCODING -1
SWIDTH 600 0
DWIDTH 7 0
BBX 4 2 1 8
BITMAP
63
2E
ENDCHAR
STARTCHAR uni0306.ccap
ENCODING -1
SWIDTH 600 0
DWIDTH 7 0
BBX 5 2 1 8
BITMAP
B740
3E00
ENDCHAR
STARTCHAR uni0307.cap
ENCODING -1
SWIDTH 600 0
DWIDTH 7 0
BBX 2 2 2 8
BITMAP
70
70
ENDCHAR
STARTCHAR uni0308.cap
ENCODING -1
SWIDTH 600 0
DWIDTH 7 0
BBX 4 2 1 8
BITMAP
A3
A3
ENDCHAR
STARTCHAR uni0309.cap
ENCODING -1
SWIDTH 600 0
DWIDTH 7 0
BBX 3 3 2 7
BITMAP
A0
34
60
ENDCHAR
STARTCHAR uni030A.cap
ENCODING -1
SWIDTH 600 0
DWIDTH 7 0
BBX 3 3 2 7
BITMAP
B4
D8
B4
ENDCHAR
STARTCHAR uni030B.cap
ENCODING -1
SWIDTH 600 0
DWIDTH 7 0
BBX 4 2 2 8
BITMAP
66
88
ENDCHAR
STARTCHAR uni030C.cap
ENCODING -1
SWIDTH 600 0
DWIDTH 7 0
BBX 4 2 1 8
BITMAP
62
3E
ENDCHAR
STARTCHAR uni030C.a
ENCODING -1
SWIDTH 600 0
DWIDTH 7 0
BBX 2 3 2 6
BITMAP
70
70
60
ENDCHAR
STARTCHAR uni030F.cap
ENCODING -1
SWIDTH 600 0
DWIDTH 7 0
BBX 4 2 1 8
BITMAP
88
56
ENDCHAR
STARTCHAR uni0311.cap
ENCODING -1
SWIDTH 600 0
DWIDTH 7 0
BBX 4 2 1 7
BITMAP
2D
63
ENDCHAR
STARTCHAR uni0312.g
ENCODING -1
SWIDTH 600 0
DWIDTH 7 0
BBX 3 3 2 6
BITMAP
74
A0
60
ENDCHAR
STARTCHAR uni0313.g
ENCODING -1
SWIDTH 600 0
DWIDTH 7 0
BBX 3 3 2 6
BITMAP
A0
34
60
ENDCHAR
STARTCHAR uni0326.a
ENCODING -1
SWIDTH 600 0
DWIDTH 7 0
BBX 3 2 2 6
BITMAP
74
B0
ENDCHAR
STARTCHAR uni0327.cap
ENCODING -1
SWIDTH 600 0
DWIDTH 7 0
BBX 3 4 2 -4
BITMAP
60
B0
34
E0
ENDCHAR
STARTCHAR uni0328.cap
ENCODING -1
SWIDTH 600 0
DWIDTH 7 0
BBX 3 2 2 -2
BITMAP
A0
B4
ENDCHAR
STARTCHAR uni03080301
ENCODING -1
SWIDTH 600 0
DWIDTH 7 0
BBX 4 4 1 6
BITMAP
09
08
00
63
ENDCHAR
STARTCHAR uni03080301.cap
ENCODING -1
SWIDTH 600 0
DWIDTH 7 0
BBX 4 3 1 8
BITMAP
09
08
63
ENDCHAR
STARTCHAR uni03080301.g
ENCODING -1
SWIDTH 600 0
DWIDTH 7 0
BBX 5 3 1 6
BITMAP
0C00
9E40
1800
ENDCHAR
STARTCHAR uni03080300
ENCODING -1
SWIDTH 600 0
DWIDTH 7 0
BBX 4 4 1 6
BITMAP
24
18
00
63
ENDCHAR
STARTCHAR uni03080300.cap
ENCODING -1
SWIDTH 600 0
DWIDTH 7 0
BBX 4 3 1 8
BITMAP
24
18
63
ENDCHAR
STARTCHAR uni03080300.g
ENCODING -1
SWIDTH 600 0
DWIDTH 7 0
BBX 5 3 1 6
BITMAP
1800
AA40
0800
ENDCHAR
STARTCHAR uni03080303
ENCODING -1
SWIDTH 600 0
DWIDTH 7 0
BBX 4 4 1 6
BITMAP
3A
55
00
63
ENDCHAR
STARTCHAR uni03080304
ENCODING -1
SWIDTH 600 0
DWIDTH 7 0
BBX 4 3 1 6
BITMAP
7F
00
63
ENDCHAR
STARTCHAR uni03080304.cap
ENCODING -1
SWIDTH 600 0
DWIDTH 7 0
BBX 4 3 1 8
BITMAP
7F
00
63
ENDCHAR
STARTCHAR uni0308030C
ENCODING -1
SWIDTH 600 0
DWIDTH 7 0
BBX 4 4 1 6
BITMAP
26
2D
00
63
ENDCHAR
STARTCHAR uni0308030C.cap
ENCODING -1
SWIDTH 600 0
DWIDTH 7 0
BBX 4 3 1 8
BITMAP
66
2D
63
ENDCHAR
STARTCHAR uni03020301
ENCODING -1
SWIDTH 600 0
DWIDTH 7 0
BBX 4 3 2 6
BITMAP
02
BA
98
ENDCHAR
STARTCHAR uni03020301.cap
ENCODING -1
SWIDTH 600 0
DWIDTH 7 0
BBX 5 3 1 7
BITMAP
0080
2E40
6600
ENDCHAR
STARTCHAR uni03020300
ENCODING -1
SWIDTH 600 0
DWIDTH 7 0
BBX 5 3 0 6
BITMAP
5000
2B40
0980
ENDCHAR
STARTCHAR uni03020300.cap
ENCODING -1
SWIDTH 600 0
DWIDTH 7 0
BBX 5 3 0 7
BITMAP
5000
2B40
1980
ENDCHAR
STARTCHAR uni03020309
ENCODING -1
SWIDTH 600 0
DWIDTH 7 0
BBX 4 4 2 6
BITMAP
0A
03
BA
98
ENDCHAR
STARTCHAR uni03020309.cap
ENCODING -1
SWIDTH 600 0
DWIDTH 7 0
BBX 5 4 1 7
BITMAP
0280
00C0
2E80
6600
ENDCHAR
STARTCHAR uni03020303
ENCODING -1
SWIDTH 600 0
DWIDTH 7 0
BBX 4 4 1 6
BITMAP
15
6E
2D
26
ENDCHAR
STARTCHAR uni03020303.cap
ENCODING -1
SWIDTH 600 0
DWIDTH 7 0
BBX 4 3 1 8
BITMAP
25
6A
2A
ENDCHAR
STARTCHAR uni03060301
ENCODING -1
SWIDTH 600 0
DWIDTH 7 0
BBX 4 4 1 6
BITMAP
09
08
63
2E
ENDCHAR
STARTCHAR uni03060301.cap
ENCODING -1
SWIDTH 600 0
DWIDTH 7 0
BBX 4 4 1 8
BITMAP
09
08
63
2D
ENDCHAR
STARTCHAR uni03060300
ENCODING -1
SWIDTH 600 0
DWIDTH 7 0
BBX 4 4 1 6
BITMAP
24
18
63
2E
ENDCHAR
STARTCHAR uni03060300.cap
ENCODING -1
SWIDTH 600 0
DWIDTH 7 0
BBX 4 4 1 8
BITMAP
24
18
63
2D
ENDCHAR
STARTCHAR uni03060309
ENCODING -1
SWIDTH 600 0
DWIDTH 7 0
BBX 4 5 1 6
BITMAP
18
0D
18
63
2E
ENDCHAR
STARTCHAR uni03060309.cap
ENCODING -1
SWIDTH 600 0
DWIDTH 7 0
BBX 4 5 1 8
BITMAP
18
0D
08
63
2D
ENDCHAR
STARTCHAR uni03060303
ENCODING -1
SWIDTH 600 0
DWIDTH 7 0
BBX 4 4 1 6
BITMAP
25
6E
63
2D
ENDCHAR
STARTCHAR uni03060303.cap
ENCODING -1
SWIDTH 600 0
DWIDTH 7 0
BBX 4 3 1 8
BITMAP
25
BF
2D
ENDCHAR
STARTCHAR uni03020306
ENCODING -1
SWIDTH 600 0
DWIDTH 7 0
BBX 3 4 2 6
BITMAP
44
A4
60
94
ENDCHAR
STARTCHAR uni03020306.cap
ENCODING -1
SWIDTH 600 0
DWIDTH 7 0
BBX 3 5 2 7
BITMAP
04
A8
00
B4
98
ENDCHAR
STARTCHAR uni03040301
ENCODING -1
SWIDTH 600 0
DWIDTH 7 0
BBX 4 4 1 7
BITMAP
09
18
00
7F
ENDCHAR
STARTCHAR uni03040301.cap
ENCODING -1
SWIDTH 600 0
DWIDTH 7 0
BBX 4 4 1 8
BITMAP
09
18
00
7F
ENDCHAR
STARTCHAR uni03120301
ENCODING -1
SWIDTH 600 0
DWIDTH 7 0
BBX 4 3 1 6
BITMAP
77
96
69
ENDCHAR
STARTCHAR uni03120300
ENCODING -1
SWIDTH 600 0
DWIDTH 7 0
BBX 4 3 1 6
BITMAP
7A
96
63
ENDCHAR
STARTCHAR uni03120303
ENCODING -1
SWIDTH 600 0
DWIDTH 7 0
BBX 4 4 1 6
BITMAP
15
7E
28
18
ENDCHAR
STARTCHAR uni03130301
ENCODING -1
SWIDTH 600 0
DWIDTH 7 0
BBX 4 3 1 6
BITMAP
A7
76
69
ENDCHAR
STARTCHAR uni03130300
ENCODING -1
SWIDTH 600 0
DWIDTH 7 0
BBX 4 3 1 6
BITMAP
AA
76
63
ENDCHAR
STARTCHAR uni03130303
ENCODING -1
SWIDTH 600 0
DWIDTH 7 0
BBX 4 4 1 6
BITMAP
15
7E
0C
08
ENDCHAR
STARTCHAR space.frac
ENCODING -1
SWIDTH 600 0
DWIDTH 7 0
BBX 1 1 0 0
BITMAP
00
ENDCHAR
STARTCHAR nbspace.frac
ENCODING -1
SWIDTH 600 0
DWIDTH 7 0
BBX 1 1 0 0
BITMAP
00
ENDCHAR
STARTCHAR u1F3B5_uniFE0F
ENCODING -1
SWIDTH 600 0
DWIDTH 7 0
BBX 6 8 0 0
BITMAP
0340
03E0
0330
0320
0310
0300
2F00
7D00
ENDCHAR
STARTCHAR u1F3B6_uniFE0F
ENCODING -1
SWIDTH 600 0
DWIDTH 7 0
BBX 7 8 0 0
BITMAP
06A8
0BF8
0BA8
0808
0808
0808
BDF8
F9F4
ENDCHAR
STARTCHAR uni2611_uniFE0F
ENCODING -1
SWIDTH 600 0
DWIDTH 7 0
BBX 9 9 -1 0
BITMAP
000100
000340
3FFF00
501F00
543B00
5D7300
57A300
52D300
500200
ENDCHAR
STARTCHAR uni2713_uniFE0F
ENCODING -1
SWIDTH 600 0
DWIDTH 7 0
BBX 7 8 0 0
BITMAP
0024
0074
00E0
01C0
8340
A700
3A00
2C00
ENDCHAR
STARTCHAR uni2665_uniFE0F
ENCODING -1
SWIDTH 600 0
DWIDTH 7 0
BBX 7 8 0 0
BITMAP
79E0
FFF4
FFF8
BFF4
7FF0
2FD0
0F80
0600
ENDCHAR
STARTCHAR uni2663_uniFE0F
ENCODING -1
SWIDTH 600 0
DWIDTH 7 0
BBX 7 8 0 0
BITMAP
0B40
1FC0
0F80
BFF4
FFF8
BBF4
1B40
3FE0
ENDCHAR
STARTCHAR uni2666_uniFE0F
ENCODING -1
SWIDTH 600 0
DWIDTH 7 0
BBX 7 8 0 0
BITMAP
0600
0F80
2FD0
BFF4
BFF4
2FD0
0F80
0600
ENDCHAR
STARTCHAR uni2660_uniFE0F
ENCODING -1
SWIDTH 600 0
DWIDTH 7 0
BBX 7 8 0 0
BITMAP
0600
1F80
3FE0
BFF4
FFF8
BFF4
1B50
3FE0
ENDCHAR
STARTCHAR uni263A_uniFE0F
ENCODING -1
SWIDTH 600 0
DWIDTH 7 0
BBX 7 7 0 0
BITMAP
1F90
6070
CD94
9458
CB54
6070
1F90
ENDCHAR
STARTCHAR uni263B_uniFE0F
ENCODING -1
SWIDTH 600 0
DWIDTH 7 0
BBX 7 6 0 1
BITMAP
1F90
7670
BFF4
AFB4
7470
1F90
ENDCHAR
STARTCHAR uni2764_uniFE0F
ENCODING -1
SWIDTH 600 0
DWIDTH 7 0
BBX 8 7 -1 0
BITMAP
2E7D
BFFF
BFFF
7FFF
2FFD
07E0
0080
ENDCHAR
STARTCHAR uni2615_uniFE0F
ENCODING -1
SWIDTH 600 0
DWIDTH 7 0
BBX 8 7 -1 0
BITMAP
1BE0
7FE8
69AA
5BD6
2007
246D
0BD0
ENDCHAR
STARTCHAR u1F4A9_uniFE0F
ENCODING -1
SWIDTH 600 0
DWIDTH 7 0
BBX 7 7 0 0
BITMAP
0640
1FC0
7BA0
6670
BFF4
F478
BFE4
ENDCHAR
STARTCHAR u1F916_uniFE0F
ENCODING -1
SWIDTH 600 0
DWIDTH 7 0
BBX 8 7 -1 0
BITMAP
0BE4
2BFD
76AA
67E7
7006
199C
07E4
ENDCHAR
STARTCHAR u1F512_uniFE0F
ENCODING -1
SWIDTH 600 0
DWIDTH 7 0
BBX 7 10 0 -1
BITMAP
0B80
28D0
24D0
24D0
BFF4
B8F4
B8F4
BDF4
B9F4
BFF4
ENDCHAR
ENDFONT
